0
SECTION
2
HEADER
9
$INSUNITS
70
4
9
$ACADVER
1
AC1014
9
$HANDSEED
5
FFFF
0
ENDSEC
0
SECTION
2
TABLES
0
TABLE
2
VPORT
5
8
100
AcDbSymbolTable
0
ENDTAB
0
TABLE
2
LTYPE
5
5
100
AcDbSymbolTable
0
LTYPE
5
14
100
AcDbSymbolTableRecord
100
AcDbLinetypeTableRecord
2
BYBLOCK
70
0
0
LTYPE
5
15
100
AcDbSymbolTableRecord
100
AcDbLinetypeTableRecord
2
BYLAYER
70
0
0
ENDTAB
0
TABLE
2
LAYER
5
2
100
AcDbSymbolTable
70
2
0
LAYER
5
50
100
AcDbSymbolTableRecord
100
AcDbLayerTableRecord
2
0
70
0
6
CONTINUOUS
0
ENDTAB
0
TABLE
2
STYLE
5
3
100
AcDbSymbolTable
70
1
0
STYLE
5
11
100
AcDbSymbolTableRecord
100
AcDbTextStyleTableRecord
2
STANDARD
70
0
0
ENDTAB
0
TABLE
2
VIEW
5
6
100
AcDbSymbolTable
70
0
0
ENDTAB
0
TABLE
2
UCS
5
7
100
AcDbSymbolTable
70
0
0
ENDTAB
0
TABLE
2
APPID
5
9
100
AcDbSymbolTable
70
2
0
APPID
5
12
100
AcDbSymbolTableRecord
100
AcDbRegAppTableRecord
2
ACAD
70
0
0
ENDTAB
0
TABLE
2
DIMSTYLE
5
A
100
AcDbSymbolTable
70
1
0
ENDTAB
0
TABLE
2
BLOCK_RECORD
5
1
100
AcDbSymbolTable
70
1
0
BLOCK_RECORD
5
1F
100
AcDbSymbolTableRecord
100
AcDbBlockTableRecord
2
*MODEL_SPACE
0
BLOCK_RECORD
5
1B
100
AcDbSymbolTableRecord
100
AcDbBlockTableRecord
2
*PAPER_SPACE
0
ENDTAB
0
ENDSEC
0
SECTION
2
BLOCKS
0
BLOCK
5
20
100
AcDbEntity
100
AcDbBlockBegin
2
*MODEL_SPACE
0
ENDBLK
5
21
100
AcDbEntity
100
AcDbBlockEnd
0
BLOCK
5
1C
100
AcDbEntity
100
AcDbBlockBegin
2
*PAPER_SPACE
0
ENDBLK
5
1D
100
AcDbEntity
100
AcDbBlockEnd
0
ENDSEC
0
SECTION
2
ENTITIES
0
LINE
5
100
100
AcDbEntity
8
0
100
AcDbLine
10
79.371877226619176
20
-44.240392555267647
30
0
11
79.362892438537727
21
-44.240392555267647
31
0
0
LINE
5
101
100
AcDbEntity
8
0
100
AcDbLine
10
-139.79869896895008
20
47.968635844323302
30
0
11
-139.80768375703158
21
47.968635844323302
31
0
0
LWPOLYLINE
5
102
100
AcDbEntity
8
0
100
AcDbPolyline
90
8
70
1
43
0.0
10
-59.512879922944947
20
-25.97200507284672
10
-47.1618975492283
20
-25.97200507340121
42
0.41421356237309509
10
-46.411897549194627
20
-25.222005073434879
10
-46.411897548640155
20
-12.87102269971979
42
0.41421356237310364
10
-47.161897548606476
20
-12.121022699686122
10
-59.512879922323137
20
-12.121022699131672
42
0.41421356237309331
10
-60.262879922356809
20
-12.871022699098003
10
-60.262879922911274
20
-25.222005072813047
42
0.41421356237309509
0
LWPOLYLINE
5
103
100
AcDbEntity
8
0
100
AcDbPolyline
90
8
70
1
43
0.0
10
-5.5686798579338159
20
50.158147971826054
10
6.7823025157838135
20
50.158147971826054
42
-0.41421356237308982
10
7.5323025157838108
20
49.408147971826054
10
7.5323025157838153
20
37.057165598108412
42
-0.4142135623730881
10
6.7823025157838144
20
36.307165598108412
10
-5.568679857933815
20
36.307165598108412
42
-0.41421356237309165
10
-6.3186798579338159
20
37.057165598108412
10
-6.3186798579338133
20
49.408147971826054
42
-0.41421356237308982
0
LWPOLYLINE
5
104
100
AcDbEntity
8
0
100
AcDbPolyline
90
8
70
1
43
0.0
10
-21.509676565733397
20
-30.722341989733124
10
-9.1586941920157656
20
-30.722341990288172
42
0.41421356237310625
10
-8.408694191982061
20
-29.972341990321844
10
-8.4086941914275926
20
-17.621359616599072
42
0.41421356237307944
10
-9.1586941913938915
20
-16.8713596165654
10
-21.509676565111523
20
-16.87135961601037
42
0.41421356237309853
10
-22.259676565145227
20
-17.621359615976708
10
-22.259676565699689
20
-29.972341989699459
42
0.41421356237309509
0
LWPOLYLINE
5
105
100
AcDbEntity
8
0
100
AcDbPolyline
90
8
70
1
43
0.0
10
-21.509676566586521
20
-49.723689650425257
10
-9.1586941928688894
20
-49.72368965098029
42
0.4142135623731007
10
-8.4086941928351848
20
-48.973689651013984
10
-8.4086941922804321
20
-36.622707277296357
42
0.41421356237308637
10
-9.158694192246724
20
-35.87270727726267
10
-21.509676565964352
20
-35.872707276707629
42
0.4142135623731002
10
-22.259676565998056
20
-36.622707276673943
10
-22.259676566552812
20
-48.973689650391563
42
0.41421356237309331
0
LWPOLYLINE
5
106
100
AcDbEntity
8
0
100
AcDbPolyline
90
8
70
1
43
0.0
10
7.5323025157838108
20
87.410843293216715
10
7.5323025157838108
20
75.059860919497808
42
-0.41421356237309331
10
6.7823025157838144
20
74.309860919497822
10
-5.568679857933815
20
74.309860919497822
42
-0.4142135623730942
10
-6.3186798579338159
20
75.059860919497822
10
-6.3186798579338088
20
87.410843293216715
42
-0.41421356237309509
10
-5.5686798579338159
20
88.160843293216701
10
6.7823025157838135
20
88.160843293216701
42
-0.41421356237309681
0
LWPOLYLINE
5
107
100
AcDbEntity
8
0
100
AcDbPolyline
90
8
70
1
43
0.0
10
-6.3186798579338159
20
56.058513258800538
10
-6.3186798579338133
20
68.409495632523317
42
-0.41421356237308982
10
-5.5686798579338159
20
69.159495632523317
10
6.7823025157838135
20
69.159495632523317
42
-0.41421356237308982
10
7.5323025157838108
20
68.409495632523317
10
7.5323025157838108
20
56.058513258800531
42
-0.41421356237309331
10
6.7823025157838144
20
55.308513258800538
10
-5.568679857933815
20
55.308513258800538
42
-0.4142135623730942
0
LWPOLYLINE
5
108
100
AcDbEntity
8
0
100
AcDbPolyline
90
8
70
1
43
0.0
10
-27.41054988785244
20
-10.970994328771146
10
-27.410549887297986
20
1.3799880449477642
42
0.4142135623730942
10
-28.160549887264324
20
2.1299880449814323
10
-40.511532260983515
20
2.1299880455358999
42
0.41421356237309587
10
-41.26153226101718
20
1.3799880455695535
10
-41.261532261571389
20
-10.970994328149374
42
0.41421356237308982
10
-40.511532261605048
20
-11.720994328183023
10
-28.160549887886106
20
-11.720994328737477
42
0.41421356237309853
0
LWPOLYLINE
5
109
100
AcDbEntity
8
0
100
AcDbPolyline
90
8
70
1
43
0.0
10
44.785505873208436
20
79.060197834674682
10
32.434523499492094
20
79.060197834674682
42
-0.41421356237309509
10
31.684523499492094
20
79.810197834674682
10
31.684523499492087
20
92.161180208389766
42
-0.4142135623730881
10
32.434523499492094
20
92.911180208389766
10
44.785505873208436
20
92.911180208389766
42
-0.4142135623730881
10
45.53550587320845
20
92.161180208389766
10
45.535505873208436
20
79.810197834674682
42
-0.41421356237309509
0
LWPOLYLINE
5
110
100
AcDbEntity
8
0
100
AcDbPolyline
90
8
70
1
43
0.0
10
83.538201194597832
20
92.161180208389766
10
83.538201194597832
20
79.810197834674682
42
-0.4142135623730881
10
82.788201194597832
20
79.060197834674668
10
70.437218820878925
20
79.060197834674668
42
-0.4142135623730881
10
69.687218820878925
20
79.810197834674682
10
69.687218820878911
20
92.161180208389766
42
-0.41421356237312973
10
70.437218820878925
20
92.911180208389766
10
82.788201194597832
20
92.911180208389766
42
-0.41421356237310886
0
SPLINE
5
111
100
AcDbEntity
8
0
100
AcDbSpline
70
2
71
3
72
14
73
10
74
0
42
0.000000001
43
0.0000000001
44
0.0000000001
40
0
40
0
40
0
40
0
40
1
40
1
40
2
40
2
40
3
40
3
40
4
40
4
40
4
40
4
10
52.259367862302959
20
35.602947782790707
30
0
10
52.259367862302959
20
36.210504098222216
30
0
10
52.751889569329023
20
36.703025805254697
30
0
10
53.967002200193321
20
36.703025805254697
30
0
10
54.459523907219385
20
36.210504098222216
30
0
10
54.459523907219385
20
34.99539146736047
30
0
10
53.967002200193321
20
34.502869760335727
30
0
10
52.751889569329023
20
34.502869760335727
30
0
10
52.259367862302959
20
34.99539146736047
30
0
10
52.259367862302959
20
35.602947782790707
30
0
0
SPLINE
5
112
100
AcDbEntity
8
0
100
AcDbSpline
70
2
71
3
72
14
73
10
74
0
42
0.000000001
43
0.0000000001
44
0.0000000001
40
0
40
0
40
0
40
0
40
1
40
1
40
2
40
2
40
3
40
3
40
4
40
4
40
4
40
4
10
67.926440738746848
20
-54.370919020295965
30
0
10
67.926440738773778
20
-53.763362704864434
30
0
10
67.433919031765697
20
-53.27084099780631
30
0
10
66.21880640090653
20
-53.270840997751762
30
0
10
65.726284693849692
20
-53.763362704765626
30
0
10
65.72628469379579
20
-54.978475335627344
30
0
10
66.218806400807722
20
-55.470997042674568
30
0
10
67.433919031666889
20
-55.47099704272911
30
0
10
67.92644073871989
20
-54.978475335726181
30
0
10
67.926440738746848
20
-54.370919020295965
30
0
0
SPLINE
5
113
100
AcDbEntity
8
0
100
AcDbSpline
70
2
71
3
72
14
73
10
74
0
42
0.000000001
43
0.0000000001
44
0.0000000001
40
0
40
0
40
0
40
0
40
1
40
1
40
2
40
2
40
3
40
3
40
4
40
4
40
4
40
4
10
21.406461877911418
20
-62.125428644607872
30
0
10
21.4064618779387
20
-61.517872329176342
30
0
10
20.913940170930921
20
-61.025350622118225
30
0
10
19.698827540070461
20
-61.025350622063677
30
0
10
19.206305833015872
20
-61.517872329078187
30
0
10
19.206305832961341
20
-62.73298495993221
30
0
10
19.69882753997166
20
-63.225506666987798
30
0
10
20.913940170831779
20
-63.225506667042318
30
0
10
21.406461877884468
20
-62.732984960030393
30
0
10
21.406461877911418
20
-62.125428644607872
30
0
0
SPLINE
5
114
100
AcDbEntity
8
0
100
AcDbSpline
70
2
71
3
72
14
73
10
74
0
42
0.000000001
43
0.0000000001
44
0.0000000001
40
0
40
0
40
0
40
0
40
1
40
1
40
2
40
2
40
3
40
3
40
4
40
4
40
4
40
4
10
-66.986741913137436
20
-50.427907463701388
30
0
10
-66.986741913110464
20
-49.820351148269864
30
0
10
-67.479263620114068
20
-49.327829441215592
30
0
10
-68.694376250978365
20
-49.327829441161043
30
0
10
-69.18689795802689
20
-49.820351148171049
30
0
10
-69.186897958081403
20
-51.035463779032781
30
0
10
-68.694376251077188
20
-51.527985486080006
30
0
10
-67.479263620212876
20
-51.527985486134554
30
0
10
-66.986741913165019
20
-51.035463779131618
30
0
10
-66.986741913137436
20
-50.427907463701388
30
0
0
LWPOLYLINE
5
115
100
AcDbEntity
8
0
100
AcDbPolyline
90
8
70
1
43
0.0
10
96.404966786166369
20
29.786607050902283
10
93.22041982229365
20
17.853232581338403
42
-0.41421356237320794
10
92.30240045087865
20
17.321969526244999
10
80.369025981318487
20
20.506516490121072
42
-0.41421356237302309
10
79.837762926225281
20
21.424535861535837
10
83.022309890099152
20
33.357910331098573
42
-0.41421356237316059
10
83.94032926151408
20
33.889173386191914
10
95.873703731073078
20
30.704626422316984
42
-0.41421356237300377
0
LWPOLYLINE
5
116
100
AcDbEntity
8
0
100
AcDbPolyline
90
8
70
1
43
0.0
10
-104.16594053165215
20
-33.497538815412099
10
-116.51692290537235
20
-33.49753881485762
42
0.41421356237309509
10
-117.26692290540601
20
-34.247538814823955
10
-117.26692290596047
20
-46.598521188537731
42
0.41421356237308121
10
-116.51692290599412
20
-47.348521188571404
10
-104.16594053227396
20
-47.348521189125854
42
0.41421356237309509
10
-103.4159405322403
20
-46.598521189159527
10
-103.41594053168581
20
-34.247538815445765
42
0.41421356237308465
0
LWPOLYLINE
5
117
100
AcDbEntity
8
0
100
AcDbPolyline
90
8
70
1
43
0.0
10
44.785505873208436
20
60.058850173981284
10
32.434523499492094
20
60.058850173981284
42
-0.41421356237309509
10
31.684523499492094
20
60.808850173981284
10
31.684523499492094
20
73.15983254769634
42
-0.4142135623730881
10
32.434523499492094
20
73.90983254769634
10
44.785505873208436
20
73.90983254769634
42
-0.4142135623730881
10
45.535505873208436
20
73.15983254769634
10
45.535505873208436
20
60.808850173981284
42
-0.41421356237309509
0
LWPOLYLINE
5
118
100
AcDbEntity
8
0
100
AcDbPolyline
90
8
70
1
43
0.0
10
-97.515575245187151
20
-44.973352731840272
10
-85.16459287146823
20
-44.973352732394723
42
0.41421356237309509
10
-84.414592871434579
20
-44.223352732428395
10
-84.414592870880085
20
-31.872370358714647
42
0.41421356237308121
10
-85.164592870846434
20
-31.122370358680975
10
-97.515575244565326
20
-31.122370358126492
42
0.41421356237310542
10
-98.265575244599006
20
-31.872370358092823
10
-98.265575245153499
20
-44.2233527318066
42
0.41421356237308121
0
LWPOLYLINE
5
119
100
AcDbEntity
8
0
100
AcDbPolyline
90
8
70
1
43
0.0
10
82.788201194597832
20
41.057502513281435
10
70.437218820878925
20
41.057502513281435
42
-0.4142135623730881
10
69.687218820878925
20
41.807502513281449
10
69.687218820878925
20
54.158484886995225
42
-0.41421356237308465
10
70.437218820878925
20
54.908484886995225
10
82.788201194597832
20
54.908484886995225
42
-0.41421356237308465
10
83.538201194597832
20
54.158484886995225
10
83.538201194597832
20
41.807502513281449
42
-0.4142135623730881
0
LWPOLYLINE
5
120
100
AcDbEntity
8
0
100
AcDbPolyline
90
8
70
1
43
0.0
10
26.534158212508963
20
87.410843293216715
10
26.534158212508956
20
75.059860919497822
42
-0.41421356237309509
10
25.784158212508956
20
74.309860919497822
10
13.433175838789712
20
74.309860919497822
42
-0.41421356237309331
10
12.683175838789712
20
75.059860919497822
10
12.683175838789706
20
87.410843293216715
42
-0.41421356237308637
10
13.433175838789712
20
88.160843293216701
10
25.784158212508956
20
88.160843293216701
42
-0.4142135623730881
0
LWPOLYLINE
5
121
100
AcDbEntity
8
0
100
AcDbPolyline
90
8
70
1
43
0.0
10
50.685871160184213
20
63.184018631567163
10
50.685871160184213
20
75.535001005284755
42
-0.41421356237308121
10
51.43587116018422
20
76.285001005284755
10
63.786853533901862
20
76.285001005284755
42
-0.4142135623730881
10
64.536853533901862
20
75.535001005284755
10
64.536853533901862
20
63.184018631567163
42
-0.41421356237309509
10
63.786853533901862
20
62.434018631567163
10
51.43587116018422
20
62.434018631567163
42
-0.4142135623730881
0
LWPOLYLINE
5
122
100
AcDbEntity
8
0
100
AcDbPolyline
90
8
70
1
43
0.0
10
-85.164592869993641
20
-12.121022697979846
10
-97.515575243712561
20
-12.121022697425374
42
0.41421356237308982
10
-98.265575243746213
20
-12.871022697391687
10
-98.26557524430099
20
-25.222005071106757
42
0.41421356237308121
10
-97.515575244334642
20
-25.972005071140465
10
-85.164592870615706
20
-25.972005071694902
42
0.41421356237308465
10
-84.414592870582055
20
-25.222005071728599
10
-84.414592870027292
20
-12.871022698013533
42
0.4142135623730881
0
SPLINE
5
123
100
AcDbEntity
8
0
100
AcDbSpline
70
2
71
3
72
14
73
10
74
0
42
0.000000001
43
0.0000000001
44
0.0000000001
40
0
40
0
40
0
40
0
40
1
40
1
40
2
40
2
40
3
40
3
40
4
40
4
40
4
40
4
10
111.17877752616133
20
-37.261190059692225
30
0
10
111.1787775261883
20
-36.653633744261988
30
0
10
110.68625581917894
20
-36.161112037207708
30
0
10
109.47114318832107
20
-36.161112037153167
30
0
10
108.9786214812642
20
-36.653633744163159
30
0
10
108.97862148120902
20
-37.868746375024912
30
0
10
109.47114318822227
20
-38.361268082075981
30
0
10
110.6862558190801
20
-38.361268082130515
30
0
10
111.17877752613312
20
-37.868746375123727
30
0
10
111.17877752616133
20
-37.261190059692225
30
0
0
LWPOLYLINE
5
124
100
AcDbEntity
8
0
100
AcDbPolyline
90
8
70
1
43
0.0
10
-21.509676564880252
20
-11.720994329035875
10
-9.1586941911626276
20
-11.72099432959091
42
0.41421356237310675
10
-8.408694191128923
20
-10.970994329624579
10
-8.4086941905744546
20
1.3799880440943402
42
0.41421356237308121
10
-9.15869419054075
20
2.1299880441280084
10
-21.509676564258385
20
2.1299880446830466
42
0.41421356237310542
10
-22.259676564292093
20
1.3799880447167157
10
-22.259676564846551
20
-10.970994329002197
42
0.41421356237307944
0
LWPOLYLINE
5
125
100
AcDbEntity
8
0
100
AcDbPolyline
90
8
70
1
43
0.0
10
119.45374867361596
20
23.753835071457708
10
113.2855574581539
20
13.053359253743654
42
-0.41421356237309814
10
112.26122596029671
20
12.778141190205547
10
101.56075014258266
20
18.94633240566764
42
-0.41421356237322943
10
101.28553207904473
20
19.970663903525086
10
107.4537232945091
20
30.671139721232269
42
-0.41421356237286355
10
108.4780547923659
20
30.946357784770221
10
119.1785306100776
20
24.77816656931504
42
-0.41421356237320534
0
LWPOLYLINE
5
126
100
AcDbEntity
8
0
100
AcDbPolyline
90
8
70
1
43
0.0
10
12.683175838789712
20
56.058513258800538
10
12.683175838789715
20
68.409495632523317
42
-0.41421356237308982
10
13.433175838789712
20
69.159495632523317
10
25.784158212508956
20
69.159495632523317
42
-0.41421356237309509
10
26.534158212508956
20
68.409495632523317
10
26.534158212508956
20
56.058513258800538
42
-0.41421356237309509
10
25.784158212508956
20
55.308513258800538
10
13.433175838789712
20
55.308513258800538
42
-0.41421356237309331
0
LWPOLYLINE
5
127
100
AcDbEntity
8
0
100
AcDbPolyline
90
8
70
1
43
0.0
10
45.535505873208436
20
54.158484886995225
10
45.535505873208436
20
41.807502513281449
42
-0.41421356237309509
10
44.785505873208436
20
41.057502513281449
10
32.434523499492094
20
41.057502513281449
42
-0.41421356237309509
10
31.684523499492094
20
41.807502513281449
10
31.684523499492094
20
54.158484886995225
42
-0.4142135623730881
10
32.434523499492094
20
54.908484886995225
10
44.785505873208436
20
54.908484886995225
42
-0.4142135623730881
0
SPLINE
5
128
100
AcDbEntity
8
0
100
AcDbSpline
70
2
71
3
72
14
73
10
74
0
42
0.000000001
43
0.0000000001
44
0.0000000001
40
0
40
0
40
0
40
0
40
1
40
1
40
2
40
2
40
3
40
3
40
4
40
4
40
4
40
4
10
-23.743200533901927
20
-14.303032877096268
30
0
10
-23.743200533874649
20
-13.695476561668634
30
0
10
-24.235722240881124
20
-13.202954854613683
30
0
10
-25.450834871742856
20
-13.202954854559152
30
0
10
-25.943356578798742
20
-13.695476561569805
30
0
10
-25.943356578853304
20
-14.910589192423839
30
0
10
-25.450834871841682
20
-15.403110899478115
30
0
10
-24.23572224097995
20
-15.403110899532674
30
0
10
-23.743200533929194
20
-14.910589192522661
30
0
10
-23.743200533901927
20
-14.303032877096268
30
0
0
LWPOLYLINE
5
129
100
AcDbEntity
8
0
100
AcDbPolyline
90
8
70
1
43
0.0
10
83.538201194597832
20
73.15983254769634
10
83.538201194597832
20
60.808850173981284
42
-0.4142135623730881
10
82.788201194597832
20
60.058850173981277
10
70.437218820878925
20
60.058850173981277
42
-0.4142135623730881
10
69.687218820878925
20
60.808850173981284
10
69.687218820878925
20
73.15983254769634
42
-0.41421356237308465
10
70.437218820878925
20
73.90983254769634
10
82.788201194597832
20
73.90983254769634
42
-0.41421356237308465
0
LWPOLYLINE
5
130
100
AcDbEntity
8
0
100
AcDbPolyline
90
8
70
1
43
0.0
10
-59.512879922092097
20
-6.9706574121533071
10
-47.161897548375137
20
-6.9706574127077747
42
0.41421356237309853
10
-46.411897548341457
20
-6.2206574127414527
10
-46.411897547787014
20
6.1303249609736117
42
0.41421356237309331
10
-47.161897547753348
20
6.8803249610072807
10
-59.512879921469725
20
6.8803249615617474
42
0.41421356237307505
10
-60.262879921503398
20
6.1303249615954503
10
-60.262879922058417
20
-6.2206574121196034
42
0.41421356237311757
0
LWPOLYLINE
5
131
100
AcDbEntity
8
0
100
AcDbPolyline
90
8
70
1
43
0.0
10
51.43587116018422
20
95.286348665974316
10
63.786853533901862
20
95.286348665974316
42
-0.4142135623730881
10
64.536853533901876
20
94.53634866597433
10
64.536853533901862
20
82.185366292260525
42
-0.4142135623730881
10
63.786853533901862
20
81.435366292260554
10
51.43587116018422
20
81.435366292260539
42
-0.41421356237308465
10
50.685871160184213
20
82.185366292260525
10
50.685871160184213
20
94.53634866597433
42
-0.41421356237308465
0
LWPOLYLINE
5
132
100
AcDbEntity
8
0
100
AcDbPolyline
90
8
70
1
43
0.0
10
-126.98860001215552
20
-73.252714053592996
10
-116.28812419416484
20
-67.08452283861098
42
0.41421356237320694
10
-116.01290613058094
20
-66.06019134076584
10
-122.18109734556552
20
-55.359715522781691
42
0.41421356237284335
10
-123.20542884340995
20
-55.084497459197777
10
-133.90590466139832
20
-61.252688674172916
42
0.41421356237321644
10
-134.18112272498263
20
-62.277020172017892
10
-128.01293151000033
20
-72.977495990008919
42
0.41421356237309509
0
SPLINE
5
133
100
AcDbEntity
8
0
100
AcDbSpline
70
2
71
3
72
14
73
10
74
0
42
0.000000001
43
0.0000000001
44
0.0000000001
40
0
40
0
40
0
40
0
40
1
40
1
40
2
40
2
40
3
40
3
40
4
40
4
40
4
40
4
10
-23.734405125719388
20
-33.318178503097627
30
0
10
-23.73440512569212
20
-32.710622187671284
30
0
10
-24.226926832703725
20
-32.218100480609301
30
0
10
-25.442039463560327
20
-32.218100480554732
30
0
10
-25.934561170614913
20
-32.710622187572433
30
0
10
-25.934561170669475
20
-33.925734818430328
30
0
10
-25.442039463659157
20
-34.418256525481425
30
0
10
-24.22692683280254
20
-34.418256525535952
30
0
10
-23.734405125746658
20
-33.925734818529165
30
0
10
-23.734405125719388
20
-33.318178503097627
30
0
0
ARC
5
134
100
AcDbEntity
8
0
100
AcDbCircle
10
47.115669497640141
20
33.59718600044399
30
0
40
0.50003546475147131
210
0
220
-0
230
1
100
AcDbArc
50
45.000000000796192
51
90.000000000763691
0
LINE
5
135
100
AcDbEntity
8
0
100
AcDbLine
10
47.115669497633476
20
34.09722146519546
30
0
11
11.113116035265529
21
34.09722146519546
31
0
0
LINE
5
136
100
AcDbEntity
8
0
100
AcDbLine
10
11.113116035265529
20
34.09722146519546
30
0
11
9.1129741762453698
21
34.09722146519546
31
0
0
LINE
5
137
100
AcDbEntity
8
0
100
AcDbLine
10
9.1129741762453698
20
34.09722146519546
30
0
11
-7.8882316254330176
21
34.09722146519546
31
0
0
SPLINE
5
138
100
AcDbEntity
8
0
100
AcDbSpline
70
0
71
3
72
8
73
4
74
0
42
0.000000001
43
0.0000000001
44
0.0000000001
40
4
40
4
40
4
40
4
40
5
40
5
40
5
40
5
10
-7.8882316254330167
20
34.09722146519546
30
0
10
-8.16439358699186
20
34.09722146519546
30
0
10
-8.3882670901890179
20
34.321094968397745
30
0
10
-8.3882670901890179
20
34.597256929954028
30
0
0
LINE
5
139
100
AcDbEntity
8
0
100
AcDbLine
10
-8.3882670901890179
20
34.597256929954028
30
0
11
-8.3882670901890179
21
89.851175785401068
31
0
0
SPLINE
5
140
100
AcDbEntity
8
0
100
AcDbSpline
70
0
71
3
72
8
73
4
74
0
42
0.000000001
43
0.0000000001
44
0.0000000001
40
6
40
6
40
6
40
6
40
7
40
7
40
7
40
7
10
-8.3882670901890179
20
89.851175785401068
30
0
10
-8.3882670901890179
20
90.127337746963789
30
0
10
-8.16439358699186
20
90.351211250154506
30
0
10
-7.8882316254330167
20
90.351211250154506
30
0
0
LINE
5
141
100
AcDbEntity
8
0
100
AcDbLine
10
-7.8882316254330167
20
90.351211250154506
30
0
11
9.1129741762402396
21
90.351211250154506
31
0
0
LINE
5
142
100
AcDbEntity
8
0
100
AcDbLine
10
9.1129741762402396
20
90.351211250154506
30
0
11
11.113116035265529
21
90.351211250154506
31
0
0
LINE
5
143
100
AcDbEntity
8
0
100
AcDbLine
10
11.113116035265529
20
90.351211250154506
30
0
11
29.114392766446919
21
90.351211250154506
31
0
0
SPLINE
5
144
100
AcDbEntity
8
0
100
AcDbSpline
70
0
71
3
72
8
73
4
74
0
42
0.000000001
43
0.0000000001
44
0.0000000001
40
10
40
10
40
10
40
10
40
11
40
11
40
11
40
11
10
29.114392766446919
20
90.351211250154506
30
0
10
29.390554728009626
20
90.351211250154506
30
0
10
29.614428231204215
20
90.575084753356819
30
0
10
29.614428231204215
20
90.851246714911809
30
0
0
LINE
5
145
100
AcDbEntity
8
0
100
AcDbLine
10
29.614428231204215
20
90.851246714911809
30
0
11
29.614428231204215
21
94.601512700574091
31
0
0
SPLINE
5
146
100
AcDbEntity
8
0
100
AcDbSpline
70
0
71
3
72
8
73
4
74
0
42
0.000000001
43
0.0000000001
44
0.0000000001
40
12
40
12
40
12
40
12
40
13
40
13
40
13
40
13
10
29.614428231204215
20
94.601512700574091
30
0
10
29.614428231204215
20
94.877674662134211
30
0
10
29.83830173440138
20
95.101548165335259
30
0
10
30.114463695961497
20
95.101548165335259
30
0
0
LINE
5
147
100
AcDbEntity
8
0
100
AcDbLine
10
30.114463695961497
20
95.101548165335259
30
0
11
48.11574042714674
21
95.101548165335259
31
0
0
SPLINE
5
148
100
AcDbEntity
8
0
100
AcDbSpline
70
0
71
3
72
8
73
4
74
0
42
0.000000001
43
0.0000000001
44
0.0000000001
40
14
40
14
40
14
40
14
40
15
40
15
40
15
40
15
10
48.11574042714674
20
95.101548165335259
30
0
10
48.391902388704324
20
95.101548165335259
30
0
10
48.615775891902757
20
95.325421668525991
30
0
10
48.615775891902757
20
95.601583630084832
30
0
0
LINE
5
149
100
AcDbEntity
8
0
100
AcDbLine
10
48.615775891902757
20
95.601583630084832
30
0
11
48.615775891902757
21
96.851672291974822
31
0
0
SPLINE
5
150
100
AcDbEntity
8
0
100
AcDbSpline
70
0
71
3
72
8
73
4
74
0
42
0.000000001
43
0.0000000001
44
0.0000000001
40
16
40
16
40
16
40
16
40
17
40
17
40
17
40
17
10
48.615775891902757
20
96.851672291974822
30
0
10
48.615775891902757
20
97.127834253534957
30
0
10
48.839649395097346
20
97.351707756725688
30
0
10
49.115811356652337
20
97.351707756725688
30
0
0
LINE
5
151
100
AcDbEntity
8
0
100
AcDbLine
10
49.115811356652337
20
97.351707756725688
30
0
11
66.11701715833459
21
97.351707756725688
31
0
0
SPLINE
5
152
100
AcDbEntity
8
0
100
AcDbSpline
70
0
71
3
72
8
73
4
74
0
42
0.000000001
43
0.0000000001
44
0.0000000001
40
18
40
18
40
18
40
18
40
19
40
19
40
19
40
19
10
66.11701715833459
20
97.351707756725688
30
0
10
66.393179119890874
20
97.351707756725688
30
0
10
66.617052623084149
20
97.127834253534957
30
0
10
66.617052623084149
20
96.851672291974822
30
0
0
LINE
5
153
100
AcDbEntity
8
0
100
AcDbLine
10
66.617052623084149
20
96.851672291974822
30
0
11
66.617052623084149
21
95.601583630084832
31
0
0
SPLINE
5
154
100
AcDbEntity
8
0
100
AcDbSpline
70
0
71
3
72
8
73
4
74
0
42
0.000000001
43
0.0000000001
44
0.0000000001
40
20
40
20
40
20
40
20
40
21
40
21
40
21
40
21
10
66.617052623084149
20
95.601583630084832
30
0
10
66.617052623084149
20
95.325421668525991
30
0
10
66.840926126282596
20
95.101548165335259
30
0
10
67.117088087840159
20
95.101548165335259
30
0
0
LINE
5
155
100
AcDbEntity
8
0
100
AcDbLine
10
67.117088087840159
20
95.101548165335259
30
0
11
85.118364819026695
21
95.101548165335259
31
0
0
SPLINE
5
156
100
AcDbEntity
8
0
100
AcDbSpline
70
0
71
3
72
8
73
4
74
0
42
0.000000001
43
0.0000000001
44
0.0000000001
40
22
40
22
40
22
40
22
40
23
40
23
40
23
40
23
10
85.118364819026695
20
95.101548165335259
30
0
10
85.394526780584258
20
95.101548165335259
30
0
10
85.618400283785277
20
94.877674662134211
30
0
10
85.618400283785277
20
94.601512700574091
30
0
0
LINE
5
157
100
AcDbEntity
8
0
100
AcDbLine
10
85.618400283785277
20
94.601512700574091
30
0
11
85.618400283785277
21
93.101406306312526
31
0
0
SPLINE
5
158
100
AcDbEntity
8
0
100
AcDbSpline
70
0
71
3
72
8
73
4
74
0
42
0.000000001
43
0.0000000001
44
0.0000000001
40
24
40
24
40
24
40
24
40
25
40
25
40
25
40
25
10
85.618400283785277
20
93.101406306312526
30
0
10
85.618400283785277
20
92.825244344749805
30
0
10
85.842273786977316
20
92.601370841555195
30
0
10
86.118435748541273
20
92.601370841555195
30
0
0
LINE
5
159
100
AcDbEntity
8
0
100
AcDbLine
10
86.118435748541273
20
92.601370841555195
30
0
11
104.11971247971883
21
92.601370841555195
31
0
0
SPLINE
5
160
100
AcDbEntity
8
0
100
AcDbSpline
70
0
71
3
72
8
73
4
74
0
42
0.000000001
43
0.0000000001
44
0.0000000001
40
26
40
26
40
26
40
26
40
27
40
27
40
27
40
27
10
104.11971247971883
20
92.601370841555195
30
0
10
104.39587444128412
20
92.601370841555195
30
0
10
104.61974794447869
20
92.377497338358097
30
0
10
104.61974794447869
20
92.101335376797948
30
0
0
LINE
5
161
100
AcDbEntity
8
0
100
AcDbLine
10
104.61974794447869
20
92.101335376797948
30
0
11
104.61974794447869
21
90.866741538392631
31
0
0
LINE
5
162
100
AcDbEntity
8
0
100
AcDbLine
10
104.61974794447869
20
90.866741538392631
30
0
11
104.61905241915511
21
74.605980591629361
31
0
0
LINE
5
163
100
AcDbEntity
8
0
100
AcDbLine
10
104.61905241915511
20
74.605980591629361
30
0
11
104.61925645551173
21
42.313155082063801
31
0
0
ARC
5
164
100
AcDbEntity
8
0
100
AcDbCircle
10
106.41155546163942
20
42.69676413009006
30
0
40
1.8328916032035107
210
0
220
0
230
1
100
AcDbArc
50
192.08084884435763
51
228.53460963221144
0
LINE
5
165
100
AcDbEntity
8
0
100
AcDbLine
10
105.19787417591567
20
41.323276101100404
30
0
11
124.27482341022736
21
30.285898368880314
31
0
0
SPLINE
5
166
100
AcDbEntity
8
0
100
AcDbSpline
70
0
71
3
72
8
73
4
74
0
42
0.000000001
43
0.0000000001
44
0.0000000001
40
32
40
32
40
32
40
32
40
33
40
33
40
33
40
33
10
124.27482341022736
20
30.285898368880314
30
0
10
124.80224086501192
20
29.889518903268137
30
0
10
124.96432863283283
20
29.16912882408074
30
0
10
124.65751489185746
20
28.585047339417649
30
0
0
LINE
5
167
100
AcDbEntity
8
0
100
AcDbLine
10
124.65751489185746
20
28.585047339417649
30
0
11
111.42023026515106
21
5.5451964276819288
31
0
0
SPLINE
5
168
100
AcDbEntity
8
0
100
AcDbSpline
70
0
71
3
72
11
73
7
74
0
42
0.000000001
43
0.0000000001
44
0.0000000001
40
34
40
34
40
34
40
34
40
35
40
35
40
35
40
36
40
36
40
36
40
36
10
111.42023026515106
20
5.5451964276819234
30
0
10
111.41548550947033
20
5.5380448406790785
30
0
10
111.41063544280449
20
5.530963683885652
30
0
10
111.40568165027604
20
5.5239552716020626
30
0
10
111.12767436803757
20
5.1306425437905094
30
0
10
110.58346197337058
20
5.0371690114720877
30
0
10
110.19014924555259
20
5.315176293716962
30
0
0
LINE
5
169
100
AcDbEntity
8
0
100
AcDbLine
10
110.19014924555259
20
5.315176293716962
30
0
11
95.440480039520253
21
13.804700621467674
31
0
0
ARC
5
170
100
AcDbEntity
8
0
100
AcDbCircle
10
94.86554796690308
20
12.1510275105235
30
0
40
1.7507660169147812
210
0
220
-0
230
1
100
AcDbArc
50
70.82898444373815
51
80.306599999257671
0
LINE
5
171
100
AcDbEntity
8
0
100
AcDbLine
10
95.16033465439007
20
13.876797615393812
30
0
11
58.366467454629372
21
19.346175254922922
31
0
0
ARC
5
172
100
AcDbEntity
8
0
100
AcDbCircle
10
-58.430766771757241
20
19.979574610810932
30
0
40
0.63665465224284046
210
-0
220
0
230
-1
100
AcDbArc
50
275.79650429067971
51
310.60067673737814
0
SPLINE
5
173
100
AcDbEntity
8
0
100
AcDbSpline
70
0
71
3
72
8
73
4
74
0
42
0.000000001
43
0.0000000001
44
0.0000000001
40
40
40
40
40
40
40
40
40
41
40
41
40
41
40
41
10
58.016442629299412
20
19.496185894352806
30
0
10
58.016413156935997
20
19.496226284695638
30
0
10
47.465694322963458
20
33.95543828482505
30
0
10
47.469247965594761
20
33.950764468408437
30
0
0
LWPOLYLINE
5
174
100
AcDbEntity
8
0
100
AcDbPolyline
90
8
70
1
43
0.0
10
12.683175838789712
20
37.057165598108412
10
12.683175838789715
20
49.408147971826054
42
-0.41421356237308982
10
13.433175838789712
20
50.158147971826054
10
25.784158212508956
20
50.158147971826054
42
-0.41421356237309509
10
26.534158212508956
20
49.408147971826047
10
26.534158212508956
20
37.057165598108412
42
-0.41421356237308982
10
25.784158212508963
20
36.307165598108412
10
13.433175838789712
20
36.307165598108412
42
-0.4142135623730881
0
LWPOLYLINE
5
175
100
AcDbEntity
8
0
100
AcDbPolyline
90
8
70
1
43
0.0
10
102.53954885529767
20
51.783316429410618
10
102.53954885529767
20
39.432334055696849
42
-0.41421356237309681
10
101.78954885529768
20
38.682334055696849
10
89.438566481577453
20
38.682334055696849
42
-0.41421356237309681
10
88.688566481577453
20
39.432334055696849
10
88.688566481577453
20
51.783316429410618
42
-0.41421356237308465
10
89.438566481577453
20
52.533316429410625
10
101.78954885529765
20
52.533316429410625
42
-0.41421356237308465
0
LWPOLYLINE
5
176
100
AcDbEntity
8
0
100
AcDbPolyline
90
8
70
1
43
0.0
10
102.53954885529767
20
89.786011750805145
10
102.53954885529767
20
77.435029377090089
42
-0.4142135623730881
10
101.78954885529768
20
76.685029377090089
10
89.438566481577453
20
76.685029377090089
42
-0.4142135623730881
10
88.688566481577453
20
77.435029377090089
10
88.688566481577467
20
89.786011750805145
42
-0.41421356237312973
10
89.438566481577453
20
90.536011750805145
10
101.78954885529768
20
90.536011750805145
42
-0.41421356237315055
0
LWPOLYLINE
5
177
100
AcDbEntity
8
0
100
AcDbPolyline
90
8
70
1
43
0.0
10
-104.16594053079871
20
-14.496191154714841
10
-116.51692290451889
20
-14.496191154160364
42
0.41421356237308288
10
-117.26692290455254
20
-15.246191154126691
10
-117.26692290510704
20
-27.597173527848167
42
0.41421356237307771
10
-116.5169229051407
20
-28.34717352788185
10
-104.16594053142049
20
-28.347173528436286
42
0.41421356237310542
10
-103.41594053138684
20
-27.597173528469963
10
-103.41594053083236
20
-15.246191154748514
42
0.41421356237309331
0
LWPOLYLINE
5
178
100
AcDbEntity
8
0
100
AcDbPolyline
90
8
70
1
43
0.0
10
-107.02977450253411
20
-68.708885718449523
10
-95.096400032830871
20
-65.524338755108985
42
0.41421356237300255
10
-94.56513697769644
20
-64.606319383718073
10
-97.749683941034178
20
-52.672944914012312
42
0.41421356237313967
10
-98.667703312425274
20
-52.141681858877732
10
-110.60107778212733
20
-55.326228822217075
42
0.414213562373005
10
-111.13234083726184
20
-56.244248193607902
10
-107.94779387392525
20
-68.17762266331485
42
0.41421356237320944
0
SPLINE
5
179
100
AcDbEntity
8
0
100
AcDbSpline
70
2
71
3
72
14
73
10
74
0
42
0.000000001
43
0.0000000001
44
0.0000000001
40
0
40
0
40
0
40
0
40
1
40
1
40
2
40
2
40
3
40
3
40
4
40
4
40
4
40
4
10
-82.653814789580977
20
38.071047344116963
30
0
10
-82.653814789580977
20
38.67860365954845
30
0
10
-82.16129308254979
20
39.171125366584789
30
0
10
-80.946180451690637
20
39.171125366584789
30
0
10
-80.453658744656892
20
38.67860365954845
30
0
10
-80.453658744656892
20
37.463491028686732
30
0
10
-80.946180451690637
20
36.970969321661961
30
0
10
-82.16129308254979
20
36.970969321661961
30
0
10
-82.653814789580977
20
37.463491028686732
30
0
10
-82.653814789580977
20
38.071047344116963
30
0
0
LWPOLYLINE
5
180
100
AcDbEntity
8
0
100
AcDbPolyline
90
8
70
1
43
0.0
10
51.43587116018422
20
57.28365334459135
10
63.786853533901862
20
57.28365334459135
42
-0.4142135623730881
10
64.536853533901862
20
56.53365334459135
10
64.536853533901862
20
44.1826709708699
42
-0.41421356237309509
10
63.786853533901862
20
43.4326709708699
10
51.43587116018422
20
43.4326709708699
42
-0.4142135623730881
10
50.685871160184213
20
44.1826709708699
10
50.685871160184213
20
56.53365334459135
42
-0.41421356237308121
0
LWPOLYLINE
5
181
100
AcDbEntity
8
0
100
AcDbPolyline
90
8
70
1
43
0.0
10
101.7895488552977
20
57.683681716386424
10
89.438566481577453
20
57.683681716386424
42
-0.41421356237308465
10
88.688566481577453
20
58.433681716386431
10
88.688566481577453
20
70.784664090107881
42
-0.4142135623730881
10
89.438566481577453
20
71.534664090107881
10
101.78954885529768
20
71.534664090107867
42
-0.4142135623730881
10
102.53954885529765
20
70.784664090107881
10
102.53954885529767
20
58.433681716386431
42
-0.41421356237307771
0
LWPOLYLINE
5
182
100
AcDbEntity
8
0
100
AcDbPolyline
90
8
70
1
43
0.0
10
-75.663919041381433
20
-50.74876235074094
10
-88.014901415099075
20
-50.748762350185871
42
0.41421356237310886
10
-88.764901415132755
20
-51.49876235015217
10
-88.764901415687817
20
-63.849744723871126
42
0.41421356237310197
10
-88.014901415721511
20
-64.59974472390482
10
-75.663919042003883
20
-64.599744724459839
42
0.41421356237309509
10
-74.913919041970175
20
-63.849744724493519
10
-74.913919041415156
20
-51.498762350774648
42
0.41421356237309509
0
SPLINE
5
183
100
AcDbEntity
8
0
100
AcDbSpline
70
2
71
3
72
14
73
10
74
0
42
0.000000001
43
0.0000000001
44
0.0000000001
40
0
40
0
40
0
40
0
40
1
40
1
40
2
40
2
40
3
40
3
40
4
40
4
40
4
40
4
10
111.16998211798104
20
-18.246044433690844
30
0
10
111.16998211800804
20
-17.638488118263183
30
0
10
110.67746041099609
20
-17.145966411204434
30
0
10
109.46234778013688
20
-17.145966411149871
30
0
10
108.96982607308391
20
-17.638488118164378
30
0
10
108.96982607303001
20
-18.853600749018412
30
0
10
109.4623477800381
20
-19.346122456072695
30
0
10
110.67746041089723
20
-19.346122456127226
30
0
10
111.16998211795406
20
-18.853600749117241
30
0
10
111.16998211798104
20
-18.246044433690844
30
0
0
SPLINE
5
184
100
AcDbEntity
8
0
100
AcDbSpline
70
2
71
3
72
14
73
10
74
0
42
0.000000001
43
0.0000000001
44
0.0000000001
40
0
40
0
40
0
40
0
40
1
40
1
40
2
40
2
40
3
40
3
40
4
40
4
40
4
40
4
10
9.0070310756533765
20
52.712676745336218
30
0
10
9.0070310756533765
20
53.320233060762583
30
0
10
9.4995527826871182
20
53.812754767802744
30
0
10
10.714665413543734
20
53.812754767802744
30
0
10
11.207187120576179
20
53.320233060762583
30
0
10
11.207187120576179
20
52.105120429904716
30
0
10
10.714665413543734
20
51.612598722876101
30
0
10
9.4995527826871182
20
51.612598722876101
30
0
10
9.0070310756533765
20
52.105120429904716
30
0
10
9.0070310756533765
20
52.712676745336218
30
0
0
SPLINE
5
185
100
AcDbEntity
8
0
100
AcDbSpline
70
2
71
3
72
14
73
10
74
0
42
0.000000001
43
0.0000000001
44
0.0000000001
40
0
40
0
40
0
40
0
40
1
40
1
40
2
40
2
40
3
40
3
40
4
40
4
40
4
40
4
10
-125.90615157622672
20
55.18077630666248
30
0
10
-125.90615157622672
20
55.78833262209271
30
0
10
-125.41362986919552
20
56.280854329125162
30
0
10
-124.19851723833798
20
56.280854329125162
30
0
10
-123.70599553130262
20
55.78833262209271
30
0
10
-123.70599553130262
20
54.57321999123095
30
0
10
-124.19851723833798
20
54.080698284202342
30
0
10
-125.41362986919552
20
54.080698284202342
30
0
10
-125.90615157622672
20
54.57321999123095
30
0
10
-125.90615157622672
20
55.18077630666248
30
0
0
ARC
5
186
100
AcDbEntity
8
0
100
AcDbCircle
10
61.84304354856372
20
-52.433669246282328
30
0
40
0.50003546475469318
210
0
220
0
230
-1
100
AcDbArc
50
45.000000003545168
51
90.000000003255025
0
LINE
5
187
100
AcDbEntity
8
0
100
AcDbLine
10
-61.843043548535313
20
-51.933633781527632
30
0
11
-25.840490086167339
21
-51.933633783144103
31
0
0
LINE
5
188
100
AcDbEntity
8
0
100
AcDbLine
10
-25.840490086167339
20
-51.933633783144103
30
0
11
-23.840348227147192
21
-51.93363378323393
31
0
0
LINE
5
189
100
AcDbEntity
8
0
100
AcDbLine
10
-23.840348227147192
20
-51.93363378323393
30
0
11
-6.8391424254688093
21
-51.933633783996939
31
0
0
SPLINE
5
190
100
AcDbEntity
8
0
100
AcDbSpline
70
0
71
3
72
8
73
4
74
0
42
0.000000001
43
0.0000000001
44
0.0000000001
40
4
40
4
40
4
40
4
40
5
40
5
40
5
40
5
10
-6.8391424254688102
20
-51.933633783996939
30
0
10
-6.5629804639099678
20
-51.933633784009729
30
0
10
-6.3391069607025443
20
-51.709760280817051
30
0
10
-6.3391069606903514
20
-51.433598319260796
30
0
0
LINE
5
191
100
AcDbEntity
8
0
100
AcDbLine
10
-6.3391069606903514
20
-51.433598319260796
30
0
11
-6.3391069582095403
21
3.8203205361862569
31
0
0
SPLINE
5
192
100
AcDbEntity
8
0
100
AcDbSpline
70
0
71
3
72
8
73
4
74
0
42
0.000000001
43
0.0000000001
44
0.0000000001
40
6
40
6
40
6
40
6
40
7
40
7
40
7
40
7
10
-6.3391069582095403
20
3.8203205361862591
30
0
10
-6.3391069581970285
20
4.0964824977489522
30
0
10
-6.5629804613842406
20
4.3203560009493209
30
0
10
-6.8391424229430839
20
4.3203560009621533
30
0
0
LINE
5
193
100
AcDbEntity
8
0
100
AcDbLine
10
-6.8391424229430839
20
4.3203560009621533
30
0
11
-23.840348224616335
21
4.3203560017251323
31
0
0
LINE
5
194
100
AcDbEntity
8
0
100
AcDbLine
10
-23.840348224616335
20
4.3203560017251323
30
0
11
-25.840490083641619
21
4.3203560018149716
31
0
0
LINE
5
195
100
AcDbEntity
8
0
100
AcDbLine
10
-25.840490083641619
20
4.3203560018149716
30
0
11
-43.841766814823032
21
4.3203560026235106
31
0
0
SPLINE
5
196
100
AcDbEntity
8
0
100
AcDbSpline
70
0
71
3
72
8
73
4
74
0
42
0.000000001
43
0.0000000001
44
0.0000000001
40
10
40
10
40
10
40
10
40
11
40
11
40
11
40
11
10
-43.841766814823032
20
4.3203560026235106
30
0
10
-44.117928776386037
20
4.3203560026357035
30
0
10
-44.341802279570366
20
4.5442295058482607
30
0
10
-44.341802279557555
20
4.8203914674032555
30
0
0
LINE
5
197
100
AcDbEntity
8
0
100
AcDbLine
10
-44.341802279557555
20
4.8203914674032555
30
0
11
-44.341802279389427
21
8.5706574530655679
31
0
0
SPLINE
5
198
100
AcDbEntity
8
0
100
AcDbSpline
70
0
71
3
72
8
73
4
74
0
42
0.000000001
43
0.0000000001
44
0.0000000001
40
12
40
12
40
12
40
12
40
13
40
13
40
13
40
13
10
-44.341802279389427
20
8.5706574530655679
30
0
10
-44.341802279377234
20
8.8468194146256955
30
0
10
-44.565675782564107
20
9.0706929178363289
30
0
10
-44.841837744124248
20
9.0706929178485218
30
0
0
LINE
5
199
100
AcDbEntity
8
0
100
AcDbLine
10
-44.841837744124248
20
9.0706929178485218
30
0
11
-62.843114475309832
21
9.0706929186570626
31
0
0
SPLINE
5
200
100
AcDbEntity
8
0
100
AcDbSpline
70
0
71
3
72
8
73
4
74
0
42
0.000000001
43
0.0000000001
44
0.0000000001
40
14
40
14
40
14
40
14
40
15
40
15
40
15
40
15
10
-62.843114475309832
20
9.0706929186570626
30
0
10
-63.119276436867366
20
9.0706929186692538
30
0
10
-63.3431499400562
20
9.2945664218702628
30
0
10
-63.34314994004334
20
9.5707283834291061
30
0
0
LINE
5
201
100
AcDbEntity
8
0
100
AcDbLine
10
-63.34314994004334
20
9.5707283834291061
30
0
11
-63.343149939987541
21
10.820817045319108
31
0
0
SPLINE
5
202
100
AcDbEntity
8
0
100
AcDbSpline
70
0
71
3
72
8
73
4
74
0
42
0.000000001
43
0.0000000001
44
0.0000000001
40
16
40
16
40
16
40
16
40
17
40
17
40
17
40
17
10
-63.343149939987541
20
10.820817045319108
30
0
10
-63.34314993997468
20
11.096979006879234
30
0
10
-63.567023443159989
20
11.320852510080247
30
0
10
-63.843185404714653
20
11.320852510092436
30
0
0
LINE
5
203
100
AcDbEntity
8
0
100
AcDbLine
10
-63.843185404714653
20
11.320852510092436
30
0
11
-80.844391206396864
21
11.320852510855415
31
0
0
SPLINE
5
204
100
AcDbEntity
8
0
100
AcDbSpline
70
0
71
3
72
8
73
4
74
0
42
0.000000001
43
0.0000000001
44
0.0000000001
40
18
40
18
40
18
40
18
40
19
40
19
40
19
40
19
10
-80.844391206396864
20
11.320852510855415
30
0
10
-81.120553167953148
20
11.320852510868251
30
0
10
-81.344426671156413
20
11.096979007687136
30
0
10
-81.344426671168932
20
10.820817046127008
30
0
0
LINE
5
205
100
AcDbEntity
8
0
100
AcDbLine
10
-81.344426671168932
20
10.820817046127008
30
0
11
-81.344426671224767
21
9.5707283842370039
31
0
0
SPLINE
5
206
100
AcDbEntity
8
0
100
AcDbSpline
70
0
71
3
72
8
73
4
74
0
42
0.000000001
43
0.0000000001
44
0.0000000001
40
20
40
20
40
20
40
20
40
21
40
21
40
21
40
21
10
-81.344426671224767
20
9.5707283842370039
30
0
10
-81.344426671237912
20
9.2945664226781606
30
0
10
-81.568300174445682
20
9.070692919497688
30
0
10
-81.844462136002903
20
9.0706929195098791
30
0
0
LINE
5
207
100
AcDbEntity
8
0
100
AcDbLine
10
-81.844462136002903
20
9.0706929195098791
30
0
11
-99.845738867189766
21
9.0706929203184199
31
0
0
SPLINE
5
208
100
AcDbEntity
8
0
100
AcDbSpline
70
0
71
3
72
8
73
4
74
0
42
0.000000001
43
0.0000000001
44
0.0000000001
40
22
40
22
40
22
40
22
40
23
40
23
40
23
40
23
10
-99.845738867189766
20
9.0706929203184199
30
0
10
-100.12190082874766
20
9.070692920330611
30
0
10
-100.34577433195858
20
8.8468194171398711
30
0
10
-100.34577433197079
20
8.5706574555797452
30
0
0
LINE
5
209
100
AcDbEntity
8
0
100
AcDbLine
10
-100.34577433197079
20
8.5706574555797452
30
0
11
-100.34577433203816
21
7.0705510613181559
31
0
0
SPLINE
5
210
100
AcDbEntity
8
0
100
AcDbSpline
70
0
71
3
72
8
73
4
74
0
42
0.000000001
43
0.0000000001
44
0.0000000001
40
24
40
24
40
24
40
24
40
25
40
25
40
25
40
25
10
-100.34577433203816
20
7.0705510613181559
30
0
10
-100.34577433205067
20
6.7943890997554623
30
0
10
-100.56964783525265
20
6.5705155965704964
30
0
10
-100.84580979681662
20
6.5705155965833324
30
0
0
LINE
5
211
100
AcDbEntity
8
0
100
AcDbLine
10
-100.84580979681662
20
6.5705155965833324
30
0
11
-118.84708652799419
21
6.5705155973912284
31
0
0
SPLINE
5
212
100
AcDbEntity
8
0
100
AcDbSpline
70
0
71
3
72
8
73
4
74
0
42
0.000000001
43
0.0000000001
44
0.0000000001
40
26
40
26
40
26
40
26
40
27
40
27
40
27
40
27
10
-118.84708652799419
20
6.5705155973912284
30
0
10
-119.12324848955944
20
6.5705155974040625
30
0
10
-119.34712199276431
20
6.3466420942165307
30
0
10
-119.34712199277649
20
6.070480132656404
30
0
0
LINE
5
213
100
AcDbEntity
8
0
100
AcDbLine
10
-119.34712199277649
20
6.070480132656404
30
0
11
-119.34712199283229
21
4.8358862942511021
31
0
0
LINE
5
214
100
AcDbEntity
8
0
100
AcDbLine
10
-119.34712199283229
20
4.8358862942511021
30
0
11
-119.34642646823835
21
-11.424874652512171
31
0
0
LINE
5
215
100
AcDbEntity
8
0
100
AcDbLine
10
-119.34642646823835
20
-11.424874652512171
30
0
11
-119.34663050604527
21
-43.717700162077747
31
0
0
ARC
5
216
100
AcDbEntity
8
0
100
AcDbCircle
10
121.1389295121529
20
-43.334091113972939
30
0
40
1.8328916032003226
210
0
220
0
230
-1
100
AcDbArc
50
192.08084884689001
51
228.53460963479085
0
LINE
5
217
100
AcDbEntity
8
0
100
AcDbLine
10
-119.9252482264931
20
-44.70757914301484
30
0
11
-139.00219746130054
21
-55.744956874378872
31
0
0
SPLINE
5
218
100
AcDbEntity
8
0
100
AcDbSpline
70
0
71
3
72
8
73
4
74
0
42
0.000000001
43
0.0000000001
44
0.0000000001
40
32
40
32
40
32
40
32
40
33
40
33
40
33
40
33
10
-139.00219746130054
20
-55.744956874378872
30
0
10
-139.52961491610307
20
-56.141336339967332
30
0
10
-139.69170268395607
20
-56.861726419147033
30
0
10
-139.38488894300696
20
-57.44580790382421
30
0
0
LINE
5
219
100
AcDbEntity
8
0
100
AcDbLine
10
-139.38488894300696
20
-57.44580790382421
30
0
11
-126.14760431733502
21
-80.485658816154185
31
0
0
SPLINE
5
220
100
AcDbEntity
8
0
100
AcDbSpline
70
0
71
3
72
11
73
7
74
0
42
0.000000001
43
0.0000000001
44
0.0000000001
40
34
40
34
40
34
40
34
40
35
40
35
40
35
40
36
40
36
40
36
40
36
10
-126.14760431733502
20
-80.485658816154185
30
0
10
-126.14285956165494
20
-80.492810403157023
30
0
10
-126.13800949498909
20
-80.499891559951081
30
0
10
-126.13305570246123
20
-80.506899972234692
30
0
10
-125.85504842023981
20
-80.900212700058418
30
0
10
-125.3108360255776
20
-80.993686232401245
30
0
10
-124.91752329774678
20
-80.715678950174308
30
0
0
LINE
5
221
100
AcDbEntity
8
0
100
AcDbLine
10
-124.91752329774678
20
-80.715678950174308
30
0
11
-110.16785409133328
21
-72.226154623085847
31
0
0
ARC
5
222
100
AcDbEntity
8
0
100
AcDbCircle
10
109.5929220188056
20
-73.879827734002788
30
0
40
1.7507660168596626
210
0
220
0
230
-1
100
AcDbArc
50
70.828984446211592
51
80.306600002027125
0
LINE
5
223
100
AcDbEntity
8
0
100
AcDbLine
10
-109.88770870619989
20
-72.154057629172556
30
0
11
-73.093841506193428
21
-66.684679991295155
31
0
0
ARC
5
224
100
AcDbEntity
8
0
100
AcDbCircle
10
-73.158140823294076
20
-66.051280635404311
30
0
40
0.63665465224291418
210
0
220
0
230
1
100
AcDbArc
50
275.79650428821674
51
310.60067673486645
0
SPLINE
5
225
100
AcDbEntity
8
0
100
AcDbSpline
70
0
71
3
72
8
73
4
74
0
42
0.000000001
43
0.0000000001
44
0.0000000001
40
40
40
40
40
40
40
40
40
41
40
41
40
41
40
41
10
-72.743816680857392
20
-66.534669351880652
30
0
10
-72.74378720849397
20
-66.53462896153782
30
0
10
-62.193068373872002
20
-52.075416961882659
30
0
10
-62.196622016503653
20
-52.08009077829864
30
0
0
LWPOLYLINE
5
226
100
AcDbEntity
8
0
100
AcDbPolyline
90
8
70
1
43
0.0
10
-116.51692290428787
20
-9.3458258671781724
10
-104.16594053056767
20
-9.3458258677326391
42
0.41421356237309331
10
-103.415940530534
20
-8.5958258677663135
10
-103.41594052997955
20
3.7551565059487602
42
0.41421356237309243
10
-104.1659405299459
20
4.5051565059824288
10
-116.51692290366606
20
4.5051565065368955
42
0.41421356237308382
10
-117.26692290369971
20
3.755156506570565
10
-117.2669229042542
20
-8.5958258671444945
42
0.41421356237307599
0
SPLINE
5
227
100
AcDbEntity
8
0
100
AcDbSpline
70
2
71
3
72
14
73
10
74
0
42
0.000000001
43
0.0000000001
44
0.0000000001
40
0
40
0
40
0
40
0
40
1
40
1
40
2
40
2
40
3
40
3
40
4
40
4
40
4
40
4
10
-36.133835929093664
20
30.316537717716304
30
0
10
-36.133835929093664
20
30.924094033147824
30
0
10
-35.64131422206377
20
31.416615740184135
30
0
10
-34.426201591203309
20
31.416615740184135
30
0
10
-33.933679884170843
20
30.924094033147824
30
0
10
-33.933679884170843
20
29.708981402293798
30
0
10
-34.426201591203309
20
29.216459695260038
30
0
10
-35.64131422206377
20
29.216459695260038
30
0
10
-36.133835929093664
20
29.708981402293798
30
0
10
-36.133835929093664
20
30.316537717716304
30
0
0
ARC
5
228
100
AcDbEntity
8
0
100
AcDbCircle
10
-73.070139103317402
20
-56.375335919762222
30
0
40
0.50003546475949134
210
0
220
0
230
-1
100
AcDbArc
50
45.000000003359219
51
90.000000003101974
0
LINE
5
229
100
AcDbEntity
8
0
100
AcDbLine
10
73.070139103344474
20
-55.87530045500273
30
0
11
109.07269256571627
21
-55.875300456619172
31
0
0
LINE
5
230
100
AcDbEntity
8
0
100
AcDbLine
10
109.07269256571627
20
-55.875300456619172
30
0
11
111.07283442473515
21
-55.875300456708999
31
0
0
LINE
5
231
100
AcDbEntity
8
0
100
AcDbLine
10
111.07283442473515
20
-55.875300456708999
30
0
11
128.07404022641094
21
-55.875300457471994
31
0
0
SPLINE
5
232
100
AcDbEntity
8
0
100
AcDbSpline
70
0
71
3
72
8
73
4
74
0
42
0.000000001
43
0.0000000001
44
0.0000000001
40
4
40
4
40
4
40
4
40
5
40
5
40
5
40
5
10
128.07404022641094
20
-55.875300457471994
30
0
10
128.35020218796981
20
-55.875300457484812
30
0
10
128.57407569117723
20
-55.651426954292155
30
0
10
128.5740756911888
20
-55.375264992739744
30
0
0
LINE
5
233
100
AcDbEntity
8
0
100
AcDbLine
10
128.5740756911888
20
-55.375264992739744
30
0
11
128.57407569366958
21
-0.12134613729268828
31
0
0
SPLINE
5
234
100
AcDbEntity
8
0
100
AcDbSpline
70
0
71
3
72
8
73
4
74
0
42
0.000000001
43
0.0000000001
44
0.0000000001
40
6
40
6
40
6
40
6
40
7
40
7
40
7
40
7
10
128.57407569366958
20
-0.12134613729268606
30
0
10
128.57407569368243
20
0.15481582426615903
30
0
10
128.35020219049554
20
0.37868932747422646
30
0
10
128.0740402289367
20
0.37868932748706063
30
0
0
LINE
5
235
100
AcDbEntity
8
0
100
AcDbLine
10
128.0740402289367
20
0.37868932748706063
30
0
11
111.07283442726086
21
0.3786893282500392
31
0
0
LINE
5
236
100
AcDbEntity
8
0
100
AcDbLine
10
111.07283442726086
20
0.3786893282500392
30
0
11
109.07269256824199
21
0.37868932833987623
31
0
0
LINE
5
237
100
AcDbEntity
8
0
100
AcDbLine
10
109.07269256824199
20
0.37868932833987623
30
0
11
91.071415837052882
21
0.37868932914777664
31
0
0
SPLINE
5
238
100
AcDbEntity
8
0
100
AcDbSpline
70
0
71
3
72
8
73
4
74
0
42
0.000000001
43
0.0000000001
44
0.0000000001
40
10
40
10
40
10
40
10
40
11
40
11
40
11
40
11
10
91.071415837052882
20
0.37868932914777664
30
0
10
90.79525387549792
20
0.37868932916061082
30
0
10
90.571380372311012
20
0.60256283236482577
30
0
10
90.57138037232383
20
0.87872479392752112
30
0
0
LINE
5
239
100
AcDbEntity
8
0
100
AcDbLine
10
90.57138037232383
20
0.87872479392752112
30
0
11
90.571380372491973
21
4.6289907795898326
31
0
0
SPLINE
5
240
100
AcDbEntity
8
0
100
AcDbSpline
70
0
71
3
72
8
73
4
74
0
42
0.000000001
43
0.0000000001
44
0.0000000001
40
12
40
12
40
12
40
12
40
13
40
13
40
13
40
13
10
90.571380372491973
20
4.6289907795898326
30
0
10
90.571380372504805
20
4.9051527411461082
30
0
10
90.347506869319204
20
5.1290262443573829
30
0
10
90.071344907757805
20
5.1290262443695758
30
0
0
LINE
5
241
100
AcDbEntity
8
0
100
AcDbLine
10
90.071344907757805
20
5.1290262443695758
30
0
11
72.070068176573841
21
5.1290262451781192
31
0
0
SPLINE
5
242
100
AcDbEntity
8
0
100
AcDbSpline
70
0
71
3
72
8
73
4
74
0
42
0.000000001
43
0.0000000001
44
0.0000000001
40
14
40
14
40
14
40
14
40
15
40
15
40
15
40
15
10
72.070068176573841
20
5.1290262451781192
30
0
10
71.793906215013678
20
5.1290262451903113
30
0
10
71.570032711826798
20
5.3528997483913168
30
0
10
71.570032711839616
20
5.6290617099514453
30
0
0
LINE
5
243
100
AcDbEntity
8
0
100
AcDbLine
10
71.570032711839616
20
5.6290617099514453
30
0
11
71.57003271189609
21
6.8791503718440152
31
0
0
SPLINE
5
244
100
AcDbEntity
8
0
100
AcDbSpline
70
0
71
3
72
8
73
4
74
0
42
0.000000001
43
0.0000000001
44
0.0000000001
40
16
40
16
40
16
40
16
40
17
40
17
40
17
40
17
10
71.57003271189609
20
6.8791503718440152
30
0
10
71.570032711907658
20
7.1553123334002944
30
0
10
71.346159208722042
20
7.3791858366045098
30
0
10
71.069997247163201
20
7.3791858366173413
30
0
0
LINE
5
245
100
AcDbEntity
8
0
100
AcDbLine
10
71.069997247163201
20
7.3791858366173413
30
0
11
54.068791445487378
21
7.379185837380323
31
0
0
SPLINE
5
246
100
AcDbEntity
8
0
100
AcDbSpline
70
0
71
3
72
8
73
4
74
0
42
0.000000001
43
0.0000000001
44
0.0000000001
40
18
40
18
40
18
40
18
40
19
40
19
40
19
40
19
10
54.068791445487378
20
7.379185837380323
30
0
10
53.79262948392725
20
7.3791858373931563
30
0
10
53.568755980719835
20
7.1553123342081904
30
0
10
53.568755980708282
20
6.8791503726519165
30
0
0
LINE
5
247
100
AcDbEntity
8
0
100
AcDbLine
10
53.568755980708282
20
6.8791503726519165
30
0
11
53.568755980651815
21
5.6290617107593457
31
0
0
SPLINE
5
248
100
AcDbEntity
8
0
100
AcDbSpline
70
0
71
3
72
8
73
4
74
0
42
0.000000001
43
0.0000000001
44
0.0000000001
40
20
40
20
40
20
40
20
40
21
40
21
40
21
40
21
10
53.568755980651815
20
5.6290617107593457
30
0
10
53.568755980638954
20
5.3528997491992172
30
0
10
53.344882477435377
20
5.129026246018741
30
0
10
53.068720515876564
20
5.1290262460309339
30
0
0
LINE
5
249
100
AcDbEntity
8
0
100
AcDbLine
10
53.068720515876564
20
5.1290262460309339
30
0
11
35.067443784689381
21
5.1290262468394774
31
0
0
SPLINE
5
250
100
AcDbEntity
8
0
100
AcDbSpline
70
0
71
3
72
8
73
4
74
0
42
0.000000001
43
0.0000000001
44
0.0000000001
40
22
40
22
40
22
40
22
40
23
40
23
40
23
40
23
10
35.067443784689381
20
5.1290262468394774
30
0
10
34.791281823129232
20
5.1290262468516694
30
0
10
34.567408319922123
20
4.9051527436609277
30
0
10
34.56740831990993
20
4.6289907821046512
30
0
0
LINE
5
251
100
AcDbEntity
8
0
100
AcDbLine
10
34.56740831990993
20
4.6289907821046512
30
0
11
34.567408319842571
21
3.1288843878404959
31
0
0
SPLINE
5
252
100
AcDbEntity
8
0
100
AcDbSpline
70
0
71
3
72
8
73
4
74
0
42
0.000000001
43
0.0000000001
44
0.0000000001
40
24
40
24
40
24
40
24
40
25
40
25
40
25
40
25
10
34.567408319842571
20
3.1288843878404959
30
0
10
34.567408319833589
20
2.8527224262765172
30
0
10
34.343534816625194
20
2.6288489230954037
30
0
10
34.067372855066353
20
2.6288489231082379
30
0
0
LINE
5
253
100
AcDbEntity
8
0
100
AcDbLine
10
34.067372855066353
20
2.6288489231082379
30
0
11
16.066096123881103
21
2.6288489239161383
31
0
0
SPLINE
5
254
100
AcDbEntity
8
0
100
AcDbSpline
70
0
71
3
72
8
73
4
74
0
42
0.000000001
43
0.0000000001
44
0.0000000001
40
26
40
26
40
26
40
26
40
27
40
27
40
27
40
27
10
16.066096123881103
20
2.6288489239161383
30
0
10
15.789934162323531
20
2.6288489239283286
30
0
10
15.566060659116108
20
2.4049754207375873
30
0
10
15.566060659103908
20
2.1288134591813068
30
0
0
LINE
5
255
100
AcDbEntity
8
0
100
AcDbLine
10
15.566060659103908
20
2.1288134591813068
30
0
11
15.56606065904842
21
0.8942196207760067
31
0
0
SPLINE
5
256
100
AcDbEntity
8
0
100
AcDbSpline
70
0
71
3
72
8
73
4
74
0
42
0.000000001
43
0.0000000001
44
0.0000000001
40
28
40
28
40
28
40
28
40
29
40
29
40
29
40
29
10
15.56606065904842
20
0.8942196207760067
30
0
10
15.537644044058778
20
0.62609759985517544
30
0
10
15.331821408733926
20
0.41095193994023838
30
0
10
15.065220318830669
20
0.37069301576397207
30
0
0
LINE
5
257
100
AcDbEntity
8
0
100
AcDbLine
10
15.065220318830669
20
0.37069301576397207
30
0
11
-4.6861805389967532
21
0.37069301665080046
31
0
0
SPLINE
5
258
100
AcDbEntity
8
0
100
AcDbSpline
70
0
71
3
72
8
73
4
74
0
42
0.000000001
43
0.0000000001
44
0.0000000001
40
30
40
30
40
30
40
30
40
31
40
31
40
31
40
31
10
-4.6861805389967532
20
0.37069301665080046
30
0
10
-4.9623425005530297
20
0.37069301666299292
30
0
10
-5.186216003760455
20
0.14681951347481625
30
0
10
-5.186216003772647
20
-0.12934244808531004
30
0
0
LINE
5
259
100
AcDbEntity
8
0
100
AcDbLine
10
-5.186216003772647
20
-0.12934244808531004
30
0
11
-5.1862709796845259
21
-59.090123622060496
31
0
0
ARC
5
260
100
AcDbEntity
8
0
100
AcDbCircle
10
-0.2990671526151667
20
-58.829818932252103
30
0
40
4.8941311566873278
210
0
220
0
230
1
100
AcDbArc
50
183.04883551267753
51
211.50657898784667
0
LINE
5
261
100
AcDbEntity
8
0
100
AcDbLine
10
-4.4717062911240024
20
-61.387474577299308
30
0
11
8.7655783345479765
21
-84.427325489633134
31
0
0
SPLINE
5
262
100
AcDbEntity
8
0
100
AcDbSpline
70
0
71
3
72
11
73
7
74
0
42
0.000000001
43
0.0000000001
44
0.0000000001
40
34
40
34
40
34
40
34
40
35
40
35
40
35
40
36
40
36
40
36
40
36
10
8.7655783345479765
20
-84.427325489633134
30
0
10
8.7703230902283877
20
-84.434477076632106
30
0
10
8.7751731568925884
20
-84.441558233428736
30
0
10
8.7801269494181824
20
-84.448566645713612
30
0
10
9.0581342316389968
20
-84.841879373534169
30
0
10
9.6023466263044011
20
-84.935352905879554
30
0
10
9.9956593541297512
20
-84.657345623655814
30
0
0
LINE
5
263
100
AcDbEntity
8
0
100
AcDbLine
10
9.9956593541297512
20
-84.657345623655814
30
0
11
24.745328560545829
21
-76.16782129656093
31
0
0
ARC
5
264
100
AcDbEntity
8
0
100
AcDbCircle
10
-25.320260633013785
20
-77.821494407338193
30
0
40
1.7507660167081358
210
0
220
0
230
-1
100
AcDbArc
50
70.828984446556859
51
80.306600003164348
0
LINE
5
265
100
AcDbEntity
8
0
100
AcDbLine
10
25.025473945679259
20
-76.095724302651476
30
0
11
61.819341145688888
21
-70.626346664770239
31
0
0
ARC
5
266
100
AcDbEntity
8
0
100
AcDbCircle
10
61.755041828589754
20
-69.992947308865809
30
0
40
0.63665465225628126
210
0
220
0
230
1
100
AcDbArc
50
275.79650428795776
51
310.60067673385208
0
SPLINE
5
267
100
AcDbEntity
8
0
100
AcDbSpline
70
0
71
3
72
8
73
4
74
0
42
0.000000001
43
0.0000000001
44
0.0000000001
40
40
40
40
40
40
40
40
40
41
40
41
40
41
40
41
10
62.169365971026586
20
-70.476336025359643
30
0
10
62.169395443390002
20
-70.476295635016797
30
0
10
72.720114278008069
20
-56.017083635361601
30
0
10
72.716560635372929
20
-56.021757451776288
30
0
0
SPLINE
5
268
100
AcDbEntity
8
0
100
AcDbSpline
70
2
71
3
72
14
73
10
74
0
42
0.000000001
43
0.0000000001
44
0.0000000001
40
0
40
0
40
0
40
0
40
1
40
1
40
2
40
2
40
3
40
3
40
4
40
4
40
4
40
4
10
85.037648910958666
20
75.350221091219737
30
0
10
85.037648910958666
20
75.957777406647409
30
0
10
85.530170617992383
20
76.450299113675996
30
0
10
86.745283248855401
20
76.450299113675996
30
0
10
87.237804955881458
20
75.957777406647409
30
0
10
87.237804955881458
20
74.74266477578567
30
0
10
86.745283248855401
20
74.250143068753204
30
0
10
85.530170617992383
20
74.250143068753204
30
0
10
85.037648910958666
20
74.74266477578567
30
0
10
85.037648910958666
20
75.350221091219737
30
0
0
LWPOLYLINE
5
269
100
AcDbEntity
8
0
100
AcDbPolyline
90
8
70
1
43
0.0
10
60.186544990532866
20
22.181110521643038
10
60.186544990532866
20
34.532092895361956
42
-0.4142135623730881
10
60.936544990532866
20
35.282092895361956
10
73.287527364250508
20
35.282092895361949
42
-0.41421356237309681
10
74.037527364250494
20
34.532092895361956
10
74.037527364250494
20
22.181110521643042
42
-0.41421356237309681
10
73.287527364250508
20
21.431110521643046
10
60.936544990532866
20
21.431110521643035
42
-0.41421356237308982
0
SPLINE
5
270
100
AcDbEntity
8
0
100
AcDbSpline
70
2
71
3
72
14
73
10
74
0
42
0.000000001
43
0.0000000001
44
0.0000000001
40
0
40
0
40
0
40
0
40
1
40
1
40
2
40
2
40
3
40
3
40
4
40
4
40
4
40
4
10
98.779346722790265
20
27.848438156390067
30
0
10
98.779346722790265
20
28.455994471821562
30
0
10
99.271868429817602
20
28.948516178854039
30
0
10
100.48698106067805
20
28.948516178854039
30
0
10
100.97950276770536
20
28.455994471821562
30
0
10
100.97950276770536
20
27.240881840967539
30
0
10
100.48698106067805
20
26.748360133931236
30
0
10
99.271868429817602
20
26.748360133931236
30
0
10
98.779346722790265
20
27.240881840967539
30
0
10
98.779346722790265
20
27.848438156390067
30
0
0
SPLINE
5
271
100
AcDbEntity
8
0
100
AcDbSpline
70
2
71
3
72
14
73
10
74
0
42
0.000000001
43
0.0000000001
44
0.0000000001
40
0
40
0
40
0
40
0
40
1
40
1
40
2
40
2
40
3
40
3
40
4
40
4
40
4
40
4
10
-99.765022960008508
20
-10.680634153800916
30
0
10
-99.765022959981565
20
-10.073077838373251
30
0
10
-100.25754466699289
20
-9.5805561313222007
30
0
10
-101.47265729785586
20
-9.5805561312676382
30
0
10
-101.96517900490437
20
-10.07307783827445
30
0
10
-101.96517900495893
20
-11.288190469136175
30
0
10
-101.47265729795438
20
-11.780712176190459
30
0
10
-100.25754466709168
20
-11.780712176245016
30
0
10
-99.765022960036148
20
-11.288190469235012
30
0
10
-99.765022960008508
20
-10.680634153800916
30
0
0
SPLINE
5
272
100
AcDbEntity
8
0
100
AcDbSpline
70
2
71
3
72
14
73
10
74
0
42
0.000000001
43
0.0000000001
44
0.0000000001
40
0
40
0
40
0
40
0
40
1
40
1
40
2
40
2
40
3
40
3
40
4
40
4
40
4
40
4
10
9.0158264846896863
20
71.727822371337595
30
0
10
9.0158264846896863
20
72.335378686765225
30
0
10
9.5083481917182979
20
72.827900393797705
30
0
10
10.723460822580035
20
72.827900393797705
30
0
10
11.215982529613795
20
72.335378686765225
30
0
10
11.215982529613795
20
71.120266055911202
30
0
10
10.723460822580035
20
70.62774434887875
30
0
10
9.5083481917182979
20
70.62774434887875
30
0
10
9.0158264846896863
20
71.120266055911202
30
0
10
9.0158264846896863
20
71.727822371337595
30
0
0
SPLINE
5
273
100
AcDbEntity
8
0
100
AcDbSpline
70
2
71
3
72
14
73
10
74
0
42
0.000000001
43
0.0000000001
44
0.0000000001
40
0
40
0
40
0
40
0
40
1
40
1
40
2
40
2
40
3
40
3
40
4
40
4
40
4
40
4
10
-125.89735616719297
20
74.195921932663808
30
0
10
-125.89735616719297
20
74.803478248091466
30
0
10
-125.40483446015924
20
75.295999955127812
30
0
10
-124.18972182930004
20
75.295999955127812
30
0
10
-123.69720012226918
20
74.803478248091466
30
0
10
-123.69720012226918
20
73.588365617237471
30
0
10
-124.18972182930004
20
73.095843910204991
30
0
10
-125.40483446015924
20
73.095843910204991
30
0
10
-125.89735616719297
20
73.588365617237471
30
0
10
-125.89735616719297
20
74.195921932663808
30
0
0
LWPOLYLINE
5
274
100
AcDbEntity
8
0
100
AcDbPolyline
90
8
70
1
43
0.0
10
-27.410549888705582
20
-29.972341989468401
10
-27.410549888151124
20
-17.62135961574565
42
0.41421356237308637
10
-28.160549888117458
20
-16.871359615711981
10
-40.511532261836678
20
-16.871359615157516
42
0.41421356237309853
10
-41.261532261870357
20
-17.621359615123843
10
-41.261532262424822
20
-29.972341988846605
42
0.41421356237308465
10
-40.511532262458488
20
-30.722341988880288
10
-28.160549888739247
20
-30.722341989434732
42
0.41421356237309853
0
SPLINE
5
275
100
AcDbEntity
8
0
100
AcDbSpline
70
2
71
3
72
14
73
10
74
0
42
0.000000001
43
0.0000000001
44
0.0000000001
40
0
40
0
40
0
40
0
40
1
40
1
40
2
40
2
40
3
40
3
40
4
40
4
40
4
40
4
10
-49.875533740918897
20
77.818320652545992
30
0
10
-49.875533740918897
20
78.425876967977487
30
0
10
-49.383012033887695
20
78.918398675002265
30
0
10
-48.167899403028542
20
78.918398675002265
30
0
10
-47.675377695997341
20
78.425876967977487
30
0
10
-47.675377695997341
20
77.210764337115791
30
0
10
-48.167899403028542
20
76.718242630079445
30
0
10
-49.383012033887695
20
76.718242630079445
30
0
10
-49.875533740918897
20
77.210764337115791
30
0
10
-49.875533740918897
20
77.818320652545992
30
0
0
LWPOLYLINE
5
276
100
AcDbEntity
8
0
100
AcDbPolyline
90
8
70
1
43
0.0
10
-27.410549889558716
20
-48.973689650160566
10
-27.41054988900396
20
-36.622707276442917
42
0.41421356237310542
10
-28.16054988897028
20
-35.87270727640923
10
-40.511532262689521
20
-35.872707275854758
42
0.41421356237308465
10
-41.261532262723193
20
-36.622707275821057
10
-41.261532263277935
20
-48.973689649538713
42
0.4142135623730881
10
-40.511532263311601
20
-49.723689649572407
10
-28.160549889592389
20
-49.723689650126879
42
0.41421356237308121
0
SPLINE
5
277
100
AcDbEntity
8
0
100
AcDbSpline
70
2
71
3
72
14
73
10
74
0
42
0.000000001
43
0.0000000001
44
0.0000000001
40
0
40
0
40
0
40
0
40
1
40
1
40
2
40
2
40
3
40
3
40
4
40
4
40
4
40
4
10
35.148159691869303
20
-14.623645710395499
30
0
10
35.148159691896581
20
-14.016089394963993
30
0
10
34.655637984887228
20
-13.523567687916778
30
0
10
33.440525354028054
20
-13.523567687862212
30
0
10
32.948003646975053
20
-14.016089394865169
30
0
10
32.948003646920831
20
-15.231202025726919
30
0
10
33.440525353929551
20
-15.723723732785038
30
0
10
34.655637984788726
20
-15.723723732839572
30
0
10
35.14815969184238
20
-15.23120202582572
30
0
10
35.148159691869303
20
-14.623645710395499
30
0
0
LWPOLYLINE
5
278
100
AcDbEntity
8
0
100
AcDbPolyline
90
8
70
1
43
0.0
10
-46.411897550047755
20
-44.2233527341347
10
-46.41189754949329
20
-31.872370360420909
42
0.41421356237309853
10
-47.16189754945961
20
-31.122370360387237
10
-59.512879923175966
20
-31.122370359832772
42
0.41421356237309853
10
-60.262879923209638
20
-31.872370359799092
10
-60.26287992376411
20
-44.223352733512868
42
0.41421356237309853
10
-59.51287992379779
20
-44.973352733546541
10
-47.161897550081434
20
-44.973352734101027
42
0.41421356237309509
0
LWPOLYLINE
5
279
100
AcDbEntity
8
0
100
AcDbPolyline
90
8
70
1
43
0.0
10
-65.413245208927094
20
-3.8454889543021231
10
-65.413245208372615
20
8.5054934194116587
42
0.41421356237309331
10
-66.16324520833895
20
9.2554934194453296
10
-78.514227582056549
20
9.2554934199998016
42
0.41421356237309681
10
-79.264227582090214
20
8.5054934200334706
10
-79.264227582644708
20
-3.8454889536803094
42
0.41421356237310542
10
-78.514227582678373
20
-4.5954889537139731
10
-66.16324520896076
20
-4.5954889542684452
42
0.41421356237309853
0
LWPOLYLINE
5
280
100
AcDbEntity
8
0
100
AcDbPolyline
90
8
70
1
43
0.0
10
-66.163245210045204
20
-28.747201901937636
10
-78.514227583762874
20
-28.747201901383164
42
0.41421356237309165
10
-79.264227583796554
20
-29.497201901349506
10
-79.264227584350976
20
-41.84818427507097
42
0.41421356237309853
10
-78.514227584384656
20
-42.598184275104643
10
-66.163245210667029
20
-42.598184275659136
42
0.41421356237309165
10
-65.413245210633349
20
-41.848184275692795
10
-65.413245210078884
20
-29.497201901971309
42
0.41421356237308121
0
LWPOLYLINE
5
281
100
AcDbEntity
8
0
100
AcDbPolyline
90
8
70
1
43
0.0
10
-85.164592869140208
20
6.8803249627135576
10
-97.515575242859128
20
6.880324963268027
42
0.41421356237308637
10
-98.26557524289278
20
6.130324963301728
10
-98.265575243447813
20
-6.2206574104133283
42
0.41421356237310719
10
-97.515575243481464
20
-6.970657410447032
10
-85.164592869762558
20
-6.9706574110015218
42
0.41421356237308465
10
-84.414592869728892
20
-6.2206574110352175
10
-84.414592869173845
20
6.1303249626798539
42
0.41421356237311668
0
ARC
5
282
100
AcDbEntity
8
0
100
AcDbCircle
10
-87.797513154240633
20
36.06663044488571
30
0
40
0.50003546475548444
210
0
220
-0
230
1
100
AcDbArc
50
45.000000000570516
51
90.000000000719723
0
LINE
5
283
100
AcDbEntity
8
0
100
AcDbLine
10
-87.797513154246914
20
36.566665909641195
30
0
11
-123.80006661661744
21
36.566665909641195
31
0
0
LINE
5
284
100
AcDbEntity
8
0
100
AcDbLine
10
-123.80006661661744
20
36.566665909641195
30
0
11
-125.80020847563731
21
36.566665909641195
31
0
0
LINE
5
285
100
AcDbEntity
8
0
100
AcDbLine
10
-125.80020847563731
20
36.566665909641195
30
0
11
-142.80141427731311
21
36.566665909641195
31
0
0
SPLINE
5
286
100
AcDbEntity
8
0
100
AcDbSpline
70
0
71
3
72
8
73
4
74
0
42
0.000000001
43
0.0000000001
44
0.0000000001
40
4
40
4
40
4
40
4
40
5
40
5
40
5
40
5
10
-142.80141427731311
20
36.566665909641195
30
0
10
-143.07757623887193
20
36.566665909641195
30
0
10
-143.30144974206814
20
36.790539412843486
30
0
10
-143.30144974206814
20
37.066701374395905
30
0
0
LINE
5
287
100
AcDbEntity
8
0
100
AcDbLine
10
-143.30144974206814
20
37.066701374395905
30
0
11
-143.30144974206814
21
92.320620229842959
31
0
0
SPLINE
5
288
100
AcDbEntity
8
0
100
AcDbSpline
70
0
71
3
72
8
73
4
74
0
42
0.000000001
43
0.0000000001
44
0.0000000001
40
6
40
6
40
6
40
6
40
7
40
7
40
7
40
7
10
-143.30144974206814
20
92.320620229842959
30
0
10
-143.30144974206814
20
92.596782191401815
30
0
10
-143.07757623887193
20
92.820655694600234
30
0
10
-142.80141427731311
20
92.820655694600234
30
0
0
LINE
5
289
100
AcDbEntity
8
0
100
AcDbLine
10
-142.80141427731311
20
92.820655694600234
30
0
11
-125.80020847563731
21
92.820655694600234
31
0
0
LINE
5
290
100
AcDbEntity
8
0
100
AcDbLine
10
-125.80020847563731
20
92.820655694600234
30
0
11
-123.80006661661744
21
92.820655694600234
31
0
0
LINE
5
291
100
AcDbEntity
8
0
100
AcDbLine
10
-123.80006661661744
20
92.820655694600234
30
0
11
-105.79878988542961
21
92.820655694600234
31
0
0
SPLINE
5
292
100
AcDbEntity
8
0
100
AcDbSpline
70
0
71
3
72
8
73
4
74
0
42
0.000000001
43
0.0000000001
44
0.0000000001
40
10
40
10
40
10
40
10
40
11
40
11
40
11
40
11
10
-105.79878988542961
20
92.820655694600234
30
0
10
-105.52262792387337
20
92.820655694600234
30
0
10
-105.2987544206772
20
93.044529197794816
30
0
10
-105.2987544206772
20
93.320691159357523
30
0
0
LINE
5
293
100
AcDbEntity
8
0
100
AcDbLine
10
-105.2987544206772
20
93.320691159357523
30
0
11
-105.2987544206772
21
97.070957145019833
31
0
0
SPLINE
5
294
100
AcDbEntity
8
0
100
AcDbSpline
70
0
71
3
72
8
73
4
74
0
42
0.000000001
43
0.0000000001
44
0.0000000001
40
12
40
12
40
12
40
12
40
13
40
13
40
13
40
13
10
-105.2987544206772
20
97.070957145019833
30
0
10
-105.2987544206772
20
97.347119106576116
30
0
10
-105.07488091748129
20
97.570992609777107
30
0
10
-104.79871895591987
20
97.570992609777107
30
0
0
LINE
5
295
100
AcDbEntity
8
0
100
AcDbLine
10
-104.79871895591987
20
97.570992609777107
30
0
11
-86.797442224735903
21
97.570992609777107
31
0
0
SPLINE
5
296
100
AcDbEntity
8
0
100
AcDbSpline
70
0
71
3
72
8
73
4
74
0
42
0.000000001
43
0.0000000001
44
0.0000000001
40
14
40
14
40
14
40
14
40
15
40
15
40
15
40
15
10
-86.797442224735903
20
97.570992609777107
30
0
10
-86.521280263175782
20
97.570992609777107
30
0
10
-86.297406759979879
20
97.794866112967838
30
0
10
-86.297406759979879
20
98.071028074528002
30
0
0
LINE
5
297
100
AcDbEntity
8
0
100
AcDbLine
10
-86.297406759979879
20
98.071028074528002
30
0
11
-86.297406759979879
21
99.321116736420549
31
0
0
SPLINE
5
298
100
AcDbEntity
8
0
100
AcDbSpline
70
0
71
3
72
8
73
4
74
0
42
0.000000001
43
0.0000000001
44
0.0000000001
40
16
40
16
40
16
40
16
40
17
40
17
40
17
40
17
10
-86.297406759979879
20
99.321116736420549
30
0
10
-86.297406759979879
20
99.597278697976833
30
0
10
-86.073533256784046
20
99.821152201171429
30
0
10
-85.79737129522519
20
99.821152201171429
30
0
0
LINE
5
299
100
AcDbEntity
8
0
100
AcDbLine
10
-85.79737129522519
20
99.821152201171429
30
0
11
-68.796165493549353
21
99.821152201171429
31
0
0
SPLINE
5
300
100
AcDbEntity
8
0
100
AcDbSpline
70
0
71
3
72
8
73
4
74
0
42
0.000000001
43
0.0000000001
44
0.0000000001
40
18
40
18
40
18
40
18
40
19
40
19
40
19
40
19
10
-68.796165493549353
20
99.821152201171429
30
0
10
-68.520003531989545
20
99.821152201171429
30
0
10
-68.296130028792078
20
99.597278697976833
30
0
10
-68.296130028792078
20
99.321116736420549
30
0
0
LINE
5
301
100
AcDbEntity
8
0
100
AcDbLine
10
-68.296130028792078
20
99.321116736420549
30
0
11
-68.296130028792078
21
98.071028074528002
31
0
0
SPLINE
5
302
100
AcDbEntity
8
0
100
AcDbSpline
70
0
71
3
72
8
73
4
74
0
42
0.000000001
43
0.0000000001
44
0.0000000001
40
20
40
20
40
20
40
20
40
21
40
21
40
21
40
21
10
-68.296130028792078
20
98.071028074528002
30
0
10
-68.296130028792078
20
97.794866112967838
30
0
10
-68.072256525597794
20
97.570992609777107
30
0
10
-67.79609456403864
20
97.570992609777107
30
0
0
LINE
5
303
100
AcDbEntity
8
0
100
AcDbLine
10
-67.79609456403864
20
97.570992609777107
30
0
11
-49.794817832852097
21
97.570992609777107
31
0
0
SPLINE
5
304
100
AcDbEntity
8
0
100
AcDbSpline
70
0
71
3
72
8
73
4
74
0
42
0.000000001
43
0.0000000001
44
0.0000000001
40
22
40
22
40
22
40
22
40
23
40
23
40
23
40
23
10
-49.794817832852097
20
97.570992609777107
30
0
10
-49.518655871291983
20
97.570992609777107
30
0
10
-49.294782368095127
20
97.347119106576116
30
0
10
-49.294782368095127
20
97.070957145019833
30
0
0
LINE
5
305
100
AcDbEntity
8
0
100
AcDbLine
10
-49.294782368095127
20
97.070957145019833
30
0
11
-49.294782368095127
21
95.570850750755696
31
0
0
SPLINE
5
306
100
AcDbEntity
8
0
100
AcDbSpline
70
0
71
3
72
8
73
4
74
0
42
0.000000001
43
0.0000000001
44
0.0000000001
40
24
40
24
40
24
40
24
40
25
40
25
40
25
40
25
10
-49.294782368095127
20
95.570850750755696
30
0
10
-49.294782368098666
20
95.294688789191682
30
0
10
-49.07090886490024
20
95.070815286000951
30
0
10
-48.794746903341391
20
95.070815286000951
30
0
0
LINE
5
307
100
AcDbEntity
8
0
100
AcDbLine
10
-48.794746903341391
20
95.070815286000951
30
0
11
-30.793470172156123
21
95.070815286000951
31
0
0
SPLINE
5
308
100
AcDbEntity
8
0
100
AcDbSpline
70
0
71
3
72
8
73
4
74
0
42
0.000000001
43
0.0000000001
44
0.0000000001
40
26
40
26
40
26
40
26
40
27
40
27
40
27
40
27
10
-30.793470172156123
20
95.070815286000951
30
0
10
-30.517308210598571
20
95.070815286000951
30
0
10
-30.293434707401406
20
94.846941782799959
30
0
10
-30.293434707401406
20
94.570779821243676
30
0
0
LINE
5
309
100
AcDbEntity
8
0
100
AcDbLine
10
-30.293434707401406
20
94.570779821243676
30
0
11
-30.293434707401406
21
93.336185982838373
31
0
0
SPLINE
5
310
100
AcDbEntity
8
0
100
AcDbSpline
70
0
71
3
72
8
73
4
74
0
42
0.000000001
43
0.0000000001
44
0.0000000001
40
28
40
28
40
28
40
28
40
29
40
29
40
29
40
29
10
-30.293434707401406
20
93.336185982838373
30
0
10
-30.265018092423958
20
93.068063961916252
30
0
10
-30.059195457108761
20
92.852918301991707
30
0
10
-29.79259436720708
20
92.812659377803868
30
0
0
LINE
5
311
100
AcDbEntity
8
0
100
AcDbLine
10
-29.79259436720708
20
92.812659377803868
30
0
11
-10.041193509379667
21
92.812659377803868
31
0
0
SPLINE
5
312
100
AcDbEntity
8
0
100
AcDbSpline
70
0
71
3
72
8
73
4
74
0
42
0.000000001
43
0.0000000001
44
0.0000000001
40
30
40
30
40
30
40
30
40
31
40
31
40
31
40
31
10
-10.041193509379667
20
92.812659377803868
30
0
10
-9.7650315478233889
20
92.812659377803868
30
0
10
-9.5411580446262345
20
92.588785874605435
30
0
10
-9.5411580446262345
20
92.312623913045314
30
0
0
LINE
5
313
100
AcDbEntity
8
0
100
AcDbLine
10
-9.5411580446262345
20
92.312623913045314
30
0
11
-9.5411030713616825
21
33.351842739070122
31
0
0
ARC
5
314
100
AcDbEntity
8
0
100
AcDbCircle
10
14.428306898416349
20
33.612147429096744
30
0
40
4.8941311566842636
210
0
220
0
230
-1
100
AcDbArc
50
183.04883551523776
51
211.50657899042474
0
LINE
5
315
100
AcDbEntity
8
0
100
AcDbLine
10
-10.255667760025204
20
31.054491783863384
30
0
11
-23.492952386731602
21
8.0146408721237972
31
0
0
SPLINE
5
316
100
AcDbEntity
8
0
100
AcDbSpline
70
0
71
3
72
11
73
7
74
0
42
0.000000001
43
0.0000000001
44
0.0000000001
40
34
40
34
40
34
40
34
40
35
40
35
40
35
40
36
40
36
40
36
40
36
10
-23.492952386731595
20
8.0146408721237989
30
0
10
-23.497697142412331
20
8.007489285124807
30
0
10
-23.502547209076852
20
8.0004081283288144
30
0
10
-23.507501001602769
20
7.9933997160439398
30
0
10
-23.785508283841232
20
7.6000869882362352
30
0
10
-24.329720678510803
20
7.5066134559152475
30
0
10
-24.723033406323644
20
7.7846207381562715
30
0
0
LINE
5
317
100
AcDbEntity
8
0
100
AcDbLine
10
-24.723033406323644
20
7.7846207381562715
30
0
11
-39.47270261235856
21
16.274145065913398
31
0
0
ARC
5
318
100
AcDbEntity
8
0
100
AcDbCircle
10
-40.047634684917178
20
14.620471955104415
30
0
40
1.7507660167678649
210
0
220
-0
230
1
100
AcDbArc
50
70.828984444095298
51
80.306600000380925
0
LINE
5
319
100
AcDbEntity
8
0
100
AcDbLine
10
-39.752847997488757
20
16.346242059835689
30
0
11
-76.546715197252965
21
21.815619699368654
31
0
0
ARC
5
320
100
AcDbEntity
8
0
100
AcDbCircle
10
76.482415880123881
20
22.449019055272757
30
0
40
0.63665465225897833
210
-0
220
0
230
-1
100
AcDbArc
50
275.79650429064219
51
310.60067673631465
0
SPLINE
5
321
100
AcDbEntity
8
0
100
AcDbSpline
70
0
71
3
72
8
73
4
74
0
42
0.000000001
43
0.0000000001
44
0.0000000001
40
40
40
40
40
40
40
40
40
41
40
41
40
41
40
41
10
-76.896740022583245
20
21.965630338794682
30
0
10
-76.896769494946668
20
21.965670729137518
30
0
10
-87.447488328916663
20
36.424882729266919
30
0
10
-87.443934686281779
20
36.420208912851606
30
0
0
LWPOLYLINE
5
322
100
AcDbEntity
8
0
100
AcDbPolyline
90
8
70
1
43
0.0
10
-66.163245209192411
20
-9.7458542412442206
10
-78.514227582910024
20
-9.7458542406897486
42
0.41421356237309165
10
-79.264227582943704
20
-10.49585424065608
10
-79.264227583498169
20
-22.846836614373728
42
0.41421356237309165
10
-78.514227583531834
20
-23.59683661440739
10
-66.163245209814207
20
-23.59683661496188
42
0.4142135623730881
10
-65.413245209780541
20
-22.846836614995532
10
-65.413245209226076
20
-10.495854241277893
42
0.4142135623731002
0
SPLINE
5
323
100
AcDbEntity
8
0
100
AcDbSpline
70
2
71
3
72
14
73
10
74
0
42
0.000000001
43
0.0000000001
44
0.0000000001
40
0
40
0
40
0
40
0
40
1
40
1
40
2
40
2
40
3
40
3
40
4
40
4
40
4
40
4
10
-113.50672077397317
20
-58.182417088013281
30
0
10
-113.5067207739456
20
-57.574860772581779
30
0
10
-113.9992424809511
20
-57.08233906552752
30
0
10
-115.21435511181156
20
-57.082339065472958
30
0
10
-115.70687681886068
20
-57.574860772482978
30
0
10
-115.70687681891492
20
-58.78997340333698
30
0
10
-115.21435511191036
20
-59.282495110395772
30
0
10
-113.99924248104989
20
-59.282495110450299
30
0
10
-113.50672077400012
20
-58.789973403435816
30
0
10
-113.50672077397317
20
-58.182417088013281
30
0
0
ENDSEC
0
SECTION
2
OBJECTS
0
DICTIONARY
5
C
100
AcDbDictionary
3
ACAD_GROUP
350
D
3
ACAD_MLINESTYLE
350
17
0
DICTIONARY
5
D
100
AcDbDictionary
0
DICTIONARY
5
1A
330
C
100
AcDbDictionary
0
DICTIONARY
5
17
100
AcDbDictionary
0
ENDSEC
0
EOF
