0
SECTION
2
HEADER
9
$INSUNITS
70
4
9
$ACADVER
1
AC1014
9
$HANDSEED
5
FFFF
0
ENDSEC
0
SECTION
2
TABLES
0
TABLE
2
VPORT
5
8
100
AcDbSymbolTable
0
ENDTAB
0
TABLE
2
LTYPE
5
5
100
AcDbSymbolTable
0
LTYPE
5
14
100
AcDbSymbolTableRecord
100
AcDbLinetypeTableRecord
2
BYBLOCK
70
0
0
LTYPE
5
15
100
AcDbSymbolTableRecord
100
AcDbLinetypeTableRecord
2
BYLAYER
70
0
0
ENDTAB
0
TABLE
2
LAYER
5
2
100
AcDbSymbolTable
70
2
0
LAYER
5
50
100
AcDbSymbolTableRecord
100
AcDbLayerTableRecord
2
0
70
0
6
CONTINUOUS
0
ENDTAB
0
TABLE
2
STYLE
5
3
100
AcDbSymbolTable
70
1
0
STYLE
5
11
100
AcDbSymbolTableRecord
100
AcDbTextStyleTableRecord
2
STANDARD
70
0
0
ENDTAB
0
TABLE
2
VIEW
5
6
100
AcDbSymbolTable
70
0
0
ENDTAB
0
TABLE
2
UCS
5
7
100
AcDbSymbolTable
70
0
0
ENDTAB
0
TABLE
2
APPID
5
9
100
AcDbSymbolTable
70
2
0
APPID
5
12
100
AcDbSymbolTableRecord
100
AcDbRegAppTableRecord
2
ACAD
70
0
0
ENDTAB
0
TABLE
2
DIMSTYLE
5
A
100
AcDbSymbolTable
70
1
0
ENDTAB
0
TABLE
2
BLOCK_RECORD
5
1
100
AcDbSymbolTable
70
1
0
BLOCK_RECORD
5
1F
100
AcDbSymbolTableRecord
100
AcDbBlockTableRecord
2
*MODEL_SPACE
0
BLOCK_RECORD
5
1B
100
AcDbSymbolTableRecord
100
AcDbBlockTableRecord
2
*PAPER_SPACE
0
ENDTAB
0
ENDSEC
0
SECTION
2
BLOCKS
0
BLOCK
5
20
100
AcDbEntity
100
AcDbBlockBegin
2
*MODEL_SPACE
0
ENDBLK
5
21
100
AcDbEntity
100
AcDbBlockEnd
0
BLOCK
5
1C
100
AcDbEntity
100
AcDbBlockBegin
2
*PAPER_SPACE
0
ENDBLK
5
1D
100
AcDbEntity
100
AcDbBlockEnd
0
ENDSEC
0
SECTION
2
ENTITIES
0
LINE
5
100
100
AcDbEntity
8
0
100
AcDbLine
10
-139.79869896895008
20
47.968635844323302
30
0
11
-139.80768375703158
21
47.968635844323302
31
0
0
SPLINE
5
101
100
AcDbEntity
8
0
100
AcDbSpline
70
2
71
3
72
14
73
10
74
0
42
0.000000001
43
0.0000000001
44
0.0000000001
40
0
40
0
40
0
40
0
40
1
40
1
40
2
40
2
40
3
40
3
40
4
40
4
40
4
40
4
10
-82.653814789580977
20
38.071047344116963
30
0
10
-82.653814789580977
20
38.67860365954845
30
0
10
-82.16129308254979
20
39.171125366584789
30
0
10
-80.946180451690637
20
39.171125366584789
30
0
10
-80.453658744656892
20
38.67860365954845
30
0
10
-80.453658744656892
20
37.463491028686732
30
0
10
-80.946180451690637
20
36.970969321661961
30
0
10
-82.16129308254979
20
36.970969321661961
30
0
10
-82.653814789580977
20
37.463491028686732
30
0
10
-82.653814789580977
20
38.071047344116963
30
0
0
SPLINE
5
102
100
AcDbEntity
8
0
100
AcDbSpline
70
2
71
3
72
14
73
10
74
0
42
0.000000001
43
0.0000000001
44
0.0000000001
40
0
40
0
40
0
40
0
40
1
40
1
40
2
40
2
40
3
40
3
40
4
40
4
40
4
40
4
10
-125.90615157622672
20
55.18077630666248
30
0
10
-125.90615157622672
20
55.78833262209271
30
0
10
-125.41362986919552
20
56.280854329125162
30
0
10
-124.19851723833798
20
56.280854329125162
30
0
10
-123.70599553130262
20
55.78833262209271
30
0
10
-123.70599553130262
20
54.57321999123095
30
0
10
-124.19851723833798
20
54.080698284202342
30
0
10
-125.41362986919552
20
54.080698284202342
30
0
10
-125.90615157622672
20
54.57321999123095
30
0
10
-125.90615157622672
20
55.18077630666248
30
0
0
SPLINE
5
103
100
AcDbEntity
8
0
100
AcDbSpline
70
2
71
3
72
14
73
10
74
0
42
0.000000001
43
0.0000000001
44
0.0000000001
40
0
40
0
40
0
40
0
40
1
40
1
40
2
40
2
40
3
40
3
40
4
40
4
40
4
40
4
10
-36.133835929093664
20
30.316537717716304
30
0
10
-36.133835929093664
20
30.924094033147824
30
0
10
-35.64131422206377
20
31.416615740184135
30
0
10
-34.426201591203309
20
31.416615740184135
30
0
10
-33.933679884170843
20
30.924094033147824
30
0
10
-33.933679884170843
20
29.708981402293798
30
0
10
-34.426201591203309
20
29.216459695260038
30
0
10
-35.64131422206377
20
29.216459695260038
30
0
10
-36.133835929093664
20
29.708981402293798
30
0
10
-36.133835929093664
20
30.316537717716304
30
0
0
SPLINE
5
104
100
AcDbEntity
8
0
100
AcDbSpline
70
2
71
3
72
14
73
10
74
0
42
0.000000001
43
0.0000000001
44
0.0000000001
40
0
40
0
40
0
40
0
40
1
40
1
40
2
40
2
40
3
40
3
40
4
40
4
40
4
40
4
10
-125.89735616719297
20
74.195921932663808
30
0
10
-125.89735616719297
20
74.803478248091466
30
0
10
-125.40483446015924
20
75.295999955127812
30
0
10
-124.18972182930004
20
75.295999955127812
30
0
10
-123.69720012226918
20
74.803478248091466
30
0
10
-123.69720012226918
20
73.588365617237471
30
0
10
-124.18972182930004
20
73.095843910204991
30
0
10
-125.40483446015924
20
73.095843910204991
30
0
10
-125.89735616719297
20
73.588365617237471
30
0
10
-125.89735616719297
20
74.195921932663808
30
0
0
SPLINE
5
105
100
AcDbEntity
8
0
100
AcDbSpline
70
2
71
3
72
14
73
10
74
0
42
0.000000001
43
0.0000000001
44
0.0000000001
40
0
40
0
40
0
40
0
40
1
40
1
40
2
40
2
40
3
40
3
40
4
40
4
40
4
40
4
10
-49.875533740918897
20
77.818320652545992
30
0
10
-49.875533740918897
20
78.425876967977487
30
0
10
-49.383012033887695
20
78.918398675002265
30
0
10
-48.167899403028542
20
78.918398675002265
30
0
10
-47.675377695997341
20
78.425876967977487
30
0
10
-47.675377695997341
20
77.210764337115791
30
0
10
-48.167899403028542
20
76.718242630079445
30
0
10
-49.383012033887695
20
76.718242630079445
30
0
10
-49.875533740918897
20
77.210764337115791
30
0
10
-49.875533740918897
20
77.818320652545992
30
0
0
ARC
5
106
100
AcDbEntity
8
0
100
AcDbCircle
10
-87.797513154240633
20
36.06663044488571
30
0
40
0.50003546475548444
210
0
220
-0
230
1
100
AcDbArc
50
45.000000000570516
51
90.000000000719723
0
LINE
5
107
100
AcDbEntity
8
0
100
AcDbLine
10
-87.797513154246914
20
36.566665909641195
30
0
11
-123.80006661661744
21
36.566665909641195
31
0
0
LINE
5
108
100
AcDbEntity
8
0
100
AcDbLine
10
-123.80006661661744
20
36.566665909641195
30
0
11
-125.80020847563731
21
36.566665909641195
31
0
0
LINE
5
109
100
AcDbEntity
8
0
100
AcDbLine
10
-125.80020847563731
20
36.566665909641195
30
0
11
-142.80141427731311
21
36.566665909641195
31
0
0
SPLINE
5
110
100
AcDbEntity
8
0
100
AcDbSpline
70
0
71
3
72
8
73
4
74
0
42
0.000000001
43
0.0000000001
44
0.0000000001
40
4
40
4
40
4
40
4
40
5
40
5
40
5
40
5
10
-142.80141427731311
20
36.566665909641195
30
0
10
-143.07757623887193
20
36.566665909641195
30
0
10
-143.30144974206814
20
36.790539412843486
30
0
10
-143.30144974206814
20
37.066701374395905
30
0
0
LINE
5
111
100
AcDbEntity
8
0
100
AcDbLine
10
-143.30144974206814
20
37.066701374395905
30
0
11
-143.30144974206814
21
92.320620229842959
31
0
0
SPLINE
5
112
100
AcDbEntity
8
0
100
AcDbSpline
70
0
71
3
72
8
73
4
74
0
42
0.000000001
43
0.0000000001
44
0.0000000001
40
6
40
6
40
6
40
6
40
7
40
7
40
7
40
7
10
-143.30144974206814
20
92.320620229842959
30
0
10
-143.30144974206814
20
92.596782191401815
30
0
10
-143.07757623887193
20
92.820655694600234
30
0
10
-142.80141427731311
20
92.820655694600234
30
0
0
LINE
5
113
100
AcDbEntity
8
0
100
AcDbLine
10
-142.80141427731311
20
92.820655694600234
30
0
11
-125.80020847563731
21
92.820655694600234
31
0
0
LINE
5
114
100
AcDbEntity
8
0
100
AcDbLine
10
-125.80020847563731
20
92.820655694600234
30
0
11
-123.80006661661744
21
92.820655694600234
31
0
0
LINE
5
115
100
AcDbEntity
8
0
100
AcDbLine
10
-123.80006661661744
20
92.820655694600234
30
0
11
-105.79878988542961
21
92.820655694600234
31
0
0
SPLINE
5
116
100
AcDbEntity
8
0
100
AcDbSpline
70
0
71
3
72
8
73
4
74
0
42
0.000000001
43
0.0000000001
44
0.0000000001
40
10
40
10
40
10
40
10
40
11
40
11
40
11
40
11
10
-105.79878988542961
20
92.820655694600234
30
0
10
-105.52262792387337
20
92.820655694600234
30
0
10
-105.2987544206772
20
93.044529197794816
30
0
10
-105.2987544206772
20
93.320691159357523
30
0
0
LINE
5
117
100
AcDbEntity
8
0
100
AcDbLine
10
-105.2987544206772
20
93.320691159357523
30
0
11
-105.2987544206772
21
97.070957145019833
31
0
0
SPLINE
5
118
100
AcDbEntity
8
0
100
AcDbSpline
70
0
71
3
72
8
73
4
74
0
42
0.000000001
43
0.0000000001
44
0.0000000001
40
12
40
12
40
12
40
12
40
13
40
13
40
13
40
13
10
-105.2987544206772
20
97.070957145019833
30
0
10
-105.2987544206772
20
97.347119106576116
30
0
10
-105.07488091748129
20
97.570992609777107
30
0
10
-104.79871895591987
20
97.570992609777107
30
0
0
LINE
5
119
100
AcDbEntity
8
0
100
AcDbLine
10
-104.79871895591987
20
97.570992609777107
30
0
11
-86.797442224735903
21
97.570992609777107
31
0
0
SPLINE
5
120
100
AcDbEntity
8
0
100
AcDbSpline
70
0
71
3
72
8
73
4
74
0
42
0.000000001
43
0.0000000001
44
0.0000000001
40
14
40
14
40
14
40
14
40
15
40
15
40
15
40
15
10
-86.797442224735903
20
97.570992609777107
30
0
10
-86.521280263175782
20
97.570992609777107
30
0
10
-86.297406759979879
20
97.794866112967838
30
0
10
-86.297406759979879
20
98.071028074528002
30
0
0
LINE
5
121
100
AcDbEntity
8
0
100
AcDbLine
10
-86.297406759979879
20
98.071028074528002
30
0
11
-86.297406759979879
21
99.321116736420549
31
0
0
SPLINE
5
122
100
AcDbEntity
8
0
100
AcDbSpline
70
0
71
3
72
8
73
4
74
0
42
0.000000001
43
0.0000000001
44
0.0000000001
40
16
40
16
40
16
40
16
40
17
40
17
40
17
40
17
10
-86.297406759979879
20
99.321116736420549
30
0
10
-86.297406759979879
20
99.597278697976833
30
0
10
-86.073533256784046
20
99.821152201171429
30
0
10
-85.79737129522519
20
99.821152201171429
30
0
0
LINE
5
123
100
AcDbEntity
8
0
100
AcDbLine
10
-85.79737129522519
20
99.821152201171429
30
0
11
-68.796165493549353
21
99.821152201171429
31
0
0
SPLINE
5
124
100
AcDbEntity
8
0
100
AcDbSpline
70
0
71
3
72
8
73
4
74
0
42
0.000000001
43
0.0000000001
44
0.0000000001
40
18
40
18
40
18
40
18
40
19
40
19
40
19
40
19
10
-68.796165493549353
20
99.821152201171429
30
0
10
-68.520003531989545
20
99.821152201171429
30
0
10
-68.296130028792078
20
99.597278697976833
30
0
10
-68.296130028792078
20
99.321116736420549
30
0
0
LINE
5
125
100
AcDbEntity
8
0
100
AcDbLine
10
-68.296130028792078
20
99.321116736420549
30
0
11
-68.296130028792078
21
98.071028074528002
31
0
0
SPLINE
5
126
100
AcDbEntity
8
0
100
AcDbSpline
70
0
71
3
72
8
73
4
74
0
42
0.000000001
43
0.0000000001
44
0.0000000001
40
20
40
20
40
20
40
20
40
21
40
21
40
21
40
21
10
-68.296130028792078
20
98.071028074528002
30
0
10
-68.296130028792078
20
97.794866112967838
30
0
10
-68.072256525597794
20
97.570992609777107
30
0
10
-67.79609456403864
20
97.570992609777107
30
0
0
LINE
5
127
100
AcDbEntity
8
0
100
AcDbLine
10
-67.79609456403864
20
97.570992609777107
30
0
11
-49.794817832852097
21
97.570992609777107
31
0
0
SPLINE
5
128
100
AcDbEntity
8
0
100
AcDbSpline
70
0
71
3
72
8
73
4
74
0
42
0.000000001
43
0.0000000001
44
0.0000000001
40
22
40
22
40
22
40
22
40
23
40
23
40
23
40
23
10
-49.794817832852097
20
97.570992609777107
30
0
10
-49.518655871291983
20
97.570992609777107
30
0
10
-49.294782368095127
20
97.347119106576116
30
0
10
-49.294782368095127
20
97.070957145019833
30
0
0
LINE
5
129
100
AcDbEntity
8
0
100
AcDbLine
10
-49.294782368095127
20
97.070957145019833
30
0
11
-49.294782368095127
21
95.570850750755696
31
0
0
SPLINE
5
130
100
AcDbEntity
8
0
100
AcDbSpline
70
0
71
3
72
8
73
4
74
0
42
0.000000001
43
0.0000000001
44
0.0000000001
40
24
40
24
40
24
40
24
40
25
40
25
40
25
40
25
10
-49.294782368095127
20
95.570850750755696
30
0
10
-49.294782368098666
20
95.294688789191682
30
0
10
-49.07090886490024
20
95.070815286000951
30
0
10
-48.794746903341391
20
95.070815286000951
30
0
0
LINE
5
131
100
AcDbEntity
8
0
100
AcDbLine
10
-48.794746903341391
20
95.070815286000951
30
0
11
-30.793470172156123
21
95.070815286000951
31
0
0
SPLINE
5
132
100
AcDbEntity
8
0
100
AcDbSpline
70
0
71
3
72
8
73
4
74
0
42
0.000000001
43
0.0000000001
44
0.0000000001
40
26
40
26
40
26
40
26
40
27
40
27
40
27
40
27
10
-30.793470172156123
20
95.070815286000951
30
0
10
-30.517308210598571
20
95.070815286000951
30
0
10
-30.293434707401406
20
94.846941782799959
30
0
10
-30.293434707401406
20
94.570779821243676
30
0
0
LINE
5
133
100
AcDbEntity
8
0
100
AcDbLine
10
-30.293434707401406
20
94.570779821243676
30
0
11
-30.293434707401406
21
93.336185982838373
31
0
0
SPLINE
5
134
100
AcDbEntity
8
0
100
AcDbSpline
70
0
71
3
72
8
73
4
74
0
42
0.000000001
43
0.0000000001
44
0.0000000001
40
28
40
28
40
28
40
28
40
29
40
29
40
29
40
29
10
-30.293434707401406
20
93.336185982838373
30
0
10
-30.265018092423958
20
93.068063961916252
30
0
10
-30.059195457108761
20
92.852918301991707
30
0
10
-29.79259436720708
20
92.812659377803868
30
0
0
LINE
5
135
100
AcDbEntity
8
0
100
AcDbLine
10
-29.79259436720708
20
92.812659377803868
30
0
11
-10.041193509379667
21
92.812659377803868
31
0
0
SPLINE
5
136
100
AcDbEntity
8
0
100
AcDbSpline
70
0
71
3
72
8
73
4
74
0
42
0.000000001
43
0.0000000001
44
0.0000000001
40
30
40
30
40
30
40
30
40
31
40
31
40
31
40
31
10
-10.041193509379667
20
92.812659377803868
30
0
10
-9.7650315478233889
20
92.812659377803868
30
0
10
-9.5411580446262345
20
92.588785874605435
30
0
10
-9.5411580446262345
20
92.312623913045314
30
0
0
LINE
5
137
100
AcDbEntity
8
0
100
AcDbLine
10
-9.5411580446262345
20
92.312623913045314
30
0
11
-9.5411030713616825
21
33.351842739070122
31
0
0
ARC
5
138
100
AcDbEntity
8
0
100
AcDbCircle
10
14.428306898416349
20
33.612147429096744
30
0
40
4.8941311566842636
210
0
220
0
230
-1
100
AcDbArc
50
183.04883551523776
51
211.50657899042474
0
LINE
5
139
100
AcDbEntity
8
0
100
AcDbLine
10
-10.255667760025204
20
31.054491783863384
30
0
11
-23.492952386731602
21
8.0146408721237972
31
0
0
SPLINE
5
140
100
AcDbEntity
8
0
100
AcDbSpline
70
0
71
3
72
11
73
7
74
0
42
0.000000001
43
0.0000000001
44
0.0000000001
40
34
40
34
40
34
40
34
40
35
40
35
40
35
40
36
40
36
40
36
40
36
10
-23.492952386731595
20
8.0146408721237989
30
0
10
-23.497697142412331
20
8.007489285124807
30
0
10
-23.502547209076852
20
8.0004081283288144
30
0
10
-23.507501001602769
20
7.9933997160439398
30
0
10
-23.785508283841232
20
7.6000869882362352
30
0
10
-24.329720678510803
20
7.5066134559152475
30
0
10
-24.723033406323644
20
7.7846207381562715
30
0
0
LINE
5
141
100
AcDbEntity
8
0
100
AcDbLine
10
-24.723033406323644
20
7.7846207381562715
30
0
11
-39.47270261235856
21
16.274145065913398
31
0
0
ARC
5
142
100
AcDbEntity
8
0
100
AcDbCircle
10
-40.047634684917178
20
14.620471955104415
30
0
40
1.7507660167678649
210
0
220
-0
230
1
100
AcDbArc
50
70.828984444095298
51
80.306600000380925
0
LINE
5
143
100
AcDbEntity
8
0
100
AcDbLine
10
-39.752847997488757
20
16.346242059835689
30
0
11
-76.546715197252965
21
21.815619699368654
31
0
0
ARC
5
144
100
AcDbEntity
8
0
100
AcDbCircle
10
76.482415880123881
20
22.449019055272757
30
0
40
0.63665465225897833
210
-0
220
0
230
-1
100
AcDbArc
50
275.79650429064219
51
310.60067673631465
0
SPLINE
5
145
100
AcDbEntity
8
0
100
AcDbSpline
70
0
71
3
72
8
73
4
74
0
42
0.000000001
43
0.0000000001
44
0.0000000001
40
40
40
40
40
40
40
40
40
41
40
41
40
41
40
41
10
-76.896740022583245
20
21.965630338794682
30
0
10
-76.896769494946668
20
21.965670729137518
30
0
10
-87.447488328916663
20
36.424882729266919
30
0
10
-87.443934686281779
20
36.420208912851606
30
0
0
ENDSEC
0
SECTION
2
OBJECTS
0
DICTIONARY
5
C
100
AcDbDictionary
3
ACAD_GROUP
350
D
3
ACAD_MLINESTYLE
350
17
0
DICTIONARY
5
D
100
AcDbDictionary
0
DICTIONARY
5
1A
330
C
100
AcDbDictionary
0
DICTIONARY
5
17
100
AcDbDictionary
0
ENDSEC
0
EOF
