0
SECTION
2
HEADER
9
$INSUNITS
70
4
9
$ACADVER
1
AC1014
9
$HANDSEED
5
FFFF
0
ENDSEC
0
SECTION
2
TABLES
0
TABLE
2
VPORT
5
8
100
AcDbSymbolTable
0
ENDTAB
0
TABLE
2
LTYPE
5
5
100
AcDbSymbolTable
0
LTYPE
5
14
100
AcDbSymbolTableRecord
100
AcDbLinetypeTableRecord
2
BYBLOCK
70
0
0
LTYPE
5
15
100
AcDbSymbolTableRecord
100
AcDbLinetypeTableRecord
2
BYLAYER
70
0
0
ENDTAB
0
TABLE
2
LAYER
5
2
100
AcDbSymbolTable
70
2
0
LAYER
5
50
100
AcDbSymbolTableRecord
100
AcDbLayerTableRecord
2
0
70
0
6
CONTINUOUS
0
ENDTAB
0
TABLE
2
STYLE
5
3
100
AcDbSymbolTable
70
1
0
STYLE
5
11
100
AcDbSymbolTableRecord
100
AcDbTextStyleTableRecord
2
STANDARD
70
0
0
ENDTAB
0
TABLE
2
VIEW
5
6
100
AcDbSymbolTable
70
0
0
ENDTAB
0
TABLE
2
UCS
5
7
100
AcDbSymbolTable
70
0
0
ENDTAB
0
TABLE
2
APPID
5
9
100
AcDbSymbolTable
70
2
0
APPID
5
12
100
AcDbSymbolTableRecord
100
AcDbRegAppTableRecord
2
ACAD
70
0
0
ENDTAB
0
TABLE
2
DIMSTYLE
5
A
100
AcDbSymbolTable
70
1
0
ENDTAB
0
TABLE
2
BLOCK_RECORD
5
1
100
AcDbSymbolTable
70
1
0
BLOCK_RECORD
5
1F
100
AcDbSymbolTableRecord
100
AcDbBlockTableRecord
2
*MODEL_SPACE
0
BLOCK_RECORD
5
1B
100
AcDbSymbolTableRecord
100
AcDbBlockTableRecord
2
*PAPER_SPACE
0
ENDTAB
0
ENDSEC
0
SECTION
2
BLOCKS
0
BLOCK
5
20
100
AcDbEntity
100
AcDbBlockBegin
2
*MODEL_SPACE
0
ENDBLK
5
21
100
AcDbEntity
100
AcDbBlockEnd
0
BLOCK
5
1C
100
AcDbEntity
100
AcDbBlockBegin
2
*PAPER_SPACE
0
ENDBLK
5
1D
100
AcDbEntity
100
AcDbBlockEnd
0
ENDSEC
0
SECTION
2
ENTITIES
0
LWPOLYLINE
5
100
100
AcDbEntity
8
0
100
AcDbPolyline
90
8
70
1
43
0.0
10
-116.01290613058094
20
-86.06019134076584
10
-122.18109734556552
20
-75.359715522781684
42
0.41421356237284335
10
-123.20542884340995
20
-75.084497459197777
10
-133.90590466139832
20
-81.252688674172916
42
0.41421356237321644
10
-134.18112272498263
20
-82.277020172017899
10
-128.01293151000033
20
-92.977495990008919
42
0.41421356237309509
10
-126.98860001215552
20
-93.252714053592996
10
-116.28812419416484
20
-87.08452283861098
42
0.41421356237320694
0
LWPOLYLINE
5
101
100
AcDbEntity
8
0
100
AcDbPolyline
90
8
70
1
43
0.0
10
-97.515575244334642
20
-45.972005071140465
42
-0.41421356237308121
10
-98.26557524430099
20
-45.222005071106757
10
-98.265575243746213
20
-32.871022697391687
42
-0.41421356237308982
10
-97.515575243712561
20
-32.121022697425374
10
-85.164592869993641
20
-32.121022697979839
42
-0.4142135623730881
10
-84.414592870027292
20
-32.871022698013533
10
-84.414592870582055
20
-45.222005071728603
42
-0.41421356237308465
10
-85.164592870615706
20
-45.972005071694902
0
LWPOLYLINE
5
102
100
AcDbEntity
8
0
100
AcDbPolyline
90
8
70
1
43
0.0
10
-41.261532261017194
20
-18.620011954430446
42
-0.41421356237309587
10
-40.511532260983515
20
-17.870011954464101
10
-28.160549887264324
20
-17.870011955018565
42
-0.4142135623730942
10
-27.410549887297986
20
-18.620011955052234
10
-27.41054988785244
20
-30.970994328771148
42
-0.41421356237309853
10
-28.160549887886106
20
-31.720994328737476
10
-40.511532261605048
20
-31.720994328183025
42
-0.41421356237308982
10
-41.261532261571389
20
-30.970994328149374
0
LWPOLYLINE
5
103
100
AcDbEntity
8
0
100
AcDbPolyline
90
8
70
1
43
0.0
10
-60.262879922356817
20
-32.871022699098006
42
-0.41421356237309331
10
-59.512879922323137
20
-32.121022699131672
10
-47.161897548606468
20
-32.121022699686122
42
-0.41421356237310364
10
-46.411897548640155
20
-32.871022699719788
10
-46.411897549194627
20
-45.222005073434879
42
-0.41421356237309509
10
-47.1618975492283
20
-45.972005073401206
10
-59.512879922944947
20
-45.97200507284672
42
-0.41421356237309509
10
-60.262879922911274
20
-45.222005072813047
0
LWPOLYLINE
5
104
100
AcDbEntity
8
0
100
AcDbPolyline
90
8
70
1
43
0.0
10
-65.413245209780541
20
-42.846836614995532
42
-0.4142135623730881
10
-66.163245209814207
20
-43.59683661496188
10
-78.514227583531834
20
-43.596836614407394
42
-0.41421356237309165
10
-79.264227583498169
20
-42.846836614373728
10
-79.264227582943704
20
-30.49585424065608
42
-0.41421356237309165
10
-78.514227582910024
20
-29.745854240689749
10
-66.163245209192411
20
-29.745854241244224
42
-0.4142135623731002
10
-65.413245209226076
20
-30.495854241277893
0
LWPOLYLINE
5
105
100
AcDbEntity
8
0
100
AcDbPolyline
90
8
70
1
43
0.0
10
-97.515575245187151
20
-64.973352731840265
10
-85.16459287146823
20
-64.97335273239473
42
0.41421356237309509
10
-84.414592871434579
20
-64.223352732428395
10
-84.414592870880085
20
-51.872370358714647
42
0.41421356237308121
10
-85.164592870846434
20
-51.122370358680975
10
-97.515575244565326
20
-51.122370358126489
42
0.41421356237310542
10
-98.265575244599006
20
-51.872370358092823
10
-98.265575245153499
20
-64.2233527318066
42
0.41421356237308121
0
LWPOLYLINE
5
106
100
AcDbEntity
8
0
100
AcDbPolyline
90
8
70
1
43
0.0
10
-107.02977450253411
20
-88.708885718449523
10
-95.096400032830871
20
-85.524338755108985
42
0.41421356237300255
10
-94.56513697769644
20
-84.606319383718073
10
-97.749683941034178
20
-72.672944914012319
42
0.41421356237313967
10
-98.667703312425274
20
-72.141681858877732
10
-110.60107778212733
20
-75.326228822217075
42
0.414213562373005
10
-111.13234083726184
20
-76.244248193607902
10
-107.94779387392525
20
-88.17762266331485
42
0.41421356237320944
0
LWPOLYLINE
5
107
100
AcDbEntity
8
0
100
AcDbPolyline
90
8
70
1
43
0.0
10
-117.26692290540601
20
-54.247538814823955
10
-117.26692290596047
20
-66.598521188537731
42
0.41421356237308121
10
-116.51692290599412
20
-67.348521188571397
10
-104.16594053227396
20
-67.348521189125861
42
0.41421356237309509
10
-103.4159405322403
20
-66.598521189159527
10
-103.41594053168581
20
-54.247538815445765
42
0.41421356237308465
10
-104.16594053165215
20
-53.497538815412099
10
-116.51692290537235
20
-53.49753881485762
42
0.41421356237309509
0
LWPOLYLINE
5
108
100
AcDbEntity
8
0
100
AcDbPolyline
90
8
70
1
43
0.0
10
-9.1586941913938915
20
-36.8713596165654
42
-0.41421356237307944
10
-8.4086941914275926
20
-37.621359616599072
10
-8.4086941919820646
20
-49.972341990321844
42
-0.41421356237310625
10
-9.1586941920157656
20
-50.722341990288172
10
-21.509676565733397
20
-50.722341989733124
42
-0.41421356237309509
10
-22.259676565699689
20
-49.972341989699459
10
-22.259676565145227
20
-37.621359615976708
42
-0.41421356237309853
10
-21.509676565111523
20
-36.871359616010373
0
SPLINE
5
109
100
AcDbEntity
8
0
100
AcDbSpline
70
2
71
3
72
14
73
10
74
0
42
0.000000001
43
0.0000000001
44
0.0000000001
40
0
40
0
40
0
40
0
40
1
40
1
40
2
40
2
40
3
40
3
40
4
40
4
40
4
40
4
10
-99.765022960008508
20
-30.680634153800916
30
0
10
-99.765022959981565
20
-30.073077838373251
30
0
10
-100.25754466699289
20
-29.580556131322201
30
0
10
-101.47265729785586
20
-29.580556131267638
30
0
10
-101.96517900490437
20
-30.07307783827445
30
0
10
-101.96517900495893
20
-31.288190469136175
30
0
10
-101.47265729795438
20
-31.780712176190459
30
0
10
-100.25754466709168
20
-31.780712176245018
30
0
10
-99.765022960036148
20
-31.288190469235012
30
0
10
-99.765022960008508
20
-30.680634153800916
30
0
0
LWPOLYLINE
5
110
100
AcDbEntity
8
0
100
AcDbPolyline
90
8
70
1
43
0.0
10
-98.26557524289278
20
-13.869675036698272
10
-98.265575243447813
20
-26.220657410413327
42
0.41421356237310719
10
-97.515575243481464
20
-26.970657410447032
10
-85.164592869762558
20
-26.970657411001522
42
0.41421356237308465
10
-84.414592869728892
20
-26.220657411035219
10
-84.414592869173845
20
-13.869675037320146
42
0.41421356237311668
10
-85.164592869140208
20
-13.119675037286441
10
-97.515575242859128
20
-13.119675036731973
42
0.41421356237308637
0
LWPOLYLINE
5
111
100
AcDbEntity
8
0
100
AcDbPolyline
90
8
70
1
43
0.0
10
-59.512879922092097
20
-26.970657412153308
10
-47.161897548375137
20
-26.970657412707773
42
0.41421356237309853
10
-46.411897548341457
20
-26.220657412741453
10
-46.411897547787014
20
-13.869675039026388
42
0.41421356237309331
10
-47.161897547753348
20
-13.119675038992719
10
-59.512879921469725
20
-13.119675038438253
42
0.41421356237307505
10
-60.262879921503398
20
-13.86967503840455
10
-60.262879922058417
20
-26.220657412119603
42
0.41421356237311757
0
SPLINE
5
112
100
AcDbEntity
8
0
100
AcDbSpline
70
0
71
3
72
8
73
4
74
0
42
0.000000001
43
0.0000000001
44
0.0000000001
40
20
40
20
40
20
40
20
40
21
40
21
40
21
40
21
10
-81.344426671224767
20
-10.429271615762996
30
0
10
-81.344426671237912
20
-10.705433577321839
30
0
10
-81.568300174445682
20
-10.929307080502312
30
0
10
-81.844462136002903
20
-10.929307080490121
30
0
0
LINE
5
113
100
AcDbEntity
8
0
100
AcDbLine
10
-139.38488894300696
20
-77.445807903824203
30
0
11
-126.14760431733502
21
-100.48565881615419
31
0
0
LWPOLYLINE
5
114
100
AcDbEntity
8
0
100
AcDbPolyline
90
8
70
1
43
0.0
10
-116.5169229051407
20
-48.34717352788185
10
-104.16594053142049
20
-48.347173528436286
42
0.41421356237310542
10
-103.41594053138684
20
-47.597173528469966
10
-103.41594053083236
20
-35.246191154748516
42
0.41421356237309331
10
-104.16594053079871
20
-34.496191154714843
10
-116.51692290451889
20
-34.496191154160364
42
0.41421356237308288
10
-117.26692290455254
20
-35.246191154126691
10
-117.26692290510704
20
-47.59717352784817
42
0.41421356237307771
0
LWPOLYLINE
5
115
100
AcDbEntity
8
0
100
AcDbPolyline
90
8
70
1
43
0.0
10
-79.264227582090214
20
-11.494506579966529
42
-0.41421356237309681
10
-78.514227582056549
20
-10.744506580000198
10
-66.163245208338935
20
-10.744506580554674
42
-0.41421356237309331
10
-65.413245208372615
20
-11.494506580588341
10
-65.413245208927094
20
-23.845488954302123
42
-0.41421356237309853
10
-66.16324520896076
20
-24.595488954268447
10
-78.514227582678373
20
-24.595488953713975
42
-0.41421356237310542
10
-79.264227582644708
20
-23.845488953680309
0
LWPOLYLINE
5
116
100
AcDbEntity
8
0
100
AcDbPolyline
90
8
70
1
43
0.0
10
-88.014901415721511
20
-84.59974472390482
42
-0.41421356237310197
10
-88.764901415687817
20
-83.849744723871126
10
-88.764901415132755
20
-71.498762350152163
42
-0.41421356237310886
10
-88.014901415099075
20
-70.748762350185871
10
-75.663919041381433
20
-70.748762350740947
42
-0.41421356237309509
10
-74.913919041415156
20
-71.498762350774655
10
-74.913919041970175
20
-83.849744724493519
42
-0.41421356237309509
10
-75.663919042003883
20
-84.599744724459839
0
SPLINE
5
117
100
AcDbEntity
8
0
100
AcDbSpline
70
2
71
3
72
14
73
10
74
0
42
0.000000001
43
0.0000000001
44
0.0000000001
40
0
40
0
40
0
40
0
40
1
40
1
40
2
40
2
40
3
40
3
40
4
40
4
40
4
40
4
10
-66.986741913137436
20
-70.427907463701388
30
0
10
-66.986741913110464
20
-69.820351148269864
30
0
10
-67.479263620114068
20
-69.327829441215584
30
0
10
-68.694376250978365
20
-69.327829441161043
30
0
10
-69.18689795802689
20
-69.820351148171056
30
0
10
-69.186897958081403
20
-71.035463779032781
30
0
10
-68.694376251077188
20
-71.527985486080013
30
0
10
-67.479263620212876
20
-71.527985486134554
30
0
10
-66.986741913165019
20
-71.035463779131618
30
0
10
-66.986741913137436
20
-70.427907463701388
30
0
0
LINE
5
118
100
AcDbEntity
8
0
100
AcDbLine
10
-119.34642646823835
20
-31.424874652512173
30
0
11
-119.34663050604527
21
-63.717700162077747
31
0
0
LWPOLYLINE
5
119
100
AcDbEntity
8
0
100
AcDbPolyline
90
8
70
1
43
0.0
10
-59.51287992379779
20
-64.973352733546534
42
-0.41421356237309853
10
-60.26287992376411
20
-64.223352733512868
10
-60.262879923209638
20
-51.872370359799092
42
-0.41421356237309853
10
-59.512879923175966
20
-51.122370359832772
10
-47.16189754945961
20
-51.122370360387237
42
-0.41421356237309853
10
-46.41189754949329
20
-51.872370360420909
10
-46.411897550047755
20
-64.223352734134693
42
-0.41421356237309509
10
-47.161897550081434
20
-64.973352734101027
0
LWPOLYLINE
5
120
100
AcDbEntity
8
0
100
AcDbPolyline
90
8
70
1
43
0.0
10
-79.264227583796554
20
-49.497201901349506
10
-79.264227584350976
20
-61.84818427507097
42
0.41421356237309853
10
-78.514227584384656
20
-62.598184275104643
10
-66.163245210667029
20
-62.598184275659136
42
0.41421356237309165
10
-65.413245210633349
20
-61.848184275692795
10
-65.413245210078884
20
-49.497201901971309
42
0.41421356237308121
10
-66.163245210045204
20
-48.747201901937636
10
-78.514227583762874
20
-48.747201901383164
42
0.41421356237309165
0
LWPOLYLINE
5
121
100
AcDbEntity
8
0
100
AcDbPolyline
90
8
70
1
43
0.0
10
-103.415940530534
20
-28.595825867766315
42
-0.41421356237309331
10
-104.16594053056767
20
-29.345825867732639
10
-116.51692290428787
20
-29.345825867178171
42
-0.41421356237307599
10
-117.2669229042542
20
-28.595825867144494
10
-117.26692290369971
20
-16.244843493429435
42
-0.41421356237308382
10
-116.51692290366606
20
-15.494843493463105
10
-104.1659405299459
20
-15.494843494017573
42
-0.41421356237309243
10
-103.41594052997955
20
-16.244843494051239
0
LWPOLYLINE
5
122
100
AcDbEntity
8
0
100
AcDbPolyline
90
8
70
1
43
0.0
10
-40.511532262458488
20
-50.722341988880288
42
-0.41421356237308465
10
-41.261532262424822
20
-49.972341988846608
10
-41.261532261870357
20
-37.621359615123843
42
-0.41421356237309853
10
-40.511532261836678
20
-36.871359615157516
10
-28.160549888117458
20
-36.871359615711981
42
-0.41421356237308637
10
-27.410549888151124
20
-37.621359615745654
10
-27.410549888705585
20
-49.972341989468404
42
-0.41421356237309853
10
-28.160549888739247
20
-50.722341989434732
0
SPLINE
5
123
100
AcDbEntity
8
0
100
AcDbSpline
70
2
71
3
72
14
73
10
74
0
42
0.000000001
43
0.0000000001
44
0.0000000001
40
0
40
0
40
0
40
0
40
1
40
1
40
2
40
2
40
3
40
3
40
4
40
4
40
4
40
4
10
-113.50672077397317
20
-78.182417088013281
30
0
10
-113.5067207739456
20
-77.574860772581772
30
0
10
-113.9992424809511
20
-77.08233906552752
30
0
10
-115.21435511181156
20
-77.082339065472951
30
0
10
-115.70687681886068
20
-77.574860772482978
30
0
10
-115.70687681891492
20
-78.789973403336987
30
0
10
-115.21435511191036
20
-79.282495110395772
30
0
10
-113.99924248104989
20
-79.282495110450299
30
0
10
-113.50672077400012
20
-78.789973403435823
30
0
10
-113.50672077397317
20
-78.182417088013281
30
0
0
SPLINE
5
124
100
AcDbEntity
8
0
100
AcDbSpline
70
2
71
3
72
14
73
10
74
0
42
0.000000001
43
0.0000000001
44
0.0000000001
40
0
40
0
40
0
40
0
40
1
40
1
40
2
40
2
40
3
40
3
40
4
40
4
40
4
40
4
10
-23.743200533901927
20
-34.303032877096264
30
0
10
-23.743200533874649
20
-33.695476561668634
30
0
10
-24.235722240881124
20
-33.202954854613679
30
0
10
-25.450834871742856
20
-33.202954854559152
30
0
10
-25.943356578798742
20
-33.695476561569805
30
0
10
-25.943356578853304
20
-34.910589192423835
30
0
10
-25.450834871841682
20
-35.403110899478115
30
0
10
-24.23572224097995
20
-35.403110899532678
30
0
10
-23.743200533929194
20
-34.910589192522664
30
0
10
-23.743200533901927
20
-34.303032877096264
30
0
0
LWPOLYLINE
5
125
100
AcDbEntity
8
0
100
AcDbPolyline
90
8
70
1
43
0.0
10
-28.16054988897028
20
-55.87270727640923
10
-40.511532262689521
20
-55.872707275854758
42
0.41421356237308465
10
-41.261532262723193
20
-56.622707275821057
10
-41.261532263277935
20
-68.973689649538713
42
0.4142135623730881
10
-40.511532263311601
20
-69.723689649572407
10
-28.160549889592389
20
-69.723689650126886
42
0.41421356237308121
10
-27.410549889558716
20
-68.973689650160566
10
-27.41054988900396
20
-56.622707276442917
42
0.41421356237310542
0
LWPOLYLINE
5
126
100
AcDbEntity
8
0
100
AcDbPolyline
90
8
70
1
43
0.0
10
-22.259676565998056
20
-56.622707276673943
42
-0.4142135623731002
10
-21.509676565964352
20
-55.872707276707629
10
-9.158694192246724
20
-55.87270727726267
42
-0.41421356237308637
10
-8.4086941922804321
20
-56.622707277296357
10
-8.4086941928351848
20
-68.973689651013984
42
-0.4142135623731007
10
-9.1586941928688894
20
-69.72368965098029
10
-21.509676566586521
20
-69.723689650425257
42
-0.41421356237309331
10
-22.259676566552812
20
-68.973689650391563
0
SPLINE
5
127
100
AcDbEntity
8
0
100
AcDbSpline
70
0
71
3
72
11
73
7
74
0
42
0.000000001
43
0.0000000001
44
0.0000000001
40
34
40
34
40
34
40
34
40
35
40
35
40
35
40
36
40
36
40
36
40
36
10
-126.14760431733502
20
-100.48565881615419
30
0
10
-126.14285956165494
20
-100.49281040315702
30
0
10
-126.13800949498909
20
-100.49989155995108
30
0
10
-126.13305570246123
20
-100.50689997223469
30
0
10
-125.85504842023981
20
-100.90021270005842
30
0
10
-125.3108360255776
20
-100.99368623240125
30
0
10
-124.91752329774678
20
-100.71567895017431
30
0
0
SPLINE
5
128
100
AcDbEntity
8
0
100
AcDbSpline
70
0
71
3
72
8
73
4
74
0
42
0.000000001
43
0.0000000001
44
0.0000000001
40
18
40
18
40
18
40
18
40
19
40
19
40
19
40
19
10
-80.844391206396864
20
-8.6791474891445848
30
0
10
-81.120553167953148
20
-8.6791474891317471
30
0
10
-81.344426671156413
20
-8.9030209923128663
30
0
10
-81.344426671168932
20
-9.1791829538729921
30
0
0
SPLINE
5
129
100
AcDbEntity
8
0
100
AcDbSpline
70
0
71
3
72
8
73
4
74
0
42
0.000000001
43
0.0000000001
44
0.0000000001
40
6
40
6
40
6
40
6
40
7
40
7
40
7
40
7
10
-6.3391069582095403
20
-16.179679463813741
30
0
10
-6.3391069581970285
20
-15.903517502251049
30
0
10
-6.5629804613842406
20
-15.679643999050679
30
0
10
-6.8391424229430839
20
-15.679643999037847
30
0
0
LINE
5
130
100
AcDbEntity
8
0
100
AcDbLine
10
-119.34712199277649
20
-13.929519867343597
30
0
11
-119.34712199283229
21
-15.164113705748898
31
0
0
SPLINE
5
131
100
AcDbEntity
8
0
100
AcDbSpline
70
0
71
3
72
8
73
4
74
0
42
0.000000001
43
0.0000000001
44
0.0000000001
40
14
40
14
40
14
40
14
40
15
40
15
40
15
40
15
10
-62.843114475309832
20
-10.929307081342937
30
0
10
-63.119276436867366
20
-10.929307081330746
30
0
10
-63.3431499400562
20
-10.705433578129737
30
0
10
-63.34314994004334
20
-10.429271616570894
30
0
0
LINE
5
132
100
AcDbEntity
8
0
100
AcDbLine
10
-81.344426671168932
20
-9.1791829538729921
30
0
11
-81.344426671224767
21
-10.429271615762996
31
0
0
ARC
5
133
100
AcDbEntity
8
0
100
AcDbCircle
10
61.84304354856372
20
-72.433669246282321
30
0
40
0.50003546475469318
210
0
220
0
230
-1
100
AcDbArc
50
45.000000003544592
51
90.000000003255025
0
SPLINE
5
134
100
AcDbEntity
8
0
100
AcDbSpline
70
0
71
3
72
8
73
4
74
0
42
0.000000001
43
0.0000000001
44
0.0000000001
40
16
40
16
40
16
40
16
40
17
40
17
40
17
40
17
10
-63.343149939987541
20
-9.1791829546808916
30
0
10
-63.34314993997468
20
-8.903020993120764
30
0
10
-63.567023443159989
20
-8.6791474899197549
30
0
10
-63.843185404714653
20
-8.679147489907562
30
0
0
SPLINE
5
135
100
AcDbEntity
8
0
100
AcDbSpline
70
0
71
3
72
8
73
4
74
0
42
0.000000001
43
0.0000000001
44
0.0000000001
40
22
40
22
40
22
40
22
40
23
40
23
40
23
40
23
10
-99.845738867189766
20
-10.92930707968158
30
0
10
-100.12190082874766
20
-10.929307079669389
30
0
10
-100.34577433195858
20
-11.153180582860129
30
0
10
-100.34577433197079
20
-11.429342544420255
30
0
0
ARC
5
136
100
AcDbEntity
8
0
100
AcDbCircle
10
-73.158140823294076
20
-86.051280635404311
30
0
40
0.63665465224291418
210
0
220
0
230
1
100
AcDbArc
50
275.79650428821674
51
310.60067673486645
0
LINE
5
137
100
AcDbEntity
8
0
100
AcDbLine
10
-25.840490083641619
20
-15.679643998185028
30
0
11
-43.841766814823032
21
-15.679643997376489
31
0
0
LINE
5
138
100
AcDbEntity
8
0
100
AcDbLine
10
-100.34577433197079
20
-11.429342544420255
30
0
11
-100.34577433203816
21
-12.929448938681844
31
0
0
ARC
5
139
100
AcDbEntity
8
0
100
AcDbCircle
10
109.5929220188056
20
-93.879827734002788
30
0
40
1.7507660168596626
210
0
220
0
230
-1
100
AcDbArc
50
70.828984446211592
51
80.306600002027125
0
SPLINE
5
140
100
AcDbEntity
8
0
100
AcDbSpline
70
0
71
3
72
8
73
4
74
0
42
0.000000001
43
0.0000000001
44
0.0000000001
40
32
40
32
40
32
40
32
40
33
40
33
40
33
40
33
10
-139.00219746130054
20
-75.744956874378872
30
0
10
-139.52961491610307
20
-76.141336339967324
30
0
10
-139.69170268395607
20
-76.861726419147033
30
0
10
-139.38488894300696
20
-77.445807903824203
30
0
0
LINE
5
141
100
AcDbEntity
8
0
100
AcDbLine
10
-6.8391424229430839
20
-15.679643999037847
30
0
11
-23.840348224616335
21
-15.679643998274868
31
0
0
LINE
5
142
100
AcDbEntity
8
0
100
AcDbLine
10
-44.341802279557555
20
-15.179608532596745
30
0
11
-44.341802279389427
21
-11.429342546934432
31
0
0
SPLINE
5
143
100
AcDbEntity
8
0
100
AcDbSpline
70
0
71
3
72
8
73
4
74
0
42
0.000000001
43
0.0000000001
44
0.0000000001
40
24
40
24
40
24
40
24
40
25
40
25
40
25
40
25
10
-100.34577433203816
20
-12.929448938681844
30
0
10
-100.34577433205067
20
-13.205610900244537
30
0
10
-100.56964783525265
20
-13.429484403429504
30
0
10
-100.84580979681662
20
-13.429484403416668
30
0
0
LINE
5
144
100
AcDbEntity
8
0
100
AcDbLine
10
-100.84580979681662
20
-13.429484403416668
30
0
11
-118.84708652799419
21
-13.429484402608772
31
0
0
SPLINE
5
145
100
AcDbEntity
8
0
100
AcDbSpline
70
0
71
3
72
8
73
4
74
0
42
0.000000001
43
0.0000000001
44
0.0000000001
40
12
40
12
40
12
40
12
40
13
40
13
40
13
40
13
10
-44.341802279389427
20
-11.429342546934432
30
0
10
-44.341802279377234
20
-11.153180585374304
30
0
10
-44.565675782564107
20
-10.929307082163671
30
0
10
-44.841837744124248
20
-10.929307082151478
30
0
0
LWPOLYLINE
5
146
100
AcDbEntity
8
0
100
AcDbPolyline
90
8
70
1
43
0.0
10
-21.509676564880252
20
-31.720994329035875
42
-0.41421356237307944
10
-22.259676564846551
20
-30.970994329002195
10
-22.259676564292093
20
-18.620011955283285
42
-0.41421356237310542
10
-21.509676564258385
20
-17.870011955316954
10
-9.15869419054075
20
-17.870011955871991
42
-0.41421356237308121
10
-8.4086941905744546
20
-18.62001195590566
10
-8.4086941911289266
20
-30.970994329624581
42
-0.41421356237310675
10
-9.1586941911626276
20
-31.720994329590908
0
LINE
5
147
100
AcDbEntity
8
0
100
AcDbLine
10
-119.9252482264931
20
-64.70757914301484
30
0
11
-139.00219746130054
21
-75.744956874378872
31
0
0
LINE
5
148
100
AcDbEntity
8
0
100
AcDbLine
10
-23.840348224616335
20
-15.679643998274868
30
0
11
-25.840490083641619
21
-15.679643998185028
31
0
0
LINE
5
149
100
AcDbEntity
8
0
100
AcDbLine
10
-81.844462136002903
20
-10.929307080490121
30
0
11
-99.845738867189766
21
-10.92930707968158
31
0
0
ARC
5
150
100
AcDbEntity
8
0
100
AcDbCircle
10
121.1389295121529
20
-63.334091113972939
30
0
40
1.8328916032003226
210
0
220
0
230
-1
100
AcDbArc
50
192.08084884689001
51
228.53460963479085
0
LINE
5
151
100
AcDbEntity
8
0
100
AcDbLine
10
-63.34314994004334
20
-10.429271616570894
30
0
11
-63.343149939987541
21
-9.1791829546808916
31
0
0
SPLINE
5
152
100
AcDbEntity
8
0
100
AcDbSpline
70
0
71
3
72
8
73
4
74
0
42
0.000000001
43
0.0000000001
44
0.0000000001
40
10
40
10
40
10
40
10
40
11
40
11
40
11
40
11
10
-43.841766814823032
20
-15.679643997376489
30
0
10
-44.117928776386037
20
-15.679643997364296
30
0
10
-44.341802279570366
20
-15.455770494151739
30
0
10
-44.341802279557555
20
-15.179608532596745
30
0
0
LINE
5
153
100
AcDbEntity
8
0
100
AcDbLine
10
-61.843043548535313
20
-71.933633781527632
30
0
11
-25.840490086167339
21
-71.933633783144103
31
0
0
LINE
5
154
100
AcDbEntity
8
0
100
AcDbLine
10
-109.88770870619989
20
-92.154057629172556
30
0
11
-73.093841506193428
21
-86.684679991295155
31
0
0
LINE
5
155
100
AcDbEntity
8
0
100
AcDbLine
10
-44.841837744124248
20
-10.929307082151478
30
0
11
-62.843114475309832
21
-10.929307081342937
31
0
0
SPLINE
5
156
100
AcDbEntity
8
0
100
AcDbSpline
70
0
71
3
72
8
73
4
74
0
42
0.000000001
43
0.0000000001
44
0.0000000001
40
26
40
26
40
26
40
26
40
27
40
27
40
27
40
27
10
-118.84708652799419
20
-13.429484402608772
30
0
10
-119.12324848955944
20
-13.429484402595937
30
0
10
-119.34712199276431
20
-13.653357905783469
30
0
10
-119.34712199277649
20
-13.929519867343597
30
0
0
LINE
5
157
100
AcDbEntity
8
0
100
AcDbLine
10
-124.91752329774678
20
-100.71567895017431
30
0
11
-110.16785409133328
21
-92.226154623085847
31
0
0
LINE
5
158
100
AcDbEntity
8
0
100
AcDbLine
10
-6.3391069606903514
20
-71.433598319260796
30
0
11
-6.3391069582095403
21
-16.179679463813741
31
0
0
LINE
5
159
100
AcDbEntity
8
0
100
AcDbLine
10
-119.34712199283229
20
-15.164113705748898
30
0
11
-119.34642646823835
21
-31.424874652512173
31
0
0
SPLINE
5
160
100
AcDbEntity
8
0
100
AcDbSpline
70
0
71
3
72
8
73
4
74
0
42
0.000000001
43
0.0000000001
44
0.0000000001
40
40
40
40
40
40
40
40
40
41
40
41
40
41
40
41
10
-72.743816680857392
20
-86.534669351880652
30
0
10
-72.74378720849397
20
-86.53462896153782
30
0
10
-62.193068373872002
20
-72.075416961882667
30
0
10
-62.196622016503653
20
-72.08009077829864
30
0
0
SPLINE
5
161
100
AcDbEntity
8
0
100
AcDbSpline
70
2
71
3
72
14
73
10
74
0
42
0.000000001
43
0.0000000001
44
0.0000000001
40
0
40
0
40
0
40
0
40
1
40
1
40
2
40
2
40
3
40
3
40
4
40
4
40
4
40
4
10
-23.734405125719388
20
-53.318178503097627
30
0
10
-23.73440512569212
20
-52.710622187671284
30
0
10
-24.226926832703725
20
-52.218100480609301
30
0
10
-25.442039463560327
20
-52.218100480554732
30
0
10
-25.934561170614913
20
-52.710622187572433
30
0
10
-25.934561170669475
20
-53.925734818430328
30
0
10
-25.442039463659157
20
-54.418256525481425
30
0
10
-24.22692683280254
20
-54.418256525535952
30
0
10
-23.734405125746658
20
-53.925734818529165
30
0
10
-23.734405125719388
20
-53.318178503097627
30
0
0
LINE
5
162
100
AcDbEntity
8
0
100
AcDbLine
10
-23.840348227147192
20
-71.93363378323393
30
0
11
-6.8391424254688093
21
-71.933633783996939
31
0
0
LINE
5
163
100
AcDbEntity
8
0
100
AcDbLine
10
-25.840490086167339
20
-71.933633783144103
30
0
11
-23.840348227147192
21
-71.93363378323393
31
0
0
SPLINE
5
164
100
AcDbEntity
8
0
100
AcDbSpline
70
0
71
3
72
8
73
4
74
0
42
0.000000001
43
0.0000000001
44
0.0000000001
40
4
40
4
40
4
40
4
40
5
40
5
40
5
40
5
10
-6.8391424254688102
20
-71.933633783996939
30
0
10
-6.5629804639099678
20
-71.933633784009729
30
0
10
-6.3391069607025443
20
-71.709760280817051
30
0
10
-6.3391069606903514
20
-71.433598319260796
30
0
0
LINE
5
165
100
AcDbEntity
8
0
100
AcDbLine
10
-63.843185404714653
20
-8.679147489907562
30
0
11
-80.844391206396864
21
-8.6791474891445848
31
0
0
ENDSEC
0
SECTION
2
OBJECTS
0
DICTIONARY
5
C
100
AcDbDictionary
3
ACAD_GROUP
350
D
3
ACAD_MLINESTYLE
350
17
0
DICTIONARY
5
D
100
AcDbDictionary
0
DICTIONARY
5
1A
330
C
100
AcDbDictionary
0
DICTIONARY
5
17
100
AcDbDictionary
0
ENDSEC
0
EOF
