0
SECTION
2
HEADER
9
$INSUNITS
70
4
9
$ACADVER
1
AC1014
9
$HANDSEED
5
FFFF
0
ENDSEC
0
SECTION
2
TABLES
0
TABLE
2
VPORT
5
8
100
AcDbSymbolTable
0
ENDTAB
0
TABLE
2
LTYPE
5
5
100
AcDbSymbolTable
0
LTYPE
5
14
100
AcDbSymbolTableRecord
100
AcDbLinetypeTableRecord
2
BYBLOCK
70
0
0
LTYPE
5
15
100
AcDbSymbolTableRecord
100
AcDbLinetypeTableRecord
2
BYLAYER
70
0
0
ENDTAB
0
TABLE
2
LAYER
5
2
100
AcDbSymbolTable
70
2
0
LAYER
5
50
100
AcDbSymbolTableRecord
100
AcDbLayerTableRecord
2
0
70
0
6
CONTINUOUS
0
ENDTAB
0
TABLE
2
STYLE
5
3
100
AcDbSymbolTable
70
1
0
STYLE
5
11
100
AcDbSymbolTableRecord
100
AcDbTextStyleTableRecord
2
STANDARD
70
0
0
ENDTAB
0
TABLE
2
VIEW
5
6
100
AcDbSymbolTable
70
0
0
ENDTAB
0
TABLE
2
UCS
5
7
100
AcDbSymbolTable
70
0
0
ENDTAB
0
TABLE
2
APPID
5
9
100
AcDbSymbolTable
70
2
0
APPID
5
12
100
AcDbSymbolTableRecord
100
AcDbRegAppTableRecord
2
ACAD
70
0
0
ENDTAB
0
TABLE
2
DIMSTYLE
5
A
100
AcDbSymbolTable
70
1
0
ENDTAB
0
TABLE
2
BLOCK_RECORD
5
1
100
AcDbSymbolTable
70
1
0
BLOCK_RECORD
5
1F
100
AcDbSymbolTableRecord
100
AcDbBlockTableRecord
2
*MODEL_SPACE
0
BLOCK_RECORD
5
1B
100
AcDbSymbolTableRecord
100
AcDbBlockTableRecord
2
*PAPER_SPACE
0
ENDTAB
0
ENDSEC
0
SECTION
2
BLOCKS
0
BLOCK
5
20
100
AcDbEntity
100
AcDbBlockBegin
2
*MODEL_SPACE
0
ENDBLK
5
21
100
AcDbEntity
100
AcDbBlockEnd
0
BLOCK
5
1C
100
AcDbEntity
100
AcDbBlockBegin
2
*PAPER_SPACE
0
ENDBLK
5
1D
100
AcDbEntity
100
AcDbBlockEnd
0
ENDSEC
0
SECTION
2
ENTITIES
0
LINE
5
100
100
AcDbEntity
8
0
100
AcDbLine
10
94.371877226619176
20
-59.240392555267647
30
0
11
94.362892438537727
21
-59.240392555267647
31
0
0
LINE
5
101
100
AcDbEntity
8
0
100
AcDbLine
10
-139.79869896895008
20
47.968635844323302
30
0
11
-139.80768375703158
21
47.968635844323302
31
0
0
LWPOLYLINE
5
102
100
AcDbEntity
8
0
100
AcDbPolyline
90
8
70
1
43
0.0
10
-59.512879922944947
20
-45.97200507284672
10
-47.1618975492283
20
-45.972005073401206
42
0.41421356237309509
10
-46.411897549194627
20
-45.222005073434879
10
-46.411897548640155
20
-32.871022699719788
42
0.41421356237310364
10
-47.161897548606476
20
-32.121022699686122
10
-59.512879922323137
20
-32.121022699131672
42
0.41421356237309331
10
-60.262879922356809
20
-32.871022699098006
10
-60.262879922911274
20
-45.222005072813047
42
0.41421356237309509
0
LWPOLYLINE
5
103
100
AcDbEntity
8
0
100
AcDbPolyline
90
8
70
1
43
0.0
10
9.4313201420661841
20
50.158147971826054
10
21.782302515783812
20
50.158147971826054
42
-0.41421356237308982
10
22.532302515783812
20
49.408147971826054
10
22.532302515783815
20
37.057165598108412
42
-0.4142135623730881
10
21.782302515783812
20
36.307165598108412
10
9.4313201420661859
20
36.307165598108412
42
-0.41421356237309165
10
8.6813201420661841
20
37.057165598108412
10
8.6813201420661876
20
49.408147971826054
42
-0.41421356237308982
0
LWPOLYLINE
5
104
100
AcDbEntity
8
0
100
AcDbPolyline
90
8
70
1
43
0.0
10
-21.509676565733397
20
-50.722341989733124
10
-9.1586941920157656
20
-50.722341990288172
42
0.41421356237310625
10
-8.408694191982061
20
-49.972341990321844
10
-8.4086941914275926
20
-37.621359616599072
42
0.41421356237307944
10
-9.1586941913938915
20
-36.8713596165654
10
-21.509676565111523
20
-36.871359616010373
42
0.41421356237309853
10
-22.259676565145227
20
-37.621359615976708
10
-22.259676565699689
20
-49.972341989699459
42
0.41421356237309509
0
LWPOLYLINE
5
105
100
AcDbEntity
8
0
100
AcDbPolyline
90
8
70
1
43
0.0
10
-21.509676566586521
20
-69.723689650425257
10
-9.1586941928688894
20
-69.72368965098029
42
0.4142135623731007
10
-8.4086941928351848
20
-68.973689651013984
10
-8.4086941922804321
20
-56.622707277296357
42
0.41421356237308637
10
-9.158694192246724
20
-55.87270727726267
10
-21.509676565964352
20
-55.872707276707629
42
0.4142135623731002
10
-22.259676565998056
20
-56.622707276673943
10
-22.259676566552812
20
-68.973689650391563
42
0.41421356237309331
0
LWPOLYLINE
5
106
100
AcDbEntity
8
0
100
AcDbPolyline
90
8
70
1
43
0.0
10
22.532302515783812
20
87.410843293216715
10
22.532302515783812
20
75.059860919497808
42
-0.41421356237309331
10
21.782302515783812
20
74.309860919497822
10
9.4313201420661859
20
74.309860919497822
42
-0.4142135623730942
10
8.6813201420661841
20
75.059860919497822
10
8.6813201420661912
20
87.410843293216715
42
-0.41421356237309509
10
9.4313201420661841
20
88.160843293216701
10
21.782302515783812
20
88.160843293216701
42
-0.41421356237309681
0
LWPOLYLINE
5
107
100
AcDbEntity
8
0
100
AcDbPolyline
90
8
70
1
43
0.0
10
8.6813201420661841
20
56.058513258800538
10
8.6813201420661876
20
68.409495632523317
42
-0.41421356237308982
10
9.4313201420661841
20
69.159495632523317
10
21.782302515783812
20
69.159495632523317
42
-0.41421356237308982
10
22.532302515783812
20
68.409495632523317
10
22.532302515783812
20
56.058513258800531
42
-0.41421356237309331
10
21.782302515783812
20
55.308513258800538
10
9.4313201420661859
20
55.308513258800538
42
-0.4142135623730942
0
LWPOLYLINE
5
108
100
AcDbEntity
8
0
100
AcDbPolyline
90
8
70
1
43
0.0
10
-27.41054988785244
20
-30.970994328771148
10
-27.410549887297986
20
-18.620011955052234
42
0.4142135623730942
10
-28.160549887264324
20
-17.870011955018569
10
-40.511532260983515
20
-17.870011954464101
42
0.41421356237309587
10
-41.26153226101718
20
-18.620011954430446
10
-41.261532261571389
20
-30.970994328149374
42
0.41421356237308982
10
-40.511532261605048
20
-31.720994328183025
10
-28.160549887886106
20
-31.720994328737476
42
0.41421356237309853
0
LWPOLYLINE
5
109
100
AcDbEntity
8
0
100
AcDbPolyline
90
8
70
1
43
0.0
10
59.785505873208436
20
79.060197834674682
10
47.434523499492094
20
79.060197834674682
42
-0.41421356237309509
10
46.684523499492094
20
79.810197834674682
10
46.684523499492087
20
92.161180208389766
42
-0.4142135623730881
10
47.434523499492094
20
92.911180208389766
10
59.785505873208436
20
92.911180208389766
42
-0.4142135623730881
10
60.53550587320845
20
92.161180208389766
10
60.535505873208436
20
79.810197834674682
42
-0.41421356237309509
0
LWPOLYLINE
5
110
100
AcDbEntity
8
0
100
AcDbPolyline
90
8
70
1
43
0.0
10
98.538201194597832
20
92.161180208389766
10
98.538201194597832
20
79.810197834674682
42
-0.4142135623730881
10
97.788201194597832
20
79.060197834674668
10
85.437218820878925
20
79.060197834674668
42
-0.4142135623730881
10
84.687218820878925
20
79.810197834674682
10
84.687218820878911
20
92.161180208389766
42
-0.41421356237312973
10
85.437218820878925
20
92.911180208389766
10
97.788201194597832
20
92.911180208389766
42
-0.41421356237310886
0
SPLINE
5
111
100
AcDbEntity
8
0
100
AcDbSpline
70
2
71
3
72
14
73
10
74
0
42
0.000000001
43
0.0000000001
44
0.0000000001
40
0
40
0
40
0
40
0
40
1
40
1
40
2
40
2
40
3
40
3
40
4
40
4
40
4
40
4
10
67.259367862302952
20
35.602947782790707
30
0
10
67.259367862302952
20
36.210504098222216
30
0
10
67.751889569329023
20
36.703025805254697
30
0
10
68.967002200193321
20
36.703025805254697
30
0
10
69.459523907219392
20
36.210504098222216
30
0
10
69.459523907219392
20
34.99539146736047
30
0
10
68.967002200193321
20
34.502869760335727
30
0
10
67.751889569329023
20
34.502869760335727
30
0
10
67.259367862302952
20
34.99539146736047
30
0
10
67.259367862302952
20
35.602947782790707
30
0
0
SPLINE
5
112
100
AcDbEntity
8
0
100
AcDbSpline
70
2
71
3
72
14
73
10
74
0
42
0.000000001
43
0.0000000001
44
0.0000000001
40
0
40
0
40
0
40
0
40
1
40
1
40
2
40
2
40
3
40
3
40
4
40
4
40
4
40
4
10
82.926440738746848
20
-69.370919020295958
30
0
10
82.926440738773778
20
-68.763362704864434
30
0
10
82.433919031765697
20
-68.270840997806317
30
0
10
81.21880640090653
20
-68.270840997751762
30
0
10
80.726284693849692
20
-68.763362704765626
30
0
10
80.72628469379579
20
-69.978475335627351
30
0
10
81.218806400807722
20
-70.470997042674568
30
0
10
82.433919031666889
20
-70.47099704272911
30
0
10
82.92644073871989
20
-69.978475335726188
30
0
10
82.926440738746848
20
-69.370919020295958
30
0
0
SPLINE
5
113
100
AcDbEntity
8
0
100
AcDbSpline
70
2
71
3
72
14
73
10
74
0
42
0.000000001
43
0.0000000001
44
0.0000000001
40
0
40
0
40
0
40
0
40
1
40
1
40
2
40
2
40
3
40
3
40
4
40
4
40
4
40
4
10
36.406461877911418
20
-77.125428644607879
30
0
10
36.406461877938703
20
-76.517872329176342
30
0
10
35.913940170930921
20
-76.025350622118225
30
0
10
34.698827540070461
20
-76.025350622063684
30
0
10
34.206305833015868
20
-76.517872329078187
30
0
10
34.206305832961341
20
-77.73298495993221
30
0
10
34.69882753997166
20
-78.225506666987798
30
0
10
35.913940170831779
20
-78.225506667042325
30
0
10
36.406461877884468
20
-77.732984960030393
30
0
10
36.406461877911418
20
-77.125428644607879
30
0
0
SPLINE
5
114
100
AcDbEntity
8
0
100
AcDbSpline
70
2
71
3
72
14
73
10
74
0
42
0.000000001
43
0.0000000001
44
0.0000000001
40
0
40
0
40
0
40
0
40
1
40
1
40
2
40
2
40
3
40
3
40
4
40
4
40
4
40
4
10
-66.986741913137436
20
-70.427907463701388
30
0
10
-66.986741913110464
20
-69.820351148269864
30
0
10
-67.479263620114068
20
-69.327829441215584
30
0
10
-68.694376250978365
20
-69.327829441161043
30
0
10
-69.18689795802689
20
-69.820351148171056
30
0
10
-69.186897958081403
20
-71.035463779032781
30
0
10
-68.694376251077188
20
-71.527985486080013
30
0
10
-67.479263620212876
20
-71.527985486134554
30
0
10
-66.986741913165019
20
-71.035463779131618
30
0
10
-66.986741913137436
20
-70.427907463701388
30
0
0
LWPOLYLINE
5
115
100
AcDbEntity
8
0
100
AcDbPolyline
90
8
70
1
43
0.0
10
111.40496678616637
20
29.786607050902283
10
108.22041982229365
20
17.853232581338403
42
-0.41421356237320794
10
107.30240045087865
20
17.321969526244999
10
95.369025981318487
20
20.506516490121072
42
-0.41421356237302309
10
94.837762926225281
20
21.424535861535837
10
98.022309890099152
20
33.357910331098573
42
-0.41421356237316059
10
98.94032926151408
20
33.889173386191914
10
110.87370373107308
20
30.704626422316984
42
-0.41421356237300377
0
LWPOLYLINE
5
116
100
AcDbEntity
8
0
100
AcDbPolyline
90
8
70
1
43
0.0
10
-104.16594053165215
20
-53.497538815412099
10
-116.51692290537235
20
-53.49753881485762
42
0.41421356237309509
10
-117.26692290540601
20
-54.247538814823955
10
-117.26692290596047
20
-66.598521188537731
42
0.41421356237308121
10
-116.51692290599412
20
-67.348521188571397
10
-104.16594053227396
20
-67.348521189125861
42
0.41421356237309509
10
-103.4159405322403
20
-66.598521189159527
10
-103.41594053168581
20
-54.247538815445765
42
0.41421356237308465
0
LWPOLYLINE
5
117
100
AcDbEntity
8
0
100
AcDbPolyline
90
8
70
1
43
0.0
10
59.785505873208436
20
60.058850173981284
10
47.434523499492094
20
60.058850173981284
42
-0.41421356237309509
10
46.684523499492094
20
60.808850173981284
10
46.684523499492094
20
73.15983254769634
42
-0.4142135623730881
10
47.434523499492094
20
73.90983254769634
10
59.785505873208436
20
73.90983254769634
42
-0.4142135623730881
10
60.535505873208436
20
73.15983254769634
10
60.535505873208436
20
60.808850173981284
42
-0.41421356237309509
0
LWPOLYLINE
5
118
100
AcDbEntity
8
0
100
AcDbPolyline
90
8
70
1
43
0.0
10
-97.515575245187151
20
-64.973352731840265
10
-85.16459287146823
20
-64.97335273239473
42
0.41421356237309509
10
-84.414592871434579
20
-64.223352732428395
10
-84.414592870880085
20
-51.872370358714647
42
0.41421356237308121
10
-85.164592870846434
20
-51.122370358680975
10
-97.515575244565326
20
-51.122370358126489
42
0.41421356237310542
10
-98.265575244599006
20
-51.872370358092823
10
-98.265575245153499
20
-64.2233527318066
42
0.41421356237308121
0
LWPOLYLINE
5
119
100
AcDbEntity
8
0
100
AcDbPolyline
90
8
70
1
43
0.0
10
97.788201194597832
20
41.057502513281435
10
85.437218820878925
20
41.057502513281435
42
-0.4142135623730881
10
84.687218820878925
20
41.807502513281449
10
84.687218820878925
20
54.158484886995225
42
-0.41421356237308465
10
85.437218820878925
20
54.908484886995225
10
97.788201194597832
20
54.908484886995225
42
-0.41421356237308465
10
98.538201194597832
20
54.158484886995225
10
98.538201194597832
20
41.807502513281449
42
-0.4142135623730881
0
LWPOLYLINE
5
120
100
AcDbEntity
8
0
100
AcDbPolyline
90
8
70
1
43
0.0
10
41.534158212508963
20
87.410843293216715
10
41.534158212508956
20
75.059860919497822
42
-0.41421356237309509
10
40.784158212508956
20
74.309860919497822
10
28.433175838789712
20
74.309860919497822
42
-0.41421356237309331
10
27.683175838789712
20
75.059860919497822
10
27.683175838789708
20
87.410843293216715
42
-0.41421356237308637
10
28.433175838789712
20
88.160843293216701
10
40.784158212508956
20
88.160843293216701
42
-0.4142135623730881
0
LWPOLYLINE
5
121
100
AcDbEntity
8
0
100
AcDbPolyline
90
8
70
1
43
0.0
10
65.68587116018422
20
63.184018631567163
10
65.68587116018422
20
75.535001005284755
42
-0.41421356237308121
10
66.43587116018422
20
76.285001005284755
10
78.786853533901862
20
76.285001005284755
42
-0.4142135623730881
10
79.536853533901862
20
75.535001005284755
10
79.536853533901862
20
63.184018631567163
42
-0.41421356237309509
10
78.786853533901862
20
62.434018631567163
10
66.43587116018422
20
62.434018631567163
42
-0.4142135623730881
0
LWPOLYLINE
5
122
100
AcDbEntity
8
0
100
AcDbPolyline
90
8
70
1
43
0.0
10
-85.164592869993641
20
-32.121022697979846
10
-97.515575243712561
20
-32.121022697425374
42
0.41421356237308982
10
-98.265575243746213
20
-32.871022697391687
10
-98.26557524430099
20
-45.222005071106757
42
0.41421356237308121
10
-97.515575244334642
20
-45.972005071140465
10
-85.164592870615706
20
-45.972005071694902
42
0.41421356237308465
10
-84.414592870582055
20
-45.222005071728603
10
-84.414592870027292
20
-32.871022698013533
42
0.4142135623730881
0
SPLINE
5
123
100
AcDbEntity
8
0
100
AcDbSpline
70
2
71
3
72
14
73
10
74
0
42
0.000000001
43
0.0000000001
44
0.0000000001
40
0
40
0
40
0
40
0
40
1
40
1
40
2
40
2
40
3
40
3
40
4
40
4
40
4
40
4
10
126.17877752616133
20
-52.261190059692225
30
0
10
126.1787775261883
20
-51.653633744261988
30
0
10
125.68625581917894
20
-51.161112037207708
30
0
10
124.47114318832107
20
-51.161112037153167
30
0
10
123.9786214812642
20
-51.653633744163159
30
0
10
123.97862148120902
20
-52.868746375024912
30
0
10
124.47114318822227
20
-53.361268082075981
30
0
10
125.6862558190801
20
-53.361268082130515
30
0
10
126.17877752613312
20
-52.868746375123727
30
0
10
126.17877752616133
20
-52.261190059692225
30
0
0
LWPOLYLINE
5
124
100
AcDbEntity
8
0
100
AcDbPolyline
90
8
70
1
43
0.0
10
-21.509676564880252
20
-31.720994329035875
10
-9.1586941911626276
20
-31.720994329590908
42
0.41421356237310675
10
-8.408694191128923
20
-30.970994329624581
10
-8.4086941905744546
20
-18.62001195590566
42
0.41421356237308121
10
-9.15869419054075
20
-17.870011955871991
10
-21.509676564258385
20
-17.870011955316954
42
0.41421356237310542
10
-22.259676564292093
20
-18.620011955283285
10
-22.259676564846551
20
-30.970994329002195
42
0.41421356237307944
0
LWPOLYLINE
5
125
100
AcDbEntity
8
0
100
AcDbPolyline
90
8
70
1
43
0.0
10
134.45374867361596
20
23.753835071457708
10
128.2855574581539
20
13.053359253743654
42
-0.41421356237309814
10
127.26122596029671
20
12.778141190205547
10
116.56075014258266
20
18.94633240566764
42
-0.41421356237322943
10
116.28553207904473
20
19.970663903525086
10
122.4537232945091
20
30.671139721232269
42
-0.41421356237286355
10
123.4780547923659
20
30.946357784770221
10
134.17853061007759
20
24.77816656931504
42
-0.41421356237320534
0
LWPOLYLINE
5
126
100
AcDbEntity
8
0
100
AcDbPolyline
90
8
70
1
43
0.0
10
27.683175838789712
20
56.058513258800538
10
27.683175838789715
20
68.409495632523317
42
-0.41421356237308982
10
28.433175838789712
20
69.159495632523317
10
40.784158212508956
20
69.159495632523317
42
-0.41421356237309509
10
41.534158212508956
20
68.409495632523317
10
41.534158212508956
20
56.058513258800538
42
-0.41421356237309509
10
40.784158212508956
20
55.308513258800538
10
28.433175838789712
20
55.308513258800538
42
-0.41421356237309331
0
LWPOLYLINE
5
127
100
AcDbEntity
8
0
100
AcDbPolyline
90
8
70
1
43
0.0
10
60.535505873208436
20
54.158484886995225
10
60.535505873208436
20
41.807502513281449
42
-0.41421356237309509
10
59.785505873208436
20
41.057502513281449
10
47.434523499492094
20
41.057502513281449
42
-0.41421356237309509
10
46.684523499492094
20
41.807502513281449
10
46.684523499492094
20
54.158484886995225
42
-0.4142135623730881
10
47.434523499492094
20
54.908484886995225
10
59.785505873208436
20
54.908484886995225
42
-0.4142135623730881
0
SPLINE
5
128
100
AcDbEntity
8
0
100
AcDbSpline
70
2
71
3
72
14
73
10
74
0
42
0.000000001
43
0.0000000001
44
0.0000000001
40
0
40
0
40
0
40
0
40
1
40
1
40
2
40
2
40
3
40
3
40
4
40
4
40
4
40
4
10
-23.743200533901927
20
-34.303032877096264
30
0
10
-23.743200533874649
20
-33.695476561668634
30
0
10
-24.235722240881124
20
-33.202954854613679
30
0
10
-25.450834871742856
20
-33.202954854559152
30
0
10
-25.943356578798742
20
-33.695476561569805
30
0
10
-25.943356578853304
20
-34.910589192423835
30
0
10
-25.450834871841682
20
-35.403110899478115
30
0
10
-24.23572224097995
20
-35.403110899532678
30
0
10
-23.743200533929194
20
-34.910589192522664
30
0
10
-23.743200533901927
20
-34.303032877096264
30
0
0
LWPOLYLINE
5
129
100
AcDbEntity
8
0
100
AcDbPolyline
90
8
70
1
43
0.0
10
98.538201194597832
20
73.15983254769634
10
98.538201194597832
20
60.808850173981284
42
-0.4142135623730881
10
97.788201194597832
20
60.058850173981277
10
85.437218820878925
20
60.058850173981277
42
-0.4142135623730881
10
84.687218820878925
20
60.808850173981284
10
84.687218820878925
20
73.15983254769634
42
-0.41421356237308465
10
85.437218820878925
20
73.90983254769634
10
97.788201194597832
20
73.90983254769634
42
-0.41421356237308465
0
LWPOLYLINE
5
130
100
AcDbEntity
8
0
100
AcDbPolyline
90
8
70
1
43
0.0
10
-59.512879922092097
20
-26.970657412153308
10
-47.161897548375137
20
-26.970657412707773
42
0.41421356237309853
10
-46.411897548341457
20
-26.220657412741453
10
-46.411897547787014
20
-13.869675039026388
42
0.41421356237309331
10
-47.161897547753348
20
-13.119675038992719
10
-59.512879921469725
20
-13.119675038438253
42
0.41421356237307505
10
-60.262879921503398
20
-13.86967503840455
10
-60.262879922058417
20
-26.220657412119603
42
0.41421356237311757
0
LWPOLYLINE
5
131
100
AcDbEntity
8
0
100
AcDbPolyline
90
8
70
1
43
0.0
10
66.43587116018422
20
95.286348665974316
10
78.786853533901862
20
95.286348665974316
42
-0.4142135623730881
10
79.536853533901876
20
94.53634866597433
10
79.536853533901862
20
82.185366292260525
42
-0.4142135623730881
10
78.786853533901862
20
81.435366292260554
10
66.43587116018422
20
81.435366292260539
42
-0.41421356237308465
10
65.68587116018422
20
82.185366292260525
10
65.68587116018422
20
94.53634866597433
42
-0.41421356237308465
0
LWPOLYLINE
5
132
100
AcDbEntity
8
0
100
AcDbPolyline
90
8
70
1
43
0.0
10
-126.98860001215552
20
-93.252714053592996
10
-116.28812419416484
20
-87.08452283861098
42
0.41421356237320694
10
-116.01290613058094
20
-86.06019134076584
10
-122.18109734556552
20
-75.359715522781684
42
0.41421356237284335
10
-123.20542884340995
20
-75.084497459197777
10
-133.90590466139832
20
-81.252688674172916
42
0.41421356237321644
10
-134.18112272498263
20
-82.277020172017899
10
-128.01293151000033
20
-92.977495990008919
42
0.41421356237309509
0
SPLINE
5
133
100
AcDbEntity
8
0
100
AcDbSpline
70
2
71
3
72
14
73
10
74
0
42
0.000000001
43
0.0000000001
44
0.0000000001
40
0
40
0
40
0
40
0
40
1
40
1
40
2
40
2
40
3
40
3
40
4
40
4
40
4
40
4
10
-23.734405125719388
20
-53.318178503097627
30
0
10
-23.73440512569212
20
-52.710622187671284
30
0
10
-24.226926832703725
20
-52.218100480609301
30
0
10
-25.442039463560327
20
-52.218100480554732
30
0
10
-25.934561170614913
20
-52.710622187572433
30
0
10
-25.934561170669475
20
-53.925734818430328
30
0
10
-25.442039463659157
20
-54.418256525481425
30
0
10
-24.22692683280254
20
-54.418256525535952
30
0
10
-23.734405125746658
20
-53.925734818529165
30
0
10
-23.734405125719388
20
-53.318178503097627
30
0
0
ARC
5
134
100
AcDbEntity
8
0
100
AcDbCircle
10
62.115669497640141
20
33.59718600044399
30
0
40
0.50003546475147131
210
0
220
-0
230
1
100
AcDbArc
50
45.000000000796192
51
90.000000000763691
0
LINE
5
135
100
AcDbEntity
8
0
100
AcDbLine
10
62.115669497633476
20
34.09722146519546
30
0
11
26.113116035265527
21
34.09722146519546
31
0
0
LINE
5
136
100
AcDbEntity
8
0
100
AcDbLine
10
26.113116035265527
20
34.09722146519546
30
0
11
24.11297417624537
21
34.09722146519546
31
0
0
LINE
5
137
100
AcDbEntity
8
0
100
AcDbLine
10
24.11297417624537
20
34.09722146519546
30
0
11
7.1117683745669824
21
34.09722146519546
31
0
0
SPLINE
5
138
100
AcDbEntity
8
0
100
AcDbSpline
70
0
71
3
72
8
73
4
74
0
42
0.000000001
43
0.0000000001
44
0.0000000001
40
4
40
4
40
4
40
4
40
5
40
5
40
5
40
5
10
7.1117683745669833
20
34.09722146519546
30
0
10
6.8356064130081409
20
34.09722146519546
30
0
10
6.6117329098109821
20
34.321094968397745
30
0
10
6.6117329098109821
20
34.597256929954028
30
0
0
LINE
5
139
100
AcDbEntity
8
0
100
AcDbLine
10
6.6117329098109821
20
34.597256929954028
30
0
11
6.6117329098109821
21
89.851175785401068
31
0
0
SPLINE
5
140
100
AcDbEntity
8
0
100
AcDbSpline
70
0
71
3
72
8
73
4
74
0
42
0.000000001
43
0.0000000001
44
0.0000000001
40
6
40
6
40
6
40
6
40
7
40
7
40
7
40
7
10
6.6117329098109821
20
89.851175785401068
30
0
10
6.6117329098109821
20
90.127337746963789
30
0
10
6.8356064130081409
20
90.351211250154506
30
0
10
7.1117683745669833
20
90.351211250154506
30
0
0
LINE
5
141
100
AcDbEntity
8
0
100
AcDbLine
10
7.1117683745669833
20
90.351211250154506
30
0
11
24.11297417624024
21
90.351211250154506
31
0
0
LINE
5
142
100
AcDbEntity
8
0
100
AcDbLine
10
24.11297417624024
20
90.351211250154506
30
0
11
26.113116035265527
21
90.351211250154506
31
0
0
LINE
5
143
100
AcDbEntity
8
0
100
AcDbLine
10
26.113116035265527
20
90.351211250154506
30
0
11
44.114392766446919
21
90.351211250154506
31
0
0
SPLINE
5
144
100
AcDbEntity
8
0
100
AcDbSpline
70
0
71
3
72
8
73
4
74
0
42
0.000000001
43
0.0000000001
44
0.0000000001
40
10
40
10
40
10
40
10
40
11
40
11
40
11
40
11
10
44.114392766446919
20
90.351211250154506
30
0
10
44.390554728009626
20
90.351211250154506
30
0
10
44.614428231204215
20
90.575084753356819
30
0
10
44.614428231204215
20
90.851246714911809
30
0
0
LINE
5
145
100
AcDbEntity
8
0
100
AcDbLine
10
44.614428231204215
20
90.851246714911809
30
0
11
44.614428231204215
21
94.601512700574091
31
0
0
SPLINE
5
146
100
AcDbEntity
8
0
100
AcDbSpline
70
0
71
3
72
8
73
4
74
0
42
0.000000001
43
0.0000000001
44
0.0000000001
40
12
40
12
40
12
40
12
40
13
40
13
40
13
40
13
10
44.614428231204215
20
94.601512700574091
30
0
10
44.614428231204215
20
94.877674662134211
30
0
10
44.838301734401384
20
95.101548165335259
30
0
10
45.114463695961497
20
95.101548165335259
30
0
0
LINE
5
147
100
AcDbEntity
8
0
100
AcDbLine
10
45.114463695961497
20
95.101548165335259
30
0
11
63.11574042714674
21
95.101548165335259
31
0
0
SPLINE
5
148
100
AcDbEntity
8
0
100
AcDbSpline
70
0
71
3
72
8
73
4
74
0
42
0.000000001
43
0.0000000001
44
0.0000000001
40
14
40
14
40
14
40
14
40
15
40
15
40
15
40
15
10
63.11574042714674
20
95.101548165335259
30
0
10
63.391902388704324
20
95.101548165335259
30
0
10
63.615775891902757
20
95.325421668525991
30
0
10
63.615775891902757
20
95.601583630084832
30
0
0
LINE
5
149
100
AcDbEntity
8
0
100
AcDbLine
10
63.615775891902757
20
95.601583630084832
30
0
11
63.615775891902757
21
96.851672291974822
31
0
0
SPLINE
5
150
100
AcDbEntity
8
0
100
AcDbSpline
70
0
71
3
72
8
73
4
74
0
42
0.000000001
43
0.0000000001
44
0.0000000001
40
16
40
16
40
16
40
16
40
17
40
17
40
17
40
17
10
63.615775891902757
20
96.851672291974822
30
0
10
63.615775891902757
20
97.127834253534957
30
0
10
63.839649395097346
20
97.351707756725688
30
0
10
64.11581135665233
20
97.351707756725688
30
0
0
LINE
5
151
100
AcDbEntity
8
0
100
AcDbLine
10
64.11581135665233
20
97.351707756725688
30
0
11
81.11701715833459
21
97.351707756725688
31
0
0
SPLINE
5
152
100
AcDbEntity
8
0
100
AcDbSpline
70
0
71
3
72
8
73
4
74
0
42
0.000000001
43
0.0000000001
44
0.0000000001
40
18
40
18
40
18
40
18
40
19
40
19
40
19
40
19
10
81.11701715833459
20
97.351707756725688
30
0
10
81.393179119890874
20
97.351707756725688
30
0
10
81.617052623084149
20
97.127834253534957
30
0
10
81.617052623084149
20
96.851672291974822
30
0
0
LINE
5
153
100
AcDbEntity
8
0
100
AcDbLine
10
81.617052623084149
20
96.851672291974822
30
0
11
81.617052623084149
21
95.601583630084832
31
0
0
SPLINE
5
154
100
AcDbEntity
8
0
100
AcDbSpline
70
0
71
3
72
8
73
4
74
0
42
0.000000001
43
0.0000000001
44
0.0000000001
40
20
40
20
40
20
40
20
40
21
40
21
40
21
40
21
10
81.617052623084149
20
95.601583630084832
30
0
10
81.617052623084149
20
95.325421668525991
30
0
10
81.840926126282596
20
95.101548165335259
30
0
10
82.117088087840159
20
95.101548165335259
30
0
0
LINE
5
155
100
AcDbEntity
8
0
100
AcDbLine
10
82.117088087840159
20
95.101548165335259
30
0
11
100.1183648190267
21
95.101548165335259
31
0
0
SPLINE
5
156
100
AcDbEntity
8
0
100
AcDbSpline
70
0
71
3
72
8
73
4
74
0
42
0.000000001
43
0.0000000001
44
0.0000000001
40
22
40
22
40
22
40
22
40
23
40
23
40
23
40
23
10
100.1183648190267
20
95.101548165335259
30
0
10
100.39452678058426
20
95.101548165335259
30
0
10
100.61840028378528
20
94.877674662134211
30
0
10
100.61840028378528
20
94.601512700574091
30
0
0
LINE
5
157
100
AcDbEntity
8
0
100
AcDbLine
10
100.61840028378528
20
94.601512700574091
30
0
11
100.61840028378528
21
93.101406306312526
31
0
0
SPLINE
5
158
100
AcDbEntity
8
0
100
AcDbSpline
70
0
71
3
72
8
73
4
74
0
42
0.000000001
43
0.0000000001
44
0.0000000001
40
24
40
24
40
24
40
24
40
25
40
25
40
25
40
25
10
100.61840028378528
20
93.101406306312526
30
0
10
100.61840028378528
20
92.825244344749805
30
0
10
100.84227378697732
20
92.601370841555195
30
0
10
101.11843574854127
20
92.601370841555195
30
0
0
LINE
5
159
100
AcDbEntity
8
0
100
AcDbLine
10
101.11843574854127
20
92.601370841555195
30
0
11
119.11971247971883
21
92.601370841555195
31
0
0
SPLINE
5
160
100
AcDbEntity
8
0
100
AcDbSpline
70
0
71
3
72
8
73
4
74
0
42
0.000000001
43
0.0000000001
44
0.0000000001
40
26
40
26
40
26
40
26
40
27
40
27
40
27
40
27
10
119.11971247971883
20
92.601370841555195
30
0
10
119.39587444128412
20
92.601370841555195
30
0
10
119.61974794447869
20
92.377497338358097
30
0
10
119.61974794447869
20
92.101335376797948
30
0
0
LINE
5
161
100
AcDbEntity
8
0
100
AcDbLine
10
119.61974794447869
20
92.101335376797948
30
0
11
119.61974794447869
21
90.866741538392631
31
0
0
LINE
5
162
100
AcDbEntity
8
0
100
AcDbLine
10
119.61974794447869
20
90.866741538392631
30
0
11
119.61905241915511
21
74.605980591629361
31
0
0
LINE
5
163
100
AcDbEntity
8
0
100
AcDbLine
10
119.61905241915511
20
74.605980591629361
30
0
11
119.61925645551173
21
42.313155082063801
31
0
0
ARC
5
164
100
AcDbEntity
8
0
100
AcDbCircle
10
121.41155546163942
20
42.69676413009006
30
0
40
1.832891603203509
210
0
220
0
230
1
100
AcDbArc
50
192.08084884435763
51
228.53460963221144
0
LINE
5
165
100
AcDbEntity
8
0
100
AcDbLine
10
120.19787417591567
20
41.323276101100404
30
0
11
139.27482341022736
21
30.285898368880314
31
0
0
SPLINE
5
166
100
AcDbEntity
8
0
100
AcDbSpline
70
0
71
3
72
8
73
4
74
0
42
0.000000001
43
0.0000000001
44
0.0000000001
40
32
40
32
40
32
40
32
40
33
40
33
40
33
40
33
10
139.27482341022736
20
30.285898368880314
30
0
10
139.80224086501192
20
29.889518903268137
30
0
10
139.96432863283283
20
29.16912882408074
30
0
10
139.65751489185746
20
28.585047339417649
30
0
0
LINE
5
167
100
AcDbEntity
8
0
100
AcDbLine
10
139.65751489185746
20
28.585047339417649
30
0
11
126.42023026515106
21
5.5451964276819288
31
0
0
SPLINE
5
168
100
AcDbEntity
8
0
100
AcDbSpline
70
0
71
3
72
11
73
7
74
0
42
0.000000001
43
0.0000000001
44
0.0000000001
40
34
40
34
40
34
40
34
40
35
40
35
40
35
40
36
40
36
40
36
40
36
10
126.42023026515106
20
5.5451964276819234
30
0
10
126.41548550947033
20
5.5380448406790785
30
0
10
126.41063544280449
20
5.530963683885652
30
0
10
126.40568165027604
20
5.5239552716020626
30
0
10
126.12767436803757
20
5.1306425437905094
30
0
10
125.58346197337058
20
5.0371690114720877
30
0
10
125.19014924555259
20
5.315176293716962
30
0
0
LINE
5
169
100
AcDbEntity
8
0
100
AcDbLine
10
125.19014924555259
20
5.315176293716962
30
0
11
110.44048003952025
21
13.804700621467674
31
0
0
ARC
5
170
100
AcDbEntity
8
0
100
AcDbCircle
10
109.86554796690308
20
12.1510275105235
30
0
40
1.750766016914779
210
0
220
-0
230
1
100
AcDbArc
50
70.82898444373815
51
80.306599999257671
0
LINE
5
171
100
AcDbEntity
8
0
100
AcDbLine
10
110.16033465439007
20
13.876797615393812
30
0
11
73.366467454629372
21
19.346175254922922
31
0
0
ARC
5
172
100
AcDbEntity
8
0
100
AcDbCircle
10
-73.430766771757249
20
19.979574610810932
30
0
40
0.63665465224283824
210
-0
220
0
230
-1
100
AcDbArc
50
275.79650429068033
51
310.60067673737814
0
SPLINE
5
173
100
AcDbEntity
8
0
100
AcDbSpline
70
0
71
3
72
8
73
4
74
0
42
0.000000001
43
0.0000000001
44
0.0000000001
40
40
40
40
40
40
40
40
40
41
40
41
40
41
40
41
10
73.016442629299419
20
19.496185894352806
30
0
10
73.016413156935997
20
19.496226284695638
30
0
10
62.465694322963458
20
33.95543828482505
30
0
10
62.469247965594761
20
33.950764468408437
30
0
0
LWPOLYLINE
5
174
100
AcDbEntity
8
0
100
AcDbPolyline
90
8
70
1
43
0.0
10
27.683175838789712
20
37.057165598108412
10
27.683175838789715
20
49.408147971826054
42
-0.41421356237308982
10
28.433175838789712
20
50.158147971826054
10
40.784158212508956
20
50.158147971826054
42
-0.41421356237309509
10
41.534158212508956
20
49.408147971826047
10
41.534158212508956
20
37.057165598108412
42
-0.41421356237308982
10
40.784158212508963
20
36.307165598108412
10
28.433175838789712
20
36.307165598108412
42
-0.4142135623730881
0
LWPOLYLINE
5
175
100
AcDbEntity
8
0
100
AcDbPolyline
90
8
70
1
43
0.0
10
117.53954885529767
20
51.783316429410618
10
117.53954885529767
20
39.432334055696849
42
-0.41421356237309681
10
116.78954885529768
20
38.682334055696849
10
104.43856648157745
20
38.682334055696849
42
-0.41421356237309681
10
103.68856648157745
20
39.432334055696849
10
103.68856648157745
20
51.783316429410618
42
-0.41421356237308465
10
104.43856648157745
20
52.533316429410625
10
116.78954885529765
20
52.533316429410625
42
-0.41421356237308465
0
LWPOLYLINE
5
176
100
AcDbEntity
8
0
100
AcDbPolyline
90
8
70
1
43
0.0
10
117.53954885529767
20
89.786011750805145
10
117.53954885529767
20
77.435029377090089
42
-0.4142135623730881
10
116.78954885529768
20
76.685029377090089
10
104.43856648157745
20
76.685029377090089
42
-0.4142135623730881
10
103.68856648157745
20
77.435029377090089
10
103.68856648157747
20
89.786011750805145
42
-0.41421356237312973
10
104.43856648157745
20
90.536011750805145
10
116.78954885529768
20
90.536011750805145
42
-0.41421356237315055
0
LWPOLYLINE
5
177
100
AcDbEntity
8
0
100
AcDbPolyline
90
8
70
1
43
0.0
10
-104.16594053079871
20
-34.496191154714843
10
-116.51692290451889
20
-34.496191154160364
42
0.41421356237308288
10
-117.26692290455254
20
-35.246191154126691
10
-117.26692290510704
20
-47.59717352784817
42
0.41421356237307771
10
-116.5169229051407
20
-48.34717352788185
10
-104.16594053142049
20
-48.347173528436286
42
0.41421356237310542
10
-103.41594053138684
20
-47.597173528469966
10
-103.41594053083236
20
-35.246191154748516
42
0.41421356237309331
0
LWPOLYLINE
5
178
100
AcDbEntity
8
0
100
AcDbPolyline
90
8
70
1
43
0.0
10
-107.02977450253411
20
-88.708885718449523
10
-95.096400032830871
20
-85.524338755108985
42
0.41421356237300255
10
-94.56513697769644
20
-84.606319383718073
10
-97.749683941034178
20
-72.672944914012319
42
0.41421356237313967
10
-98.667703312425274
20
-72.141681858877732
10
-110.60107778212733
20
-75.326228822217075
42
0.414213562373005
10
-111.13234083726184
20
-76.244248193607902
10
-107.94779387392525
20
-88.17762266331485
42
0.41421356237320944
0
SPLINE
5
179
100
AcDbEntity
8
0
100
AcDbSpline
70
2
71
3
72
14
73
10
74
0
42
0.000000001
43
0.0000000001
44
0.0000000001
40
0
40
0
40
0
40
0
40
1
40
1
40
2
40
2
40
3
40
3
40
4
40
4
40
4
40
4
10
-82.653814789580977
20
38.071047344116963
30
0
10
-82.653814789580977
20
38.67860365954845
30
0
10
-82.16129308254979
20
39.171125366584789
30
0
10
-80.946180451690637
20
39.171125366584789
30
0
10
-80.453658744656892
20
38.67860365954845
30
0
10
-80.453658744656892
20
37.463491028686732
30
0
10
-80.946180451690637
20
36.970969321661961
30
0
10
-82.16129308254979
20
36.970969321661961
30
0
10
-82.653814789580977
20
37.463491028686732
30
0
10
-82.653814789580977
20
38.071047344116963
30
0
0
LWPOLYLINE
5
180
100
AcDbEntity
8
0
100
AcDbPolyline
90
8
70
1
43
0.0
10
66.43587116018422
20
57.28365334459135
10
78.786853533901862
20
57.28365334459135
42
-0.4142135623730881
10
79.536853533901862
20
56.53365334459135
10
79.536853533901862
20
44.1826709708699
42
-0.41421356237309509
10
78.786853533901862
20
43.4326709708699
10
66.43587116018422
20
43.4326709708699
42
-0.4142135623730881
10
65.68587116018422
20
44.1826709708699
10
65.68587116018422
20
56.53365334459135
42
-0.41421356237308121
0
LWPOLYLINE
5
181
100
AcDbEntity
8
0
100
AcDbPolyline
90
8
70
1
43
0.0
10
116.7895488552977
20
57.683681716386424
10
104.43856648157745
20
57.683681716386424
42
-0.41421356237308465
10
103.68856648157745
20
58.433681716386431
10
103.68856648157745
20
70.784664090107881
42
-0.4142135623730881
10
104.43856648157745
20
71.534664090107881
10
116.78954885529768
20
71.534664090107867
42
-0.4142135623730881
10
117.53954885529765
20
70.784664090107881
10
117.53954885529767
20
58.433681716386431
42
-0.41421356237307771
0
LWPOLYLINE
5
182
100
AcDbEntity
8
0
100
AcDbPolyline
90
8
70
1
43
0.0
10
-75.663919041381433
20
-70.748762350740947
10
-88.014901415099075
20
-70.748762350185871
42
0.41421356237310886
10
-88.764901415132755
20
-71.498762350152163
10
-88.764901415687817
20
-83.849744723871126
42
0.41421356237310197
10
-88.014901415721511
20
-84.59974472390482
10
-75.663919042003883
20
-84.599744724459839
42
0.41421356237309509
10
-74.913919041970175
20
-83.849744724493519
10
-74.913919041415156
20
-71.498762350774655
42
0.41421356237309509
0
SPLINE
5
183
100
AcDbEntity
8
0
100
AcDbSpline
70
2
71
3
72
14
73
10
74
0
42
0.000000001
43
0.0000000001
44
0.0000000001
40
0
40
0
40
0
40
0
40
1
40
1
40
2
40
2
40
3
40
3
40
4
40
4
40
4
40
4
10
126.16998211798104
20
-33.246044433690841
30
0
10
126.16998211800804
20
-32.638488118263183
30
0
10
125.67746041099609
20
-32.145966411204434
30
0
10
124.46234778013688
20
-32.145966411149871
30
0
10
123.96982607308391
20
-32.638488118164382
30
0
10
123.96982607303001
20
-33.853600749018412
30
0
10
124.4623477800381
20
-34.346122456072699
30
0
10
125.67746041089723
20
-34.346122456127226
30
0
10
126.16998211795406
20
-33.853600749117241
30
0
10
126.16998211798104
20
-33.246044433690841
30
0
0
SPLINE
5
184
100
AcDbEntity
8
0
100
AcDbSpline
70
2
71
3
72
14
73
10
74
0
42
0.000000001
43
0.0000000001
44
0.0000000001
40
0
40
0
40
0
40
0
40
1
40
1
40
2
40
2
40
3
40
3
40
4
40
4
40
4
40
4
10
24.007031075653376
20
52.712676745336218
30
0
10
24.007031075653376
20
53.320233060762583
30
0
10
24.499552782687118
20
53.812754767802744
30
0
10
25.714665413543734
20
53.812754767802744
30
0
10
26.207187120576179
20
53.320233060762583
30
0
10
26.207187120576179
20
52.105120429904716
30
0
10
25.714665413543734
20
51.612598722876101
30
0
10
24.499552782687118
20
51.612598722876101
30
0
10
24.007031075653376
20
52.105120429904716
30
0
10
24.007031075653376
20
52.712676745336218
30
0
0
SPLINE
5
185
100
AcDbEntity
8
0
100
AcDbSpline
70
2
71
3
72
14
73
10
74
0
42
0.000000001
43
0.0000000001
44
0.0000000001
40
0
40
0
40
0
40
0
40
1
40
1
40
2
40
2
40
3
40
3
40
4
40
4
40
4
40
4
10
-125.90615157622672
20
55.18077630666248
30
0
10
-125.90615157622672
20
55.78833262209271
30
0
10
-125.41362986919552
20
56.280854329125162
30
0
10
-124.19851723833798
20
56.280854329125162
30
0
10
-123.70599553130262
20
55.78833262209271
30
0
10
-123.70599553130262
20
54.57321999123095
30
0
10
-124.19851723833798
20
54.080698284202342
30
0
10
-125.41362986919552
20
54.080698284202342
30
0
10
-125.90615157622672
20
54.57321999123095
30
0
10
-125.90615157622672
20
55.18077630666248
30
0
0
ARC
5
186
100
AcDbEntity
8
0
100
AcDbCircle
10
61.84304354856372
20
-72.433669246282321
30
0
40
0.50003546475469318
210
0
220
0
230
-1
100
AcDbArc
50
45.000000003544592
51
90.000000003255025
0
LINE
5
187
100
AcDbEntity
8
0
100
AcDbLine
10
-61.843043548535313
20
-71.933633781527632
30
0
11
-25.840490086167339
21
-71.933633783144103
31
0
0
LINE
5
188
100
AcDbEntity
8
0
100
AcDbLine
10
-25.840490086167339
20
-71.933633783144103
30
0
11
-23.840348227147192
21
-71.93363378323393
31
0
0
LINE
5
189
100
AcDbEntity
8
0
100
AcDbLine
10
-23.840348227147192
20
-71.93363378323393
30
0
11
-6.8391424254688093
21
-71.933633783996939
31
0
0
SPLINE
5
190
100
AcDbEntity
8
0
100
AcDbSpline
70
0
71
3
72
8
73
4
74
0
42
0.000000001
43
0.0000000001
44
0.0000000001
40
4
40
4
40
4
40
4
40
5
40
5
40
5
40
5
10
-6.8391424254688102
20
-71.933633783996939
30
0
10
-6.5629804639099678
20
-71.933633784009729
30
0
10
-6.3391069607025443
20
-71.709760280817051
30
0
10
-6.3391069606903514
20
-71.433598319260796
30
0
0
LINE
5
191
100
AcDbEntity
8
0
100
AcDbLine
10
-6.3391069606903514
20
-71.433598319260796
30
0
11
-6.3391069582095403
21
-16.179679463813741
31
0
0
SPLINE
5
192
100
AcDbEntity
8
0
100
AcDbSpline
70
0
71
3
72
8
73
4
74
0
42
0.000000001
43
0.0000000001
44
0.0000000001
40
6
40
6
40
6
40
6
40
7
40
7
40
7
40
7
10
-6.3391069582095403
20
-16.179679463813741
30
0
10
-6.3391069581970285
20
-15.903517502251049
30
0
10
-6.5629804613842406
20
-15.679643999050679
30
0
10
-6.8391424229430839
20
-15.679643999037847
30
0
0
LINE
5
193
100
AcDbEntity
8
0
100
AcDbLine
10
-6.8391424229430839
20
-15.679643999037847
30
0
11
-23.840348224616335
21
-15.679643998274868
31
0
0
LINE
5
194
100
AcDbEntity
8
0
100
AcDbLine
10
-23.840348224616335
20
-15.679643998274868
30
0
11
-25.840490083641619
21
-15.679643998185028
31
0
0
LINE
5
195
100
AcDbEntity
8
0
100
AcDbLine
10
-25.840490083641619
20
-15.679643998185028
30
0
11
-43.841766814823032
21
-15.679643997376489
31
0
0
SPLINE
5
196
100
AcDbEntity
8
0
100
AcDbSpline
70
0
71
3
72
8
73
4
74
0
42
0.000000001
43
0.0000000001
44
0.0000000001
40
10
40
10
40
10
40
10
40
11
40
11
40
11
40
11
10
-43.841766814823032
20
-15.679643997376489
30
0
10
-44.117928776386037
20
-15.679643997364296
30
0
10
-44.341802279570366
20
-15.455770494151739
30
0
10
-44.341802279557555
20
-15.179608532596745
30
0
0
LINE
5
197
100
AcDbEntity
8
0
100
AcDbLine
10
-44.341802279557555
20
-15.179608532596745
30
0
11
-44.341802279389427
21
-11.429342546934432
31
0
0
SPLINE
5
198
100
AcDbEntity
8
0
100
AcDbSpline
70
0
71
3
72
8
73
4
74
0
42
0.000000001
43
0.0000000001
44
0.0000000001
40
12
40
12
40
12
40
12
40
13
40
13
40
13
40
13
10
-44.341802279389427
20
-11.429342546934432
30
0
10
-44.341802279377234
20
-11.153180585374304
30
0
10
-44.565675782564107
20
-10.929307082163671
30
0
10
-44.841837744124248
20
-10.929307082151478
30
0
0
LINE
5
199
100
AcDbEntity
8
0
100
AcDbLine
10
-44.841837744124248
20
-10.929307082151478
30
0
11
-62.843114475309832
21
-10.929307081342937
31
0
0
SPLINE
5
200
100
AcDbEntity
8
0
100
AcDbSpline
70
0
71
3
72
8
73
4
74
0
42
0.000000001
43
0.0000000001
44
0.0000000001
40
14
40
14
40
14
40
14
40
15
40
15
40
15
40
15
10
-62.843114475309832
20
-10.929307081342937
30
0
10
-63.119276436867366
20
-10.929307081330746
30
0
10
-63.3431499400562
20
-10.705433578129737
30
0
10
-63.34314994004334
20
-10.429271616570894
30
0
0
LINE
5
201
100
AcDbEntity
8
0
100
AcDbLine
10
-63.34314994004334
20
-10.429271616570894
30
0
11
-63.343149939987541
21
-9.1791829546808916
31
0
0
SPLINE
5
202
100
AcDbEntity
8
0
100
AcDbSpline
70
0
71
3
72
8
73
4
74
0
42
0.000000001
43
0.0000000001
44
0.0000000001
40
16
40
16
40
16
40
16
40
17
40
17
40
17
40
17
10
-63.343149939987541
20
-9.1791829546808916
30
0
10
-63.34314993997468
20
-8.903020993120764
30
0
10
-63.567023443159989
20
-8.6791474899197549
30
0
10
-63.843185404714653
20
-8.679147489907562
30
0
0
LINE
5
203
100
AcDbEntity
8
0
100
AcDbLine
10
-63.843185404714653
20
-8.679147489907562
30
0
11
-80.844391206396864
21
-8.6791474891445848
31
0
0
SPLINE
5
204
100
AcDbEntity
8
0
100
AcDbSpline
70
0
71
3
72
8
73
4
74
0
42
0.000000001
43
0.0000000001
44
0.0000000001
40
18
40
18
40
18
40
18
40
19
40
19
40
19
40
19
10
-80.844391206396864
20
-8.6791474891445848
30
0
10
-81.120553167953148
20
-8.6791474891317471
30
0
10
-81.344426671156413
20
-8.9030209923128663
30
0
10
-81.344426671168932
20
-9.1791829538729921
30
0
0
LINE
5
205
100
AcDbEntity
8
0
100
AcDbLine
10
-81.344426671168932
20
-9.1791829538729921
30
0
11
-81.344426671224767
21
-10.429271615762996
31
0
0
SPLINE
5
206
100
AcDbEntity
8
0
100
AcDbSpline
70
0
71
3
72
8
73
4
74
0
42
0.000000001
43
0.0000000001
44
0.0000000001
40
20
40
20
40
20
40
20
40
21
40
21
40
21
40
21
10
-81.344426671224767
20
-10.429271615762996
30
0
10
-81.344426671237912
20
-10.705433577321839
30
0
10
-81.568300174445682
20
-10.929307080502312
30
0
10
-81.844462136002903
20
-10.929307080490121
30
0
0
LINE
5
207
100
AcDbEntity
8
0
100
AcDbLine
10
-81.844462136002903
20
-10.929307080490121
30
0
11
-99.845738867189766
21
-10.92930707968158
31
0
0
SPLINE
5
208
100
AcDbEntity
8
0
100
AcDbSpline
70
0
71
3
72
8
73
4
74
0
42
0.000000001
43
0.0000000001
44
0.0000000001
40
22
40
22
40
22
40
22
40
23
40
23
40
23
40
23
10
-99.845738867189766
20
-10.92930707968158
30
0
10
-100.12190082874766
20
-10.929307079669389
30
0
10
-100.34577433195858
20
-11.153180582860129
30
0
10
-100.34577433197079
20
-11.429342544420255
30
0
0
LINE
5
209
100
AcDbEntity
8
0
100
AcDbLine
10
-100.34577433197079
20
-11.429342544420255
30
0
11
-100.34577433203816
21
-12.929448938681844
31
0
0
SPLINE
5
210
100
AcDbEntity
8
0
100
AcDbSpline
70
0
71
3
72
8
73
4
74
0
42
0.000000001
43
0.0000000001
44
0.0000000001
40
24
40
24
40
24
40
24
40
25
40
25
40
25
40
25
10
-100.34577433203816
20
-12.929448938681844
30
0
10
-100.34577433205067
20
-13.205610900244537
30
0
10
-100.56964783525265
20
-13.429484403429504
30
0
10
-100.84580979681662
20
-13.429484403416668
30
0
0
LINE
5
211
100
AcDbEntity
8
0
100
AcDbLine
10
-100.84580979681662
20
-13.429484403416668
30
0
11
-118.84708652799419
21
-13.429484402608772
31
0
0
SPLINE
5
212
100
AcDbEntity
8
0
100
AcDbSpline
70
0
71
3
72
8
73
4
74
0
42
0.000000001
43
0.0000000001
44
0.0000000001
40
26
40
26
40
26
40
26
40
27
40
27
40
27
40
27
10
-118.84708652799419
20
-13.429484402608772
30
0
10
-119.12324848955944
20
-13.429484402595937
30
0
10
-119.34712199276431
20
-13.653357905783469
30
0
10
-119.34712199277649
20
-13.929519867343597
30
0
0
LINE
5
213
100
AcDbEntity
8
0
100
AcDbLine
10
-119.34712199277649
20
-13.929519867343597
30
0
11
-119.34712199283229
21
-15.164113705748898
31
0
0
LINE
5
214
100
AcDbEntity
8
0
100
AcDbLine
10
-119.34712199283229
20
-15.164113705748898
30
0
11
-119.34642646823835
21
-31.424874652512173
31
0
0
LINE
5
215
100
AcDbEntity
8
0
100
AcDbLine
10
-119.34642646823835
20
-31.424874652512173
30
0
11
-119.34663050604527
21
-63.717700162077747
31
0
0
ARC
5
216
100
AcDbEntity
8
0
100
AcDbCircle
10
121.1389295121529
20
-63.334091113972939
30
0
40
1.8328916032003206
210
0
220
0
230
-1
100
AcDbArc
50
192.08084884689001
51
228.53460963479085
0
LINE
5
217
100
AcDbEntity
8
0
100
AcDbLine
10
-119.9252482264931
20
-64.70757914301484
30
0
11
-139.00219746130054
21
-75.744956874378872
31
0
0
SPLINE
5
218
100
AcDbEntity
8
0
100
AcDbSpline
70
0
71
3
72
8
73
4
74
0
42
0.000000001
43
0.0000000001
44
0.0000000001
40
32
40
32
40
32
40
32
40
33
40
33
40
33
40
33
10
-139.00219746130054
20
-75.744956874378872
30
0
10
-139.52961491610307
20
-76.141336339967324
30
0
10
-139.69170268395607
20
-76.861726419147033
30
0
10
-139.38488894300696
20
-77.445807903824203
30
0
0
LINE
5
219
100
AcDbEntity
8
0
100
AcDbLine
10
-139.38488894300696
20
-77.445807903824203
30
0
11
-126.14760431733502
21
-100.48565881615419
31
0
0
SPLINE
5
220
100
AcDbEntity
8
0
100
AcDbSpline
70
0
71
3
72
11
73
7
74
0
42
0.000000001
43
0.0000000001
44
0.0000000001
40
34
40
34
40
34
40
34
40
35
40
35
40
35
40
36
40
36
40
36
40
36
10
-126.14760431733502
20
-100.48565881615419
30
0
10
-126.14285956165494
20
-100.49281040315702
30
0
10
-126.13800949498909
20
-100.49989155995108
30
0
10
-126.13305570246123
20
-100.50689997223469
30
0
10
-125.85504842023981
20
-100.90021270005842
30
0
10
-125.3108360255776
20
-100.99368623240125
30
0
10
-124.91752329774678
20
-100.71567895017431
30
0
0
LINE
5
221
100
AcDbEntity
8
0
100
AcDbLine
10
-124.91752329774678
20
-100.71567895017431
30
0
11
-110.16785409133328
21
-92.226154623085847
31
0
0
ARC
5
222
100
AcDbEntity
8
0
100
AcDbCircle
10
109.5929220188056
20
-93.879827734002788
30
0
40
1.7507660168596626
210
0
220
0
230
-1
100
AcDbArc
50
70.828984446211592
51
80.306600002027125
0
LINE
5
223
100
AcDbEntity
8
0
100
AcDbLine
10
-109.88770870619989
20
-92.154057629172556
30
0
11
-73.093841506193428
21
-86.684679991295155
31
0
0
ARC
5
224
100
AcDbEntity
8
0
100
AcDbCircle
10
-73.158140823294076
20
-86.051280635404311
30
0
40
0.63665465224291418
210
0
220
0
230
1
100
AcDbArc
50
275.79650428821674
51
310.60067673486645
0
SPLINE
5
225
100
AcDbEntity
8
0
100
AcDbSpline
70
0
71
3
72
8
73
4
74
0
42
0.000000001
43
0.0000000001
44
0.0000000001
40
40
40
40
40
40
40
40
40
41
40
41
40
41
40
41
10
-72.743816680857392
20
-86.534669351880652
30
0
10
-72.74378720849397
20
-86.53462896153782
30
0
10
-62.193068373872002
20
-72.075416961882667
30
0
10
-62.196622016503653
20
-72.08009077829864
30
0
0
LWPOLYLINE
5
226
100
AcDbEntity
8
0
100
AcDbPolyline
90
8
70
1
43
0.0
10
-116.51692290428787
20
-29.345825867178171
10
-104.16594053056767
20
-29.345825867732639
42
0.41421356237309331
10
-103.415940530534
20
-28.595825867766315
10
-103.41594052997955
20
-16.244843494051239
42
0.41421356237309243
10
-104.1659405299459
20
-15.494843494017571
10
-116.51692290366606
20
-15.494843493463105
42
0.41421356237308382
10
-117.26692290369971
20
-16.244843493429435
10
-117.2669229042542
20
-28.595825867144494
42
0.41421356237307599
0
SPLINE
5
227
100
AcDbEntity
8
0
100
AcDbSpline
70
2
71
3
72
14
73
10
74
0
42
0.000000001
43
0.0000000001
44
0.0000000001
40
0
40
0
40
0
40
0
40
1
40
1
40
2
40
2
40
3
40
3
40
4
40
4
40
4
40
4
10
-36.133835929093664
20
30.316537717716304
30
0
10
-36.133835929093664
20
30.924094033147824
30
0
10
-35.64131422206377
20
31.416615740184135
30
0
10
-34.426201591203309
20
31.416615740184135
30
0
10
-33.933679884170843
20
30.924094033147824
30
0
10
-33.933679884170843
20
29.708981402293798
30
0
10
-34.426201591203309
20
29.216459695260038
30
0
10
-35.64131422206377
20
29.216459695260038
30
0
10
-36.133835929093664
20
29.708981402293798
30
0
10
-36.133835929093664
20
30.316537717716304
30
0
0
ARC
5
228
100
AcDbEntity
8
0
100
AcDbCircle
10
-88.070139103317402
20
-71.375335919762222
30
0
40
0.50003546475949134
210
0
220
0
230
-1
100
AcDbArc
50
45.000000003358643
51
90.000000003101974
0
LINE
5
229
100
AcDbEntity
8
0
100
AcDbLine
10
88.070139103344474
20
-70.87530045500273
30
0
11
124.07269256571627
21
-70.875300456619172
31
0
0
LINE
5
230
100
AcDbEntity
8
0
100
AcDbLine
10
124.07269256571627
20
-70.875300456619172
30
0
11
126.07283442473515
21
-70.875300456708999
31
0
0
LINE
5
231
100
AcDbEntity
8
0
100
AcDbLine
10
126.07283442473515
20
-70.875300456708999
30
0
11
143.07404022641094
21
-70.875300457471994
31
0
0
SPLINE
5
232
100
AcDbEntity
8
0
100
AcDbSpline
70
0
71
3
72
8
73
4
74
0
42
0.000000001
43
0.0000000001
44
0.0000000001
40
4
40
4
40
4
40
4
40
5
40
5
40
5
40
5
10
143.07404022641094
20
-70.875300457471994
30
0
10
143.35020218796981
20
-70.875300457484812
30
0
10
143.57407569117723
20
-70.651426954292148
30
0
10
143.5740756911888
20
-70.375264992739744
30
0
0
LINE
5
233
100
AcDbEntity
8
0
100
AcDbLine
10
143.5740756911888
20
-70.375264992739744
30
0
11
143.57407569366958
21
-15.121346137292688
31
0
0
SPLINE
5
234
100
AcDbEntity
8
0
100
AcDbSpline
70
0
71
3
72
8
73
4
74
0
42
0.000000001
43
0.0000000001
44
0.0000000001
40
6
40
6
40
6
40
6
40
7
40
7
40
7
40
7
10
143.57407569366958
20
-15.121346137292687
30
0
10
143.57407569368243
20
-14.845184175733841
30
0
10
143.35020219049554
20
-14.621310672525773
30
0
10
143.0740402289367
20
-14.621310672512939
30
0
0
LINE
5
235
100
AcDbEntity
8
0
100
AcDbLine
10
143.0740402289367
20
-14.621310672512939
30
0
11
126.07283442726086
21
-14.62131067174996
31
0
0
LINE
5
236
100
AcDbEntity
8
0
100
AcDbLine
10
126.07283442726086
20
-14.62131067174996
30
0
11
124.07269256824199
21
-14.621310671660124
31
0
0
LINE
5
237
100
AcDbEntity
8
0
100
AcDbLine
10
124.07269256824199
20
-14.621310671660124
30
0
11
106.07141583705288
21
-14.621310670852223
31
0
0
SPLINE
5
238
100
AcDbEntity
8
0
100
AcDbSpline
70
0
71
3
72
8
73
4
74
0
42
0.000000001
43
0.0000000001
44
0.0000000001
40
10
40
10
40
10
40
10
40
11
40
11
40
11
40
11
10
106.07141583705288
20
-14.621310670852223
30
0
10
105.79525387549792
20
-14.621310670839389
30
0
10
105.57138037231101
20
-14.397437167635175
30
0
10
105.57138037232383
20
-14.121275206072479
30
0
0
LINE
5
239
100
AcDbEntity
8
0
100
AcDbLine
10
105.57138037232383
20
-14.121275206072479
30
0
11
105.57138037249197
21
-10.371009220410167
31
0
0
SPLINE
5
240
100
AcDbEntity
8
0
100
AcDbSpline
70
0
71
3
72
8
73
4
74
0
42
0.000000001
43
0.0000000001
44
0.0000000001
40
12
40
12
40
12
40
12
40
13
40
13
40
13
40
13
10
105.57138037249197
20
-10.371009220410167
30
0
10
105.57138037250481
20
-10.094847258853893
30
0
10
105.3475068693192
20
-9.8709737556426163
30
0
10
105.0713449077578
20
-9.8709737556304251
30
0
0
LINE
5
241
100
AcDbEntity
8
0
100
AcDbLine
10
105.0713449077578
20
-9.8709737556304251
30
0
11
87.070068176573841
21
-9.8709737548218808
31
0
0
SPLINE
5
242
100
AcDbEntity
8
0
100
AcDbSpline
70
0
71
3
72
8
73
4
74
0
42
0.000000001
43
0.0000000001
44
0.0000000001
40
14
40
14
40
14
40
14
40
15
40
15
40
15
40
15
10
87.070068176573841
20
-9.8709737548218808
30
0
10
86.793906215013678
20
-9.8709737548096896
30
0
10
86.570032711826798
20
-9.6471002516086841
30
0
10
86.570032711839616
20
-9.3709382900485547
30
0
0
LINE
5
243
100
AcDbEntity
8
0
100
AcDbLine
10
86.570032711839616
20
-9.3709382900485547
30
0
11
86.57003271189609
21
-8.1208496281559857
31
0
0
SPLINE
5
244
100
AcDbEntity
8
0
100
AcDbSpline
70
0
71
3
72
8
73
4
74
0
42
0.000000001
43
0.0000000001
44
0.0000000001
40
16
40
16
40
16
40
16
40
17
40
17
40
17
40
17
10
86.57003271189609
20
-8.1208496281559857
30
0
10
86.570032711907658
20
-7.8446876665997056
30
0
10
86.346159208722042
20
-7.6208141633954902
30
0
10
86.069997247163201
20
-7.6208141633826587
30
0
0
LINE
5
245
100
AcDbEntity
8
0
100
AcDbLine
10
86.069997247163201
20
-7.6208141633826587
30
0
11
69.068791445487378
21
-7.620814162619677
31
0
0
SPLINE
5
246
100
AcDbEntity
8
0
100
AcDbSpline
70
0
71
3
72
8
73
4
74
0
42
0.000000001
43
0.0000000001
44
0.0000000001
40
18
40
18
40
18
40
18
40
19
40
19
40
19
40
19
10
69.068791445487378
20
-7.620814162619677
30
0
10
68.792629483927243
20
-7.6208141626068437
30
0
10
68.568755980719828
20
-7.8446876657918096
30
0
10
68.568755980708275
20
-8.1208496273480826
30
0
0
LINE
5
247
100
AcDbEntity
8
0
100
AcDbLine
10
68.568755980708275
20
-8.1208496273480826
30
0
11
68.568755980651815
21
-9.3709382892406552
31
0
0
SPLINE
5
248
100
AcDbEntity
8
0
100
AcDbSpline
70
0
71
3
72
8
73
4
74
0
42
0.000000001
43
0.0000000001
44
0.0000000001
40
20
40
20
40
20
40
20
40
21
40
21
40
21
40
21
10
68.568755980651815
20
-9.3709382892406552
30
0
10
68.568755980638954
20
-9.6471002508007828
30
0
10
68.344882477435377
20
-9.870973753981259
30
0
10
68.068720515876564
20
-9.8709737539690661
30
0
0
LINE
5
249
100
AcDbEntity
8
0
100
AcDbLine
10
68.068720515876564
20
-9.8709737539690661
30
0
11
50.067443784689381
21
-9.8709737531605217
31
0
0
SPLINE
5
250
100
AcDbEntity
8
0
100
AcDbSpline
70
0
71
3
72
8
73
4
74
0
42
0.000000001
43
0.0000000001
44
0.0000000001
40
22
40
22
40
22
40
22
40
23
40
23
40
23
40
23
10
50.067443784689381
20
-9.8709737531605217
30
0
10
49.791281823129232
20
-9.8709737531483306
30
0
10
49.567408319922123
20
-10.094847256339072
30
0
10
49.56740831990993
20
-10.371009217895349
30
0
0
LINE
5
251
100
AcDbEntity
8
0
100
AcDbLine
10
49.56740831990993
20
-10.371009217895349
30
0
11
49.567408319842571
21
-11.871115612159503
31
0
0
SPLINE
5
252
100
AcDbEntity
8
0
100
AcDbSpline
70
0
71
3
72
8
73
4
74
0
42
0.000000001
43
0.0000000001
44
0.0000000001
40
24
40
24
40
24
40
24
40
25
40
25
40
25
40
25
10
49.567408319842571
20
-11.871115612159503
30
0
10
49.567408319833589
20
-12.147277573723482
30
0
10
49.343534816625194
20
-12.371151076904596
30
0
10
49.067372855066353
20
-12.371151076891762
30
0
0
LINE
5
253
100
AcDbEntity
8
0
100
AcDbLine
10
49.067372855066353
20
-12.371151076891762
30
0
11
31.066096123881103
21
-12.371151076083862
31
0
0
SPLINE
5
254
100
AcDbEntity
8
0
100
AcDbSpline
70
0
71
3
72
8
73
4
74
0
42
0.000000001
43
0.0000000001
44
0.0000000001
40
26
40
26
40
26
40
26
40
27
40
27
40
27
40
27
10
31.066096123881103
20
-12.371151076083862
30
0
10
30.789934162323533
20
-12.371151076071671
30
0
10
30.566060659116108
20
-12.595024579262413
30
0
10
30.566060659103908
20
-12.871186540818693
30
0
0
LINE
5
255
100
AcDbEntity
8
0
100
AcDbLine
10
30.566060659103908
20
-12.871186540818693
30
0
11
30.566060659048418
21
-14.105780379223994
31
0
0
SPLINE
5
256
100
AcDbEntity
8
0
100
AcDbSpline
70
0
71
3
72
8
73
4
74
0
42
0.000000001
43
0.0000000001
44
0.0000000001
40
28
40
28
40
28
40
28
40
29
40
29
40
29
40
29
10
30.566060659048418
20
-14.105780379223994
30
0
10
30.53764404405878
20
-14.373902400144825
30
0
10
30.331821408733926
20
-14.589048060059762
30
0
10
30.065220318830669
20
-14.629306984236027
30
0
0
LINE
5
257
100
AcDbEntity
8
0
100
AcDbLine
10
30.065220318830669
20
-14.629306984236027
30
0
11
10.313819461003247
21
-14.629306983349199
31
0
0
SPLINE
5
258
100
AcDbEntity
8
0
100
AcDbSpline
70
0
71
3
72
8
73
4
74
0
42
0.000000001
43
0.0000000001
44
0.0000000001
40
30
40
30
40
30
40
30
40
31
40
31
40
31
40
31
10
10.313819461003247
20
-14.629306983349199
30
0
10
10.03765749944697
20
-14.629306983337006
30
0
10
9.813783996239545
20
-14.853180486525183
30
0
10
9.8137839962273539
20
-15.12934244808531
30
0
0
LINE
5
259
100
AcDbEntity
8
0
100
AcDbLine
10
9.8137839962273539
20
-15.12934244808531
30
0
11
9.8137290203154741
21
-74.090123622060503
31
0
0
ARC
5
260
100
AcDbEntity
8
0
100
AcDbCircle
10
14.700932847384834
20
-73.829818932252095
30
0
40
4.8941311566873216
210
0
220
0
230
1
100
AcDbArc
50
183.04883551267767
51
211.50657898784678
0
LINE
5
261
100
AcDbEntity
8
0
100
AcDbLine
10
10.528293708875998
20
-76.387474577299315
30
0
11
23.765578334547975
21
-99.427325489633134
31
0
0
SPLINE
5
262
100
AcDbEntity
8
0
100
AcDbSpline
70
0
71
3
72
11
73
7
74
0
42
0.000000001
43
0.0000000001
44
0.0000000001
40
34
40
34
40
34
40
34
40
35
40
35
40
35
40
36
40
36
40
36
40
36
10
23.765578334547975
20
-99.427325489633134
30
0
10
23.770323090228388
20
-99.434477076632106
30
0
10
23.775173156892588
20
-99.441558233428736
30
0
10
23.780126949418182
20
-99.448566645713612
30
0
10
24.058134231638995
20
-99.841879373534169
30
0
10
24.602346626304403
20
-99.935352905879554
30
0
10
24.995659354129749
20
-99.657345623655814
30
0
0
LINE
5
263
100
AcDbEntity
8
0
100
AcDbLine
10
24.995659354129749
20
-99.657345623655814
30
0
11
39.745328560545829
21
-91.16782129656093
31
0
0
ARC
5
264
100
AcDbEntity
8
0
100
AcDbCircle
10
-40.320260633013788
20
-92.821494407338193
30
0
40
1.7507660167081358
210
0
220
0
230
-1
100
AcDbArc
50
70.828984446556746
51
80.30660000316422
0
LINE
5
265
100
AcDbEntity
8
0
100
AcDbLine
10
40.025473945679259
20
-91.095724302651476
30
0
11
76.819341145688881
21
-85.626346664770239
31
0
0
ARC
5
266
100
AcDbEntity
8
0
100
AcDbCircle
10
76.755041828589754
20
-84.992947308865809
30
0
40
0.63665465225628126
210
0
220
0
230
1
100
AcDbArc
50
275.79650428795713
51
310.60067673385163
0
SPLINE
5
267
100
AcDbEntity
8
0
100
AcDbSpline
70
0
71
3
72
8
73
4
74
0
42
0.000000001
43
0.0000000001
44
0.0000000001
40
40
40
40
40
40
40
40
40
41
40
41
40
41
40
41
10
77.169365971026579
20
-85.476336025359643
30
0
10
77.169395443390002
20
-85.476295635016797
30
0
10
87.720114278008069
20
-71.017083635361601
30
0
10
87.716560635372929
20
-71.021757451776296
30
0
0
SPLINE
5
268
100
AcDbEntity
8
0
100
AcDbSpline
70
2
71
3
72
14
73
10
74
0
42
0.000000001
43
0.0000000001
44
0.0000000001
40
0
40
0
40
0
40
0
40
1
40
1
40
2
40
2
40
3
40
3
40
4
40
4
40
4
40
4
10
100.03764891095867
20
75.350221091219737
30
0
10
100.03764891095867
20
75.957777406647409
30
0
10
100.53017061799238
20
76.450299113675996
30
0
10
101.7452832488554
20
76.450299113675996
30
0
10
102.23780495588146
20
75.957777406647409
30
0
10
102.23780495588146
20
74.74266477578567
30
0
10
101.7452832488554
20
74.250143068753204
30
0
10
100.53017061799238
20
74.250143068753204
30
0
10
100.03764891095867
20
74.74266477578567
30
0
10
100.03764891095867
20
75.350221091219737
30
0
0
LWPOLYLINE
5
269
100
AcDbEntity
8
0
100
AcDbPolyline
90
8
70
1
43
0.0
10
75.186544990532866
20
22.181110521643038
10
75.186544990532866
20
34.532092895361956
42
-0.4142135623730881
10
75.936544990532866
20
35.282092895361956
10
88.287527364250508
20
35.282092895361949
42
-0.41421356237309681
10
89.037527364250494
20
34.532092895361956
10
89.037527364250494
20
22.181110521643042
42
-0.41421356237309681
10
88.287527364250508
20
21.431110521643046
10
75.936544990532866
20
21.431110521643035
42
-0.41421356237308982
0
SPLINE
5
270
100
AcDbEntity
8
0
100
AcDbSpline
70
2
71
3
72
14
73
10
74
0
42
0.000000001
43
0.0000000001
44
0.0000000001
40
0
40
0
40
0
40
0
40
1
40
1
40
2
40
2
40
3
40
3
40
4
40
4
40
4
40
4
10
113.77934672279027
20
27.848438156390067
30
0
10
113.77934672279027
20
28.455994471821562
30
0
10
114.2718684298176
20
28.948516178854039
30
0
10
115.48698106067805
20
28.948516178854039
30
0
10
115.97950276770536
20
28.455994471821562
30
0
10
115.97950276770536
20
27.240881840967539
30
0
10
115.48698106067805
20
26.748360133931236
30
0
10
114.2718684298176
20
26.748360133931236
30
0
10
113.77934672279027
20
27.240881840967539
30
0
10
113.77934672279027
20
27.848438156390067
30
0
0
SPLINE
5
271
100
AcDbEntity
8
0
100
AcDbSpline
70
2
71
3
72
14
73
10
74
0
42
0.000000001
43
0.0000000001
44
0.0000000001
40
0
40
0
40
0
40
0
40
1
40
1
40
2
40
2
40
3
40
3
40
4
40
4
40
4
40
4
10
-99.765022960008508
20
-30.680634153800916
30
0
10
-99.765022959981565
20
-30.073077838373251
30
0
10
-100.25754466699289
20
-29.580556131322201
30
0
10
-101.47265729785586
20
-29.580556131267638
30
0
10
-101.96517900490437
20
-30.07307783827445
30
0
10
-101.96517900495893
20
-31.288190469136175
30
0
10
-101.47265729795438
20
-31.780712176190459
30
0
10
-100.25754466709168
20
-31.780712176245018
30
0
10
-99.765022960036148
20
-31.288190469235012
30
0
10
-99.765022960008508
20
-30.680634153800916
30
0
0
SPLINE
5
272
100
AcDbEntity
8
0
100
AcDbSpline
70
2
71
3
72
14
73
10
74
0
42
0.000000001
43
0.0000000001
44
0.0000000001
40
0
40
0
40
0
40
0
40
1
40
1
40
2
40
2
40
3
40
3
40
4
40
4
40
4
40
4
10
24.015826484689686
20
71.727822371337595
30
0
10
24.015826484689686
20
72.335378686765225
30
0
10
24.508348191718298
20
72.827900393797705
30
0
10
25.723460822580037
20
72.827900393797705
30
0
10
26.215982529613797
20
72.335378686765225
30
0
10
26.215982529613797
20
71.120266055911202
30
0
10
25.723460822580037
20
70.62774434887875
30
0
10
24.508348191718298
20
70.62774434887875
30
0
10
24.015826484689686
20
71.120266055911202
30
0
10
24.015826484689686
20
71.727822371337595
30
0
0
SPLINE
5
273
100
AcDbEntity
8
0
100
AcDbSpline
70
2
71
3
72
14
73
10
74
0
42
0.000000001
43
0.0000000001
44
0.0000000001
40
0
40
0
40
0
40
0
40
1
40
1
40
2
40
2
40
3
40
3
40
4
40
4
40
4
40
4
10
-125.89735616719297
20
74.195921932663808
30
0
10
-125.89735616719297
20
74.803478248091466
30
0
10
-125.40483446015924
20
75.295999955127812
30
0
10
-124.18972182930004
20
75.295999955127812
30
0
10
-123.69720012226918
20
74.803478248091466
30
0
10
-123.69720012226918
20
73.588365617237471
30
0
10
-124.18972182930004
20
73.095843910204991
30
0
10
-125.40483446015924
20
73.095843910204991
30
0
10
-125.89735616719297
20
73.588365617237471
30
0
10
-125.89735616719297
20
74.195921932663808
30
0
0
LWPOLYLINE
5
274
100
AcDbEntity
8
0
100
AcDbPolyline
90
8
70
1
43
0.0
10
-27.410549888705582
20
-49.972341989468404
10
-27.410549888151124
20
-37.621359615745654
42
0.41421356237308637
10
-28.160549888117458
20
-36.871359615711981
10
-40.511532261836678
20
-36.871359615157516
42
0.41421356237309853
10
-41.261532261870357
20
-37.621359615123843
10
-41.261532262424822
20
-49.972341988846608
42
0.41421356237308465
10
-40.511532262458488
20
-50.722341988880288
10
-28.160549888739247
20
-50.722341989434732
42
0.41421356237309853
0
SPLINE
5
275
100
AcDbEntity
8
0
100
AcDbSpline
70
2
71
3
72
14
73
10
74
0
42
0.000000001
43
0.0000000001
44
0.0000000001
40
0
40
0
40
0
40
0
40
1
40
1
40
2
40
2
40
3
40
3
40
4
40
4
40
4
40
4
10
-49.875533740918897
20
77.818320652545992
30
0
10
-49.875533740918897
20
78.425876967977487
30
0
10
-49.383012033887695
20
78.918398675002265
30
0
10
-48.167899403028542
20
78.918398675002265
30
0
10
-47.675377695997341
20
78.425876967977487
30
0
10
-47.675377695997341
20
77.210764337115791
30
0
10
-48.167899403028542
20
76.718242630079445
30
0
10
-49.383012033887695
20
76.718242630079445
30
0
10
-49.875533740918897
20
77.210764337115791
30
0
10
-49.875533740918897
20
77.818320652545992
30
0
0
LWPOLYLINE
5
276
100
AcDbEntity
8
0
100
AcDbPolyline
90
8
70
1
43
0.0
10
-27.410549889558716
20
-68.973689650160566
10
-27.41054988900396
20
-56.622707276442917
42
0.41421356237310542
10
-28.16054988897028
20
-55.87270727640923
10
-40.511532262689521
20
-55.872707275854758
42
0.41421356237308465
10
-41.261532262723193
20
-56.622707275821057
10
-41.261532263277935
20
-68.973689649538713
42
0.4142135623730881
10
-40.511532263311601
20
-69.723689649572407
10
-28.160549889592389
20
-69.723689650126886
42
0.41421356237308121
0
SPLINE
5
277
100
AcDbEntity
8
0
100
AcDbSpline
70
2
71
3
72
14
73
10
74
0
42
0.000000001
43
0.0000000001
44
0.0000000001
40
0
40
0
40
0
40
0
40
1
40
1
40
2
40
2
40
3
40
3
40
4
40
4
40
4
40
4
10
50.148159691869303
20
-29.6236457103955
30
0
10
50.148159691896581
20
-29.016089394963991
30
0
10
49.655637984887228
20
-28.523567687916778
30
0
10
48.440525354028054
20
-28.523567687862212
30
0
10
47.948003646975053
20
-29.016089394865169
30
0
10
47.948003646920831
20
-30.231202025726919
30
0
10
48.440525353929551
20
-30.723723732785039
30
0
10
49.655637984788726
20
-30.723723732839574
30
0
10
50.14815969184238
20
-30.23120202582572
30
0
10
50.148159691869303
20
-29.6236457103955
30
0
0
LWPOLYLINE
5
278
100
AcDbEntity
8
0
100
AcDbPolyline
90
8
70
1
43
0.0
10
-46.411897550047755
20
-64.223352734134693
10
-46.41189754949329
20
-51.872370360420909
42
0.41421356237309853
10
-47.16189754945961
20
-51.122370360387237
10
-59.512879923175966
20
-51.122370359832772
42
0.41421356237309853
10
-60.262879923209638
20
-51.872370359799092
10
-60.26287992376411
20
-64.223352733512868
42
0.41421356237309853
10
-59.51287992379779
20
-64.973352733546534
10
-47.161897550081434
20
-64.973352734101027
42
0.41421356237309509
0
LWPOLYLINE
5
279
100
AcDbEntity
8
0
100
AcDbPolyline
90
8
70
1
43
0.0
10
-65.413245208927094
20
-23.845488954302123
10
-65.413245208372615
20
-11.494506580588341
42
0.41421356237309331
10
-66.16324520833895
20
-10.74450658055467
10
-78.514227582056549
20
-10.744506580000198
42
0.41421356237309681
10
-79.264227582090214
20
-11.494506579966529
10
-79.264227582644708
20
-23.845488953680309
42
0.41421356237310542
10
-78.514227582678373
20
-24.595488953713975
10
-66.16324520896076
20
-24.595488954268447
42
0.41421356237309853
0
LWPOLYLINE
5
280
100
AcDbEntity
8
0
100
AcDbPolyline
90
8
70
1
43
0.0
10
-66.163245210045204
20
-48.747201901937636
10
-78.514227583762874
20
-48.747201901383164
42
0.41421356237309165
10
-79.264227583796554
20
-49.497201901349506
10
-79.264227584350976
20
-61.84818427507097
42
0.41421356237309853
10
-78.514227584384656
20
-62.598184275104643
10
-66.163245210667029
20
-62.598184275659136
42
0.41421356237309165
10
-65.413245210633349
20
-61.848184275692795
10
-65.413245210078884
20
-49.497201901971309
42
0.41421356237308121
0
LWPOLYLINE
5
281
100
AcDbEntity
8
0
100
AcDbPolyline
90
8
70
1
43
0.0
10
-85.164592869140208
20
-13.119675037286441
10
-97.515575242859128
20
-13.119675036731973
42
0.41421356237308637
10
-98.26557524289278
20
-13.869675036698272
10
-98.265575243447813
20
-26.220657410413327
42
0.41421356237310719
10
-97.515575243481464
20
-26.970657410447032
10
-85.164592869762558
20
-26.970657411001522
42
0.41421356237308465
10
-84.414592869728892
20
-26.220657411035219
10
-84.414592869173845
20
-13.869675037320146
42
0.41421356237311668
0
ARC
5
282
100
AcDbEntity
8
0
100
AcDbCircle
10
-87.797513154240633
20
36.06663044488571
30
0
40
0.50003546475548444
210
0
220
-0
230
1
100
AcDbArc
50
45.000000000570516
51
90.000000000719723
0
LINE
5
283
100
AcDbEntity
8
0
100
AcDbLine
10
-87.797513154246914
20
36.566665909641195
30
0
11
-123.80006661661744
21
36.566665909641195
31
0
0
LINE
5
284
100
AcDbEntity
8
0
100
AcDbLine
10
-123.80006661661744
20
36.566665909641195
30
0
11
-125.80020847563731
21
36.566665909641195
31
0
0
LINE
5
285
100
AcDbEntity
8
0
100
AcDbLine
10
-125.80020847563731
20
36.566665909641195
30
0
11
-142.80141427731311
21
36.566665909641195
31
0
0
SPLINE
5
286
100
AcDbEntity
8
0
100
AcDbSpline
70
0
71
3
72
8
73
4
74
0
42
0.000000001
43
0.0000000001
44
0.0000000001
40
4
40
4
40
4
40
4
40
5
40
5
40
5
40
5
10
-142.80141427731311
20
36.566665909641195
30
0
10
-143.07757623887193
20
36.566665909641195
30
0
10
-143.30144974206814
20
36.790539412843486
30
0
10
-143.30144974206814
20
37.066701374395905
30
0
0
LINE
5
287
100
AcDbEntity
8
0
100
AcDbLine
10
-143.30144974206814
20
37.066701374395905
30
0
11
-143.30144974206814
21
92.320620229842959
31
0
0
SPLINE
5
288
100
AcDbEntity
8
0
100
AcDbSpline
70
0
71
3
72
8
73
4
74
0
42
0.000000001
43
0.0000000001
44
0.0000000001
40
6
40
6
40
6
40
6
40
7
40
7
40
7
40
7
10
-143.30144974206814
20
92.320620229842959
30
0
10
-143.30144974206814
20
92.596782191401815
30
0
10
-143.07757623887193
20
92.820655694600234
30
0
10
-142.80141427731311
20
92.820655694600234
30
0
0
LINE
5
289
100
AcDbEntity
8
0
100
AcDbLine
10
-142.80141427731311
20
92.820655694600234
30
0
11
-125.80020847563731
21
92.820655694600234
31
0
0
LINE
5
290
100
AcDbEntity
8
0
100
AcDbLine
10
-125.80020847563731
20
92.820655694600234
30
0
11
-123.80006661661744
21
92.820655694600234
31
0
0
LINE
5
291
100
AcDbEntity
8
0
100
AcDbLine
10
-123.80006661661744
20
92.820655694600234
30
0
11
-105.79878988542961
21
92.820655694600234
31
0
0
SPLINE
5
292
100
AcDbEntity
8
0
100
AcDbSpline
70
0
71
3
72
8
73
4
74
0
42
0.000000001
43
0.0000000001
44
0.0000000001
40
10
40
10
40
10
40
10
40
11
40
11
40
11
40
11
10
-105.79878988542961
20
92.820655694600234
30
0
10
-105.52262792387337
20
92.820655694600234
30
0
10
-105.2987544206772
20
93.044529197794816
30
0
10
-105.2987544206772
20
93.320691159357523
30
0
0
LINE
5
293
100
AcDbEntity
8
0
100
AcDbLine
10
-105.2987544206772
20
93.320691159357523
30
0
11
-105.2987544206772
21
97.070957145019833
31
0
0
SPLINE
5
294
100
AcDbEntity
8
0
100
AcDbSpline
70
0
71
3
72
8
73
4
74
0
42
0.000000001
43
0.0000000001
44
0.0000000001
40
12
40
12
40
12
40
12
40
13
40
13
40
13
40
13
10
-105.2987544206772
20
97.070957145019833
30
0
10
-105.2987544206772
20
97.347119106576116
30
0
10
-105.07488091748129
20
97.570992609777107
30
0
10
-104.79871895591987
20
97.570992609777107
30
0
0
LINE
5
295
100
AcDbEntity
8
0
100
AcDbLine
10
-104.79871895591987
20
97.570992609777107
30
0
11
-86.797442224735903
21
97.570992609777107
31
0
0
SPLINE
5
296
100
AcDbEntity
8
0
100
AcDbSpline
70
0
71
3
72
8
73
4
74
0
42
0.000000001
43
0.0000000001
44
0.0000000001
40
14
40
14
40
14
40
14
40
15
40
15
40
15
40
15
10
-86.797442224735903
20
97.570992609777107
30
0
10
-86.521280263175782
20
97.570992609777107
30
0
10
-86.297406759979879
20
97.794866112967838
30
0
10
-86.297406759979879
20
98.071028074528002
30
0
0
LINE
5
297
100
AcDbEntity
8
0
100
AcDbLine
10
-86.297406759979879
20
98.071028074528002
30
0
11
-86.297406759979879
21
99.321116736420549
31
0
0
SPLINE
5
298
100
AcDbEntity
8
0
100
AcDbSpline
70
0
71
3
72
8
73
4
74
0
42
0.000000001
43
0.0000000001
44
0.0000000001
40
16
40
16
40
16
40
16
40
17
40
17
40
17
40
17
10
-86.297406759979879
20
99.321116736420549
30
0
10
-86.297406759979879
20
99.597278697976833
30
0
10
-86.073533256784046
20
99.821152201171429
30
0
10
-85.79737129522519
20
99.821152201171429
30
0
0
LINE
5
299
100
AcDbEntity
8
0
100
AcDbLine
10
-85.79737129522519
20
99.821152201171429
30
0
11
-68.796165493549353
21
99.821152201171429
31
0
0
SPLINE
5
300
100
AcDbEntity
8
0
100
AcDbSpline
70
0
71
3
72
8
73
4
74
0
42
0.000000001
43
0.0000000001
44
0.0000000001
40
18
40
18
40
18
40
18
40
19
40
19
40
19
40
19
10
-68.796165493549353
20
99.821152201171429
30
0
10
-68.520003531989545
20
99.821152201171429
30
0
10
-68.296130028792078
20
99.597278697976833
30
0
10
-68.296130028792078
20
99.321116736420549
30
0
0
LINE
5
301
100
AcDbEntity
8
0
100
AcDbLine
10
-68.296130028792078
20
99.321116736420549
30
0
11
-68.296130028792078
21
98.071028074528002
31
0
0
SPLINE
5
302
100
AcDbEntity
8
0
100
AcDbSpline
70
0
71
3
72
8
73
4
74
0
42
0.000000001
43
0.0000000001
44
0.0000000001
40
20
40
20
40
20
40
20
40
21
40
21
40
21
40
21
10
-68.296130028792078
20
98.071028074528002
30
0
10
-68.296130028792078
20
97.794866112967838
30
0
10
-68.072256525597794
20
97.570992609777107
30
0
10
-67.79609456403864
20
97.570992609777107
30
0
0
LINE
5
303
100
AcDbEntity
8
0
100
AcDbLine
10
-67.79609456403864
20
97.570992609777107
30
0
11
-49.794817832852097
21
97.570992609777107
31
0
0
SPLINE
5
304
100
AcDbEntity
8
0
100
AcDbSpline
70
0
71
3
72
8
73
4
74
0
42
0.000000001
43
0.0000000001
44
0.0000000001
40
22
40
22
40
22
40
22
40
23
40
23
40
23
40
23
10
-49.794817832852097
20
97.570992609777107
30
0
10
-49.518655871291983
20
97.570992609777107
30
0
10
-49.294782368095127
20
97.347119106576116
30
0
10
-49.294782368095127
20
97.070957145019833
30
0
0
LINE
5
305
100
AcDbEntity
8
0
100
AcDbLine
10
-49.294782368095127
20
97.070957145019833
30
0
11
-49.294782368095127
21
95.570850750755696
31
0
0
SPLINE
5
306
100
AcDbEntity
8
0
100
AcDbSpline
70
0
71
3
72
8
73
4
74
0
42
0.000000001
43
0.0000000001
44
0.0000000001
40
24
40
24
40
24
40
24
40
25
40
25
40
25
40
25
10
-49.294782368095127
20
95.570850750755696
30
0
10
-49.294782368098666
20
95.294688789191682
30
0
10
-49.07090886490024
20
95.070815286000951
30
0
10
-48.794746903341391
20
95.070815286000951
30
0
0
LINE
5
307
100
AcDbEntity
8
0
100
AcDbLine
10
-48.794746903341391
20
95.070815286000951
30
0
11
-30.793470172156123
21
95.070815286000951
31
0
0
SPLINE
5
308
100
AcDbEntity
8
0
100
AcDbSpline
70
0
71
3
72
8
73
4
74
0
42
0.000000001
43
0.0000000001
44
0.0000000001
40
26
40
26
40
26
40
26
40
27
40
27
40
27
40
27
10
-30.793470172156123
20
95.070815286000951
30
0
10
-30.517308210598571
20
95.070815286000951
30
0
10
-30.293434707401406
20
94.846941782799959
30
0
10
-30.293434707401406
20
94.570779821243676
30
0
0
LINE
5
309
100
AcDbEntity
8
0
100
AcDbLine
10
-30.293434707401406
20
94.570779821243676
30
0
11
-30.293434707401406
21
93.336185982838373
31
0
0
SPLINE
5
310
100
AcDbEntity
8
0
100
AcDbSpline
70
0
71
3
72
8
73
4
74
0
42
0.000000001
43
0.0000000001
44
0.0000000001
40
28
40
28
40
28
40
28
40
29
40
29
40
29
40
29
10
-30.293434707401406
20
93.336185982838373
30
0
10
-30.265018092423958
20
93.068063961916252
30
0
10
-30.059195457108761
20
92.852918301991707
30
0
10
-29.79259436720708
20
92.812659377803868
30
0
0
LINE
5
311
100
AcDbEntity
8
0
100
AcDbLine
10
-29.79259436720708
20
92.812659377803868
30
0
11
-10.041193509379667
21
92.812659377803868
31
0
0
SPLINE
5
312
100
AcDbEntity
8
0
100
AcDbSpline
70
0
71
3
72
8
73
4
74
0
42
0.000000001
43
0.0000000001
44
0.0000000001
40
30
40
30
40
30
40
30
40
31
40
31
40
31
40
31
10
-10.041193509379667
20
92.812659377803868
30
0
10
-9.7650315478233889
20
92.812659377803868
30
0
10
-9.5411580446262345
20
92.588785874605435
30
0
10
-9.5411580446262345
20
92.312623913045314
30
0
0
LINE
5
313
100
AcDbEntity
8
0
100
AcDbLine
10
-9.5411580446262345
20
92.312623913045314
30
0
11
-9.5411030713616825
21
33.351842739070122
31
0
0
ARC
5
314
100
AcDbEntity
8
0
100
AcDbCircle
10
14.428306898416349
20
33.612147429096744
30
0
40
4.8941311566842636
210
0
220
0
230
-1
100
AcDbArc
50
183.04883551523776
51
211.50657899042474
0
LINE
5
315
100
AcDbEntity
8
0
100
AcDbLine
10
-10.255667760025204
20
31.054491783863384
30
0
11
-23.492952386731602
21
8.0146408721237972
31
0
0
SPLINE
5
316
100
AcDbEntity
8
0
100
AcDbSpline
70
0
71
3
72
11
73
7
74
0
42
0.000000001
43
0.0000000001
44
0.0000000001
40
34
40
34
40
34
40
34
40
35
40
35
40
35
40
36
40
36
40
36
40
36
10
-23.492952386731595
20
8.0146408721237989
30
0
10
-23.497697142412331
20
8.007489285124807
30
0
10
-23.502547209076852
20
8.0004081283288144
30
0
10
-23.507501001602769
20
7.9933997160439398
30
0
10
-23.785508283841232
20
7.6000869882362352
30
0
10
-24.329720678510803
20
7.5066134559152475
30
0
10
-24.723033406323644
20
7.7846207381562715
30
0
0
LINE
5
317
100
AcDbEntity
8
0
100
AcDbLine
10
-24.723033406323644
20
7.7846207381562715
30
0
11
-39.47270261235856
21
16.274145065913398
31
0
0
ARC
5
318
100
AcDbEntity
8
0
100
AcDbCircle
10
-40.047634684917178
20
14.620471955104415
30
0
40
1.7507660167678649
210
0
220
-0
230
1
100
AcDbArc
50
70.828984444095298
51
80.306600000380925
0
LINE
5
319
100
AcDbEntity
8
0
100
AcDbLine
10
-39.752847997488757
20
16.346242059835689
30
0
11
-76.546715197252965
21
21.815619699368654
31
0
0
ARC
5
320
100
AcDbEntity
8
0
100
AcDbCircle
10
76.482415880123881
20
22.449019055272757
30
0
40
0.63665465225897833
210
-0
220
0
230
-1
100
AcDbArc
50
275.79650429064219
51
310.60067673631465
0
SPLINE
5
321
100
AcDbEntity
8
0
100
AcDbSpline
70
0
71
3
72
8
73
4
74
0
42
0.000000001
43
0.0000000001
44
0.0000000001
40
40
40
40
40
40
40
40
40
41
40
41
40
41
40
41
10
-76.896740022583245
20
21.965630338794682
30
0
10
-76.896769494946668
20
21.965670729137518
30
0
10
-87.447488328916663
20
36.424882729266919
30
0
10
-87.443934686281779
20
36.420208912851606
30
0
0
LWPOLYLINE
5
322
100
AcDbEntity
8
0
100
AcDbPolyline
90
8
70
1
43
0.0
10
-66.163245209192411
20
-29.745854241244221
10
-78.514227582910024
20
-29.745854240689749
42
0.41421356237309165
10
-79.264227582943704
20
-30.49585424065608
10
-79.264227583498169
20
-42.846836614373728
42
0.41421356237309165
10
-78.514227583531834
20
-43.596836614407394
10
-66.163245209814207
20
-43.59683661496188
42
0.4142135623730881
10
-65.413245209780541
20
-42.846836614995532
10
-65.413245209226076
20
-30.495854241277893
42
0.4142135623731002
0
SPLINE
5
323
100
AcDbEntity
8
0
100
AcDbSpline
70
2
71
3
72
14
73
10
74
0
42
0.000000001
43
0.0000000001
44
0.0000000001
40
0
40
0
40
0
40
0
40
1
40
1
40
2
40
2
40
3
40
3
40
4
40
4
40
4
40
4
10
-113.50672077397317
20
-78.182417088013281
30
0
10
-113.5067207739456
20
-77.574860772581772
30
0
10
-113.9992424809511
20
-77.08233906552752
30
0
10
-115.21435511181156
20
-77.082339065472951
30
0
10
-115.70687681886068
20
-77.574860772482978
30
0
10
-115.70687681891492
20
-78.789973403336987
30
0
10
-115.21435511191036
20
-79.282495110395772
30
0
10
-113.99924248104989
20
-79.282495110450299
30
0
10
-113.50672077400012
20
-78.789973403435823
30
0
10
-113.50672077397317
20
-78.182417088013281
30
0
0
ENDSEC
0
SECTION
2
OBJECTS
0
DICTIONARY
5
C
100
AcDbDictionary
3
ACAD_GROUP
350
D
3
ACAD_MLINESTYLE
350
17
0
DICTIONARY
5
D
100
AcDbDictionary
0
DICTIONARY
5
1A
330
C
100
AcDbDictionary
0
DICTIONARY
5
17
100
AcDbDictionary
0
ENDSEC
0
EOF
